{"glyphs":{"0":{"ha":1481,"x_min":83,"x_max":1397,"o":"m 743 -21 q 1108 15 963 -21 q 1325 131 1253 51 q 1397 339 1397 210 q 1325 548 1397 468 q 1108 665 1253 628 q 743 701 963 701 q 376 665 522 701 q 156 548 229 628 q 83 339 83 468 q 156 131 83 210 q 376 15 229 51 q 743 -21 522 -21 m 743 188 q 567 205 639 188 q 460 256 496 222 q 424 339 424 289 q 460 424 424 389 q 569 476 497 458 q 744 493 640 493 q 917 475 847 493 q 1022 423 986 457 q 1057 339 1057 389 q 1021 256 1057 289 q 915 205 985 222 q 743 188 846 188 "},"1":{"ha":735,"x_min":35,"x_max":638,"o":"m 35 417 l 304 417 l 304 0 l 638 0 l 638 681 l 35 681 l 35 417 "},"2":{"ha":1393,"x_min":49,"x_max":1338,"o":"m 699 208 q 954 244 838 226 q 1157 289 1071 263 q 1290 357 1243 315 q 1338 463 1338 399 q 1289 581 1338 535 q 1154 654 1240 628 q 955 691 1068 681 q 713 701 842 701 q 347 662 494 701 q 124 549 199 622 q 49 372 49 475 l 396 372 q 478 444 403 421 q 700 467 553 467 q 877 463 815 467 q 963 448 939 458 q 986 415 986 438 q 931 356 986 383 q 765 302 875 329 q 488 244 654 275 q 100 174 321 213 l 100 0 l 1336 0 l 1336 215 l 396 183 l 397 169 l 699 208 "},"3":{"ha":1465,"x_min":49,"x_max":1417,"o":"m 808 238 q 1041 250 935 240 q 1225 284 1147 260 q 1346 351 1303 308 q 1389 463 1389 394 q 1312 600 1389 546 q 1088 681 1235 654 q 731 708 942 708 q 469 688 592 708 q 252 623 346 667 q 106 511 158 579 q 53 350 53 443 l 399 350 q 494 420 404 396 q 731 444 583 444 q 956 427 885 444 q 1028 365 1028 410 q 995 316 1028 335 q 883 290 963 297 q 667 282 804 282 l 460 282 l 460 185 l 667 185 q 951 172 854 185 q 1049 107 1049 160 q 969 40 1049 53 q 724 26 889 26 q 561 34 635 26 q 444 59 488 42 q 397 107 400 76 l 49 107 q 127 -82 49 -6 q 356 -198 206 -158 q 724 -237 507 -237 q 1093 -207 938 -237 q 1333 -115 1249 -176 q 1417 38 1417 -54 q 1372 153 1417 111 q 1244 214 1326 194 q 1051 239 1163 233 q 806 244 939 244 l 808 238 "},"4":{"ha":1519,"x_min":69,"x_max":1478,"o":"m 1250 688 l 917 688 l 69 160 l 69 -49 l 939 -49 l 939 160 l 404 160 l 428 79 l 1043 474 l 917 543 l 917 -201 l 1250 -201 l 1250 688 m 1228 -49 l 1478 -49 l 1478 160 l 1228 160 l 1228 -49 "},"5":{"ha":1410,"x_min":76,"x_max":1340,"o":"m 903 328 q 689 308 792 328 q 508 256 586 288 q 394 192 431 225 l 439 186 l 472 431 l 1226 431 l 1226 694 l 172 694 l 103 172 l 378 124 q 458 137 404 131 q 578 148 511 143 q 707 153 644 153 q 811 151 758 153 q 908 143 864 150 q 980 120 953 136 q 1007 75 1007 104 q 981 32 1007 47 q 910 10 954 17 q 813 1 867 3 q 707 0 760 0 q 553 8 626 0 q 433 31 481 15 q 382 65 386 46 l 76 65 q 128 -61 76 -6 q 272 -156 181 -117 q 481 -216 363 -196 q 731 -236 599 -236 q 1069 -203 933 -236 q 1272 -101 1204 -169 q 1340 71 1340 -33 q 1304 196 1340 146 q 1207 275 1268 246 q 1067 316 1146 304 q 903 328 989 328 "},"6":{"ha":1574,"x_min":42,"x_max":1525,"o":"m 961 611 q 733 585 833 611 q 542 509 632 560 q 362 383 453 458 q 163 211 271 308 l 250 281 l 1131 889 l 661 889 q 634 867 661 889 q 562 808 607 844 q 463 728 517 772 q 353 638 408 683 q 249 552 297 592 q 167 485 200 513 q 128 451 135 458 q 58 358 74 403 q 42 281 42 314 q 133 107 42 175 q 404 6 225 39 q 847 -28 583 -28 q 1233 15 1083 -28 q 1454 132 1383 58 q 1525 297 1525 206 q 1462 460 1525 389 q 1273 571 1399 531 q 961 611 1147 611 m 817 210 q 504 232 619 210 q 389 304 389 254 q 504 376 389 350 q 817 403 619 403 q 1085 376 992 403 q 1178 304 1178 350 q 1085 232 1178 254 q 817 210 992 210 "},"7":{"ha":1601,"x_min":83,"x_max":1490,"o":"m 83 417 l 1196 417 l 1158 515 l 335 -208 l 789 -208 l 1490 417 l 1490 681 l 83 681 l 83 417 "},"8":{"ha":1501,"x_min":49,"x_max":1453,"o":"m 750 471 q 1138 490 993 471 q 1348 553 1283 508 q 1413 672 1413 597 q 1348 803 1413 749 q 1138 887 1283 857 q 750 917 993 917 q 363 887 508 917 q 153 803 218 857 q 89 672 89 749 q 153 553 89 597 q 363 490 218 508 q 750 471 508 471 m 750 526 q 555 536 621 526 q 466 563 489 546 q 443 600 443 579 q 466 635 443 621 q 555 657 489 650 q 750 664 621 664 q 950 657 881 664 q 1046 635 1019 650 q 1072 600 1072 621 q 1046 563 1072 579 q 950 536 1019 546 q 750 526 881 526 m 750 -28 q 1161 8 1007 -28 q 1384 107 1315 44 q 1453 247 1453 169 q 1381 393 1453 343 q 1155 461 1310 443 q 750 479 1000 479 q 346 461 500 479 q 120 393 192 443 q 49 247 49 343 q 117 107 49 169 q 339 8 185 44 q 750 -28 493 -28 m 750 235 q 532 242 607 235 q 430 266 457 250 q 403 306 403 282 q 430 344 403 329 q 532 367 457 360 q 750 375 607 375 q 973 367 894 375 q 1082 344 1051 360 q 1113 306 1113 329 q 1082 266 1113 282 q 973 242 1051 250 q 750 235 894 235 "},"9":{"ha":1608,"x_min":49,"x_max":1560,"o":"m 613 83 q 851 109 746 83 q 1051 184 957 135 q 1238 306 1144 233 q 1439 469 1331 378 l 1350 414 l 471 -208 l 939 -208 q 965 -186 939 -208 q 1035 -128 992 -164 q 1132 -47 1079 -92 q 1239 42 1185 -3 q 1340 125 1293 86 q 1417 190 1386 164 q 1453 222 1447 217 q 1536 324 1513 276 q 1560 414 1560 371 q 1476 585 1560 519 q 1219 683 1392 651 q 783 715 1047 715 q 358 677 519 715 q 122 568 196 639 q 49 397 49 497 q 112 235 49 306 q 301 124 175 164 q 613 83 426 83 m 783 486 q 1011 478 915 486 q 1160 449 1107 469 q 1213 390 1213 428 q 1097 315 1213 339 q 783 292 981 292 q 491 315 586 292 q 396 390 396 339 q 491 466 396 446 q 783 486 586 486 "},"A":{"ha":1611,"x_min":14,"x_max":1597,"o":"m 325 135 l 1275 135 l 1275 343 l 325 343 l 325 135 m 14 0 l 396 0 l 907 796 l 700 796 l 1215 0 l 1597 0 l 996 889 l 610 889 l 14 0 "},"Á":{"ha":1611,"x_min":14,"x_max":1597,"o":"m 325 135 l 1275 135 l 1275 343 l 325 343 l 325 135 m 14 0 l 396 0 l 907 796 l 700 796 l 1215 0 l 1597 0 l 996 889 l 610 889 l 14 0 m 613 961 l 947 961 l 1338 1169 l 893 1169 l 613 961 "},"Ă":{"ha":1611,"x_min":14,"x_max":1597,"o":"m 325 135 l 1275 135 l 1275 343 l 325 343 l 325 135 m 14 0 l 396 0 l 907 796 l 700 796 l 1215 0 l 1597 0 l 996 889 l 610 889 l 14 0 m 1324 1139 l 1115 1139 q 1010 1099 1083 1119 q 803 1078 938 1078 q 594 1099 668 1078 q 490 1139 521 1119 l 282 1139 q 372 1038 310 1083 q 540 966 435 993 q 803 939 646 939 q 1065 966 960 939 q 1233 1038 1171 993 q 1324 1139 1296 1083 "},"Â":{"ha":1611,"x_min":14,"x_max":1597,"o":"m 325 135 l 1275 135 l 1275 343 l 325 343 l 325 135 m 14 0 l 396 0 l 907 796 l 700 796 l 1215 0 l 1597 0 l 996 889 l 610 889 l 14 0 m 997 1169 l 608 1169 l 300 961 l 635 961 l 933 1131 l 672 1132 l 969 961 l 1306 961 l 997 1169 "},"Ä":{"ha":1611,"x_min":14,"x_max":1597,"o":"m 325 135 l 1275 135 l 1275 343 l 325 343 l 325 135 m 14 0 l 396 0 l 907 796 l 700 796 l 1215 0 l 1597 0 l 996 889 l 610 889 l 14 0 m 411 921 l 58 921 l 58 711 l 411 711 l 411 921 m 1560 921 l 1207 921 l 1207 711 l 1560 711 l 1560 921 "},"À":{"ha":1611,"x_min":14,"x_max":1597,"o":"m 325 135 l 1275 135 l 1275 343 l 325 343 l 325 135 m 14 0 l 396 0 l 907 796 l 700 796 l 1215 0 l 1597 0 l 996 889 l 610 889 l 14 0 m 664 961 l 999 961 l 718 1169 l 274 1169 l 664 961 "},"Ā":{"ha":1611,"x_min":14,"x_max":1597,"o":"m 325 135 l 1275 135 l 1275 343 l 325 343 l 325 135 m 14 0 l 396 0 l 907 796 l 700 796 l 1215 0 l 1597 0 l 996 889 l 610 889 l 14 0 m 488 963 l 1118 963 l 1118 1100 l 488 1100 l 488 963 "},"Ą":{"ha":1611,"x_min":14,"x_max":1597,"o":"m 1513 -333 l 1513 -197 q 1397 -186 1450 -197 q 1310 -151 1343 -175 q 1278 -90 1278 -128 q 1323 -27 1278 -44 q 1456 0 1368 -10 l 1456 31 q 1235 7 1332 24 q 1083 -45 1139 -10 q 1028 -146 1028 -81 q 1157 -283 1028 -233 q 1513 -333 1286 -333 m 325 135 l 1275 135 l 1275 343 l 325 343 l 325 135 m 14 0 l 396 0 l 907 796 l 700 796 l 1215 0 l 1597 0 l 996 889 l 610 889 l 14 0 "},"Å":{"ha":1611,"x_min":14,"x_max":1597,"o":"m 325 135 l 1275 135 l 1275 343 l 325 343 l 325 135 m 14 0 l 396 0 l 907 796 l 700 796 l 1215 0 l 1597 0 l 996 889 l 610 889 l 14 0 m 803 926 q 979 969 921 926 q 1038 1082 1038 1011 q 979 1194 1038 1151 q 803 1236 921 1236 q 626 1194 683 1236 q 568 1082 568 1151 q 626 969 568 1011 q 803 926 683 926 m 803 1017 q 723 1031 746 1017 q 700 1082 700 1044 q 723 1132 700 1118 q 803 1146 746 1146 q 881 1132 858 1146 q 904 1082 904 1118 q 881 1031 904 1044 q 803 1017 858 1017 "},"Ã":{"ha":1611,"x_min":14,"x_max":1597,"o":"m 325 135 l 1275 135 l 1275 343 l 325 343 l 325 135 m 14 0 l 396 0 l 907 796 l 700 796 l 1215 0 l 1597 0 l 996 889 l 610 889 l 14 0 m 989 951 q 1138 982 1075 951 q 1246 1060 1201 1013 q 1315 1160 1290 1108 l 1107 1160 q 1071 1126 1090 1142 q 1025 1100 1051 1110 q 960 1090 999 1090 q 877 1102 915 1090 q 800 1128 839 1114 q 717 1155 761 1143 q 618 1167 674 1167 q 469 1136 533 1167 q 362 1058 406 1106 q 292 958 318 1011 l 500 958 q 540 996 521 981 q 582 1019 558 1011 q 639 1028 606 1028 q 724 1016 683 1028 q 804 990 764 1004 q 890 963 844 975 q 989 951 935 951 "},"Æ":{"ha":2335,"x_min":14,"x_max":2251,"o":"m 1196 375 l 2057 375 l 2057 514 l 1196 514 l 1196 625 l 2249 625 l 2249 889 l 631 889 l 14 0 l 392 0 l 932 806 l 849 831 l 849 0 l 2251 0 l 2251 264 l 1196 264 l 1196 375 m 325 190 l 1150 190 l 1150 399 l 325 399 l 325 190 "},"B":{"ha":1583,"x_min":97,"x_max":1542,"o":"m 97 0 l 1042 0 q 1307 27 1194 0 q 1481 110 1419 54 q 1542 251 1542 165 q 1504 363 1542 322 q 1400 422 1467 403 q 1244 447 1333 442 q 1051 453 1156 453 l 1040 442 q 1285 463 1183 446 q 1442 525 1388 481 q 1497 653 1497 569 q 1369 836 1497 783 q 972 889 1242 889 l 97 889 l 97 0 m 444 261 l 444 378 l 1042 378 q 1121 372 1090 378 q 1166 353 1151 365 q 1181 319 1181 340 q 1148 275 1181 289 q 1042 261 1115 261 l 444 261 m 444 511 l 444 628 l 983 628 q 1090 615 1057 628 q 1122 569 1122 601 q 1090 525 1122 539 q 983 511 1057 511 l 444 511 "},"C":{"ha":1828,"x_min":83,"x_max":1744,"o":"m 1743 371 l 1382 371 q 1321 303 1365 335 q 1188 254 1276 272 q 949 236 1100 236 q 660 257 771 236 q 497 322 549 278 q 446 438 446 367 q 497 563 446 515 q 660 631 549 610 q 949 653 771 653 q 1189 633 1100 653 q 1322 580 1278 614 q 1383 501 1367 546 l 1744 501 q 1649 728 1738 635 q 1386 869 1560 821 q 949 917 1213 917 q 588 893 747 917 q 315 815 428 869 q 143 667 203 760 q 83 438 83 575 q 143 210 83 300 q 315 67 203 119 q 588 -6 428 15 q 949 -28 747 -28 q 1385 17 1213 -28 q 1647 150 1558 61 q 1743 371 1736 239 "},"Ć":{"ha":1828,"x_min":83,"x_max":1744,"o":"m 1743 371 l 1382 371 q 1321 303 1365 335 q 1188 254 1276 272 q 949 236 1100 236 q 660 257 771 236 q 497 322 549 278 q 446 438 446 367 q 497 563 446 515 q 660 631 549 610 q 949 653 771 653 q 1189 633 1100 653 q 1322 580 1278 614 q 1383 501 1367 546 l 1744 501 q 1649 728 1738 635 q 1386 869 1560 821 q 949 917 1213 917 q 588 893 747 917 q 315 815 428 869 q 143 667 203 760 q 83 438 83 575 q 143 210 83 300 q 315 67 203 119 q 588 -6 428 15 q 949 -28 747 -28 q 1385 17 1213 -28 q 1647 150 1558 61 q 1743 371 1736 239 m 731 975 l 1065 975 l 1456 1183 l 1011 1183 l 731 975 "},"Č":{"ha":1828,"x_min":83,"x_max":1744,"o":"m 1743 371 l 1382 371 q 1321 303 1365 335 q 1188 254 1276 272 q 949 236 1100 236 q 660 257 771 236 q 497 322 549 278 q 446 438 446 367 q 497 563 446 515 q 660 631 549 610 q 949 653 771 653 q 1189 633 1100 653 q 1322 580 1278 614 q 1383 501 1367 546 l 1744 501 q 1649 728 1738 635 q 1386 869 1560 821 q 949 917 1213 917 q 588 893 747 917 q 315 815 428 869 q 143 667 203 760 q 83 438 83 575 q 143 210 83 300 q 315 67 203 119 q 588 -6 428 15 q 949 -28 747 -28 q 1385 17 1213 -28 q 1647 150 1558 61 q 1743 371 1736 239 m 1051 1014 l 753 1183 l 418 1183 l 726 975 l 1115 975 l 1424 1183 l 1088 1183 l 790 1013 l 1051 1014 "},"Ç":{"ha":1828,"x_min":83,"x_max":1744,"o":"m 785 -151 l 543 -151 q 592 -253 550 -204 q 712 -331 633 -301 q 904 -361 790 -361 q 1176 -315 1081 -361 q 1271 -192 1271 -268 q 1242 -123 1271 -149 q 1167 -83 1214 -97 q 1060 -58 1119 -68 l 831 -90 q 929 -110 899 -99 q 968 -133 960 -121 q 976 -156 976 -144 q 956 -184 976 -174 q 896 -194 936 -194 q 833 -185 856 -194 q 799 -166 810 -176 q 785 -151 789 -156 m 831 26 l 831 -90 l 1067 -93 l 1067 26 l 831 26 m 1743 371 l 1382 371 q 1321 303 1365 335 q 1188 254 1276 272 q 949 236 1100 236 q 660 257 771 236 q 497 322 549 278 q 446 438 446 367 q 497 563 446 515 q 660 631 549 610 q 949 653 771 653 q 1189 633 1100 653 q 1322 580 1278 614 q 1383 501 1367 546 l 1744 501 q 1649 728 1738 635 q 1386 869 1560 821 q 949 917 1213 917 q 588 893 747 917 q 315 815 428 869 q 143 667 203 760 q 83 438 83 575 q 143 210 83 300 q 315 67 203 119 q 588 -6 428 15 q 949 -28 747 -28 q 1385 17 1213 -28 q 1647 150 1558 61 q 1743 371 1736 239 "},"Ċ":{"ha":1828,"x_min":83,"x_max":1744,"o":"m 1743 371 l 1382 371 q 1321 303 1365 335 q 1188 254 1276 272 q 949 236 1100 236 q 660 257 771 236 q 497 322 549 278 q 446 438 446 367 q 497 563 446 515 q 660 631 549 610 q 949 653 771 653 q 1189 633 1100 653 q 1322 580 1278 614 q 1383 501 1367 546 l 1744 501 q 1649 728 1738 635 q 1386 869 1560 821 q 949 917 1213 917 q 588 893 747 917 q 315 815 428 869 q 143 667 203 760 q 83 438 83 575 q 143 210 83 300 q 315 67 203 119 q 588 -6 428 15 q 949 -28 747 -28 q 1385 17 1213 -28 q 1647 150 1558 61 q 1743 371 1736 239 m 1097 1185 l 744 1185 l 744 976 l 1097 976 l 1097 1185 "},"D":{"ha":1808,"x_min":97,"x_max":1725,"o":"m 1097 889 l 97 889 l 97 0 l 1097 0 q 1395 36 1275 0 q 1588 135 1515 72 q 1693 277 1661 197 q 1725 444 1725 357 q 1697 612 1725 532 q 1599 754 1668 692 q 1407 853 1529 817 q 1097 889 1285 889 m 444 278 l 444 611 l 1083 611 q 1215 601 1161 611 q 1302 569 1269 590 q 1349 517 1335 549 q 1364 444 1364 486 q 1349 372 1364 403 q 1302 319 1335 340 q 1215 288 1269 299 q 1083 278 1161 278 l 444 278 "},"Ð":{"ha":1808,"x_min":-22,"x_max":1725,"o":"m 1097 889 l 97 889 l 97 0 l 1097 0 q 1395 36 1275 0 q 1588 135 1515 72 q 1693 277 1661 197 q 1725 444 1725 357 q 1697 612 1725 532 q 1599 754 1668 692 q 1407 853 1529 817 q 1097 889 1285 889 m 444 278 l 444 611 l 1083 611 q 1215 601 1161 611 q 1302 569 1269 590 q 1349 517 1335 549 q 1364 444 1364 486 q 1349 372 1364 403 q 1302 319 1335 340 q 1215 288 1269 299 q 1083 278 1161 278 l 444 278 m -22 503 l -22 413 l 658 413 l 658 503 l -22 503 "},"Ď":{"ha":1808,"x_min":97,"x_max":1725,"o":"m 1097 889 l 97 889 l 97 0 l 1097 0 q 1395 36 1275 0 q 1588 135 1515 72 q 1693 277 1661 197 q 1725 444 1725 357 q 1697 612 1725 532 q 1599 754 1668 692 q 1407 853 1529 817 q 1097 889 1285 889 m 444 278 l 444 611 l 1083 611 q 1215 601 1161 611 q 1302 569 1269 590 q 1349 517 1335 549 q 1364 444 1364 486 q 1349 372 1364 403 q 1302 319 1335 340 q 1215 288 1269 299 q 1083 278 1161 278 l 444 278 m 961 1000 l 663 1169 l 328 1169 l 636 961 l 1025 961 l 1333 1169 l 997 1169 l 700 999 l 961 1000 "},"Đ":{"ha":1808,"x_min":-22,"x_max":1725,"o":"m 1097 889 l 97 889 l 97 0 l 1097 0 q 1395 36 1275 0 q 1588 135 1515 72 q 1693 277 1661 197 q 1725 444 1725 357 q 1697 612 1725 532 q 1599 754 1668 692 q 1407 853 1529 817 q 1097 889 1285 889 m 444 278 l 444 611 l 1083 611 q 1215 601 1161 611 q 1302 569 1269 590 q 1349 517 1335 549 q 1364 444 1364 486 q 1349 372 1364 403 q 1302 319 1335 340 q 1215 288 1269 299 q 1083 278 1161 278 l 444 278 m -22 503 l -22 413 l 658 413 l 658 503 l -22 503 "},"E":{"ha":1583,"x_min":97,"x_max":1500,"o":"m 444 375 l 1306 375 l 1306 514 l 444 514 l 444 625 l 1497 625 l 1497 889 l 97 889 l 97 0 l 1500 0 l 1500 264 l 444 264 l 444 375 "},"É":{"ha":1583,"x_min":97,"x_max":1500,"o":"m 444 375 l 1306 375 l 1306 514 l 444 514 l 444 625 l 1497 625 l 1497 889 l 97 889 l 97 0 l 1500 0 l 1500 264 l 444 264 l 444 375 m 636 961 l 971 961 l 1361 1169 l 917 1169 l 636 961 "},"Ě":{"ha":1583,"x_min":97,"x_max":1500,"o":"m 444 375 l 1306 375 l 1306 514 l 444 514 l 444 625 l 1497 625 l 1497 889 l 97 889 l 97 0 l 1500 0 l 1500 264 l 444 264 l 444 375 m 957 1000 l 658 1169 l 324 1169 l 632 961 l 1021 961 l 1329 1169 l 993 1169 l 696 999 l 957 1000 "},"Ê":{"ha":1583,"x_min":97,"x_max":1500,"o":"m 444 375 l 1306 375 l 1306 514 l 444 514 l 444 625 l 1497 625 l 1497 889 l 97 889 l 97 0 l 1500 0 l 1500 264 l 444 264 l 444 375 m 1021 1169 l 632 1169 l 324 961 l 658 961 l 957 1131 l 696 1132 l 993 961 l 1329 961 l 1021 1169 "},"Ë":{"ha":1583,"x_min":97,"x_max":1500,"o":"m 444 375 l 1306 375 l 1306 514 l 444 514 l 444 625 l 1497 625 l 1497 889 l 97 889 l 97 0 l 1500 0 l 1500 264 l 444 264 l 444 375 m 792 1171 l 439 1171 l 439 961 l 792 961 l 792 1171 m 1214 1171 l 861 1171 l 861 961 l 1214 961 l 1214 1171 "},"Ė":{"ha":1583,"x_min":97,"x_max":1500,"o":"m 444 375 l 1306 375 l 1306 514 l 444 514 l 444 625 l 1497 625 l 1497 889 l 97 889 l 97 0 l 1500 0 l 1500 264 l 444 264 l 444 375 m 1003 1171 l 650 1171 l 650 963 l 1003 963 l 1003 1171 "},"È":{"ha":1583,"x_min":97,"x_max":1500,"o":"m 444 375 l 1306 375 l 1306 514 l 444 514 l 444 625 l 1497 625 l 1497 889 l 97 889 l 97 0 l 1500 0 l 1500 264 l 444 264 l 444 375 m 688 961 l 1022 961 l 742 1169 l 297 1169 l 688 961 "},"Ē":{"ha":1583,"x_min":97,"x_max":1500,"o":"m 444 375 l 1306 375 l 1306 514 l 444 514 l 444 625 l 1497 625 l 1497 889 l 97 889 l 97 0 l 1500 0 l 1500 264 l 444 264 l 444 375 m 511 963 l 1142 963 l 1142 1100 l 511 1100 l 511 963 "},"Ę":{"ha":1583,"x_min":97,"x_max":1500,"o":"m 1446 -333 l 1446 -197 q 1330 -186 1383 -197 q 1244 -151 1276 -175 q 1211 -90 1211 -128 q 1256 -27 1211 -44 q 1389 0 1301 -10 l 1389 31 q 1169 7 1265 24 q 1017 -45 1072 -10 q 961 -146 961 -81 q 1090 -283 961 -233 q 1446 -333 1219 -333 m 444 375 l 1306 375 l 1306 514 l 444 514 l 444 625 l 1497 625 l 1497 889 l 97 889 l 97 0 l 1500 0 l 1500 264 l 444 264 l 444 375 "},"F":{"ha":1567,"x_min":97,"x_max":1497,"o":"m 1497 889 l 97 889 l 97 0 l 444 0 l 444 271 l 1306 271 l 1306 507 l 444 507 l 444 625 l 1497 625 l 1497 889 "},"G":{"ha":1861,"x_min":83,"x_max":1764,"o":"m 907 -28 q 1331 58 1161 -28 q 1586 307 1500 144 l 1553 347 q 1391 285 1472 310 q 1210 248 1310 260 q 976 236 1111 236 q 668 258 785 236 q 499 325 551 281 q 446 438 446 369 q 497 563 446 515 q 660 631 549 610 q 949 653 771 653 q 1189 635 1100 653 q 1322 588 1278 617 q 1383 529 1367 560 l 1744 529 q 1646 735 1738 649 q 1380 869 1554 822 q 949 917 1206 917 q 594 893 753 917 q 320 815 435 869 q 144 667 206 760 q 83 438 83 575 q 144 210 83 300 q 315 67 204 119 q 576 -6 425 15 q 907 -28 726 -28 m 1492 0 l 1764 0 l 1764 460 l 1024 460 l 1024 314 l 1565 314 q 1531 205 1549 263 q 1503 94 1514 147 q 1492 0 1492 42 "},"Ğ":{"ha":1861,"x_min":83,"x_max":1764,"o":"m 907 -28 q 1331 58 1161 -28 q 1586 307 1500 144 l 1553 347 q 1391 285 1472 310 q 1210 248 1310 260 q 976 236 1111 236 q 668 258 785 236 q 499 325 551 281 q 446 438 446 369 q 497 563 446 515 q 660 631 549 610 q 949 653 771 653 q 1189 635 1100 653 q 1322 588 1278 617 q 1383 529 1367 560 l 1744 529 q 1646 735 1738 649 q 1380 869 1554 822 q 949 917 1206 917 q 594 893 753 917 q 320 815 435 869 q 144 667 206 760 q 83 438 83 575 q 144 210 83 300 q 315 67 204 119 q 576 -6 425 15 q 907 -28 726 -28 m 1492 0 l 1764 0 l 1764 460 l 1024 460 l 1024 314 l 1565 314 q 1531 205 1549 263 q 1503 94 1514 147 q 1492 0 1492 42 m 1425 1153 l 1217 1153 q 1112 1113 1185 1133 q 904 1092 1039 1092 q 696 1113 769 1092 q 592 1153 622 1133 l 383 1153 q 474 1052 411 1097 q 642 980 536 1007 q 904 953 747 953 q 1167 980 1061 953 q 1335 1052 1272 1007 q 1425 1153 1397 1097 "},"Ģ":{"ha":1861,"x_min":83,"x_max":1764,"o":"m 907 -28 q 1331 58 1161 -28 q 1586 307 1500 144 l 1553 347 q 1391 285 1472 310 q 1210 248 1310 260 q 976 236 1111 236 q 668 258 785 236 q 499 325 551 281 q 446 438 446 369 q 497 563 446 515 q 660 631 549 610 q 949 653 771 653 q 1189 635 1100 653 q 1322 588 1278 617 q 1383 529 1367 560 l 1744 529 q 1646 735 1738 649 q 1380 869 1554 822 q 949 917 1206 917 q 594 893 753 917 q 320 815 435 869 q 144 667 206 760 q 83 438 83 575 q 144 210 83 300 q 315 67 204 119 q 576 -6 425 15 q 907 -28 726 -28 m 1492 0 l 1764 0 l 1764 460 l 1024 460 l 1024 314 l 1565 314 q 1531 205 1549 263 q 1503 94 1514 147 q 1492 0 1492 42 m 771 -393 l 771 -393 q 1005 -316 926 -376 q 1083 -175 1083 -256 l 1083 -68 l 732 -68 l 732 -231 l 854 -246 q 821 -281 850 -265 q 751 -307 792 -297 l 771 -393 "},"Ġ":{"ha":1861,"x_min":83,"x_max":1764,"o":"m 907 -28 q 1331 58 1161 -28 q 1586 307 1500 144 l 1553 347 q 1391 285 1472 310 q 1210 248 1310 260 q 976 236 1111 236 q 668 258 785 236 q 499 325 551 281 q 446 438 446 369 q 497 563 446 515 q 660 631 549 610 q 949 653 771 653 q 1189 635 1100 653 q 1322 588 1278 617 q 1383 529 1367 560 l 1744 529 q 1646 735 1738 649 q 1380 869 1554 822 q 949 917 1206 917 q 594 893 753 917 q 320 815 435 869 q 144 667 206 760 q 83 438 83 575 q 144 210 83 300 q 315 67 204 119 q 576 -6 425 15 q 907 -28 726 -28 m 1492 0 l 1764 0 l 1764 460 l 1024 460 l 1024 314 l 1565 314 q 1531 205 1549 263 q 1503 94 1514 147 q 1492 0 1492 42 m 1081 1185 l 728 1185 l 728 976 l 1081 976 l 1081 1185 "},"H":{"ha":1778,"x_min":97,"x_max":1681,"o":"m 394 582 l 394 318 l 1372 318 l 1372 582 l 394 582 m 1333 889 l 1333 0 l 1681 0 l 1681 889 l 1333 889 m 97 889 l 97 0 l 444 0 l 444 889 l 97 889 "},"Ħ":{"ha":1778,"x_min":42,"x_max":1736,"o":"m 42 667 l 1736 667 l 1736 771 l 42 771 l 42 667 m 396 582 l 396 318 l 1374 318 l 1374 582 l 396 582 m 1335 889 l 1335 0 l 1682 0 l 1682 889 l 1335 889 m 99 889 l 99 0 l 446 0 l 446 889 l 99 889 "},"I":{"ha":583,"x_min":118,"x_max":465,"o":"m 118 889 l 118 0 l 465 0 l 465 889 l 118 889 "},"Ĳ":{"ha":1469,"x_min":118,"x_max":1372,"o":"m 119 889 l 119 478 l 453 478 l 453 889 l 119 889 m 1025 457 q 1003 350 1025 397 q 922 276 982 303 q 747 250 863 250 q 541 286 611 250 q 451 408 471 322 l 118 408 q 174 208 119 289 q 318 78 228 126 q 520 8 408 29 q 747 -14 632 -14 q 1031 23 913 -14 q 1226 122 1150 60 q 1337 260 1301 185 q 1372 415 1372 336 l 1372 889 l 1025 889 l 1025 457 "},"Í":{"ha":583,"x_min":101,"x_max":826,"o":"m 118 889 l 118 0 l 465 0 l 465 889 l 118 889 m 101 961 l 436 961 l 826 1169 l 382 1169 l 101 961 "},"Î":{"ha":583,"x_min":-211,"x_max":794,"o":"m 118 889 l 118 0 l 465 0 l 465 889 l 118 889 m 486 1169 l 97 1169 l -211 961 l 124 961 l 422 1131 l 161 1132 l 458 961 l 794 961 l 486 1169 "},"Ï":{"ha":583,"x_min":-96,"x_max":679,"o":"m 118 889 l 118 0 l 465 0 l 465 889 l 118 889 m 257 1171 l -96 1171 l -96 961 l 257 961 l 257 1171 m 679 1171 l 326 1171 l 326 961 l 679 961 l 679 1171 "},"İ":{"ha":583,"x_min":115,"x_max":468,"o":"m 118 889 l 118 0 l 465 0 l 465 889 l 118 889 m 468 1171 l 115 1171 l 115 963 l 468 963 l 468 1171 "},"Ì":{"ha":583,"x_min":-237,"x_max":488,"o":"m 118 889 l 118 0 l 465 0 l 465 889 l 118 889 m 153 961 l 488 961 l 207 1169 l -237 1169 l 153 961 "},"Ī":{"ha":583,"x_min":-24,"x_max":607,"o":"m 118 889 l 118 0 l 465 0 l 465 889 l 118 889 m -24 963 l 607 963 l 607 1100 l -24 1100 l -24 963 "},"Į":{"ha":583,"x_min":-93,"x_max":465,"o":"m 392 -333 l 392 -197 q 276 -186 329 -197 q 190 -151 222 -175 q 157 -90 157 -128 q 202 -27 157 -44 q 335 0 247 -10 l 335 31 q 115 7 211 24 q -37 -45 18 -10 q -93 -146 -93 -81 q 36 -283 -93 -233 q 392 -333 165 -333 m 118 889 l 118 0 l 465 0 l 465 889 l 118 889 "},"J":{"ha":1394,"x_min":43,"x_max":1297,"o":"m 950 457 q 928 350 950 397 q 847 276 907 303 q 672 250 788 250 q 466 286 536 250 q 376 408 396 322 l 43 408 q 99 208 44 289 q 243 78 153 126 q 445 8 333 29 q 672 -14 557 -14 q 956 23 838 -14 q 1151 122 1075 60 q 1262 260 1226 185 q 1297 415 1297 336 l 1297 889 l 950 889 l 950 457 "},"K":{"ha":1688,"x_min":97,"x_max":1639,"o":"m 838 438 l 1564 889 l 1069 889 l 442 472 l 1122 0 l 1639 0 l 838 515 l 838 438 m 97 889 l 97 0 l 444 0 l 444 889 l 97 889 "},"Ķ":{"ha":1688,"x_min":97,"x_max":1639,"o":"m 838 438 l 1564 889 l 1069 889 l 442 472 l 1122 0 l 1639 0 l 838 515 l 838 438 m 97 889 l 97 0 l 444 0 l 444 889 l 97 889 m 581 -393 l 581 -393 q 815 -316 736 -376 q 893 -175 893 -256 l 893 -68 l 542 -68 l 542 -231 l 664 -246 q 631 -281 660 -265 q 561 -307 601 -297 l 581 -393 "},"L":{"ha":1310,"x_min":97,"x_max":1254,"o":"m 444 889 l 97 889 l 97 0 l 1254 0 l 1254 264 l 444 264 l 444 889 "},"Ĺ":{"ha":1310,"x_min":96,"x_max":1254,"o":"m 444 889 l 97 889 l 97 0 l 1254 0 l 1254 264 l 444 264 l 444 889 m 96 961 l 431 961 l 821 1169 l 376 1169 l 96 961 "},"Ľ":{"ha":1310,"x_min":97,"x_max":1254,"o":"m 444 889 l 97 889 l 97 0 l 1254 0 l 1254 264 l 444 264 l 444 889 m 1093 647 l 1183 810 l 1183 958 l 836 958 l 836 810 l 926 647 l 1093 647 "},"Ļ":{"ha":1310,"x_min":97,"x_max":1254,"o":"m 444 889 l 97 889 l 97 0 l 1254 0 l 1254 264 l 444 264 l 444 889 m 593 -393 l 593 -393 q 827 -316 749 -376 q 906 -175 906 -256 l 906 -68 l 554 -68 l 554 -231 l 676 -246 q 643 -281 672 -265 q 574 -307 614 -297 l 593 -393 "},"Ŀ":{"ha":1310,"x_min":97,"x_max":1254,"o":"m 444 889 l 97 889 l 97 0 l 1254 0 l 1254 264 l 444 264 l 444 889 m 1001 678 l 649 678 l 649 468 l 1001 468 l 1001 678 "},"Ł":{"ha":1310,"x_min":-32,"x_max":1254,"o":"m 444 889 l 97 889 l 97 0 l 1254 0 l 1254 264 l 444 264 l 444 889 m 535 703 l -32 314 l 17 240 l 586 629 l 535 703 "},"M":{"ha":2194,"x_min":97,"x_max":2097,"o":"m 1200 106 l 444 889 l 97 889 l 97 0 l 444 0 l 444 604 l 339 561 l 889 0 l 1306 0 l 1854 563 l 1750 606 l 1750 0 l 2097 0 l 2097 889 l 1750 889 l 992 106 l 1200 106 "},"N":{"ha":1806,"x_min":97,"x_max":1708,"o":"m 1490 272 l 444 889 l 97 889 l 97 0 l 444 0 l 444 681 l 315 606 l 1361 0 l 1708 0 l 1708 889 l 1361 889 l 1361 199 l 1490 272 "},"Ń":{"ha":1806,"x_min":97,"x_max":1708,"o":"m 1490 272 l 444 889 l 97 889 l 97 0 l 444 0 l 444 681 l 315 606 l 1361 0 l 1708 0 l 1708 889 l 1361 889 l 1361 199 l 1490 272 m 711 961 l 1046 961 l 1436 1169 l 992 1169 l 711 961 "},"Ň":{"ha":1806,"x_min":97,"x_max":1708,"o":"m 1490 272 l 444 889 l 97 889 l 97 0 l 444 0 l 444 681 l 315 606 l 1361 0 l 1708 0 l 1708 889 l 1361 889 l 1361 199 l 1490 272 m 1032 1000 l 733 1169 l 399 1169 l 707 961 l 1096 961 l 1404 1169 l 1068 1169 l 771 999 l 1032 1000 "},"Ņ":{"ha":1806,"x_min":97,"x_max":1708,"o":"m 1490 272 l 444 889 l 97 889 l 97 0 l 444 0 l 444 681 l 315 606 l 1361 0 l 1708 0 l 1708 889 l 1361 889 l 1361 199 l 1490 272 m 768 -393 l 768 -393 q 1002 -316 924 -376 q 1081 -175 1081 -256 l 1081 -68 l 729 -68 l 729 -231 l 851 -246 q 818 -281 847 -265 q 749 -307 789 -297 l 768 -393 "},"Ñ":{"ha":1806,"x_min":97,"x_max":1708,"o":"m 1490 272 l 444 889 l 97 889 l 97 0 l 444 0 l 444 681 l 315 606 l 1361 0 l 1708 0 l 1708 889 l 1361 889 l 1361 199 l 1490 272 m 1088 951 q 1237 982 1174 951 q 1344 1060 1300 1013 q 1414 1160 1389 1108 l 1206 1160 q 1169 1126 1189 1142 q 1124 1100 1150 1110 q 1058 1090 1097 1090 q 976 1102 1014 1090 q 899 1128 938 1114 q 816 1155 860 1143 q 717 1167 772 1167 q 568 1136 632 1167 q 460 1058 504 1106 q 390 958 417 1011 l 599 958 q 638 996 619 981 q 681 1019 657 1011 q 738 1028 704 1028 q 822 1016 782 1028 q 903 990 863 1004 q 988 963 943 975 q 1088 951 1033 951 "},"Ŋ":{"ha":1806,"x_min":97,"x_max":1708,"o":"m 1490 272 l 444 889 l 97 889 l 97 0 l 444 0 l 444 681 l 315 606 l 1361 0 q 1335 -33 1361 -21 q 1266 -50 1310 -44 q 1167 -56 1222 -56 l 1167 -292 q 1297 -294 1225 -292 q 1440 -291 1368 -296 q 1574 -266 1513 -286 q 1672 -202 1635 -246 q 1708 -83 1708 -158 l 1708 889 l 1361 889 l 1361 199 l 1490 272 "},"O":{"ha":1847,"x_min":83,"x_max":1764,"o":"m 924 -28 q 1411 26 1226 -28 q 1680 184 1596 79 q 1764 444 1764 289 q 1680 705 1764 600 q 1411 863 1596 810 q 924 917 1226 917 q 436 863 621 917 q 167 705 251 810 q 83 444 83 600 q 167 184 83 289 q 436 26 251 79 q 924 -28 621 -28 m 924 236 q 673 253 781 236 q 505 316 565 271 q 444 444 444 361 q 505 573 444 528 q 673 635 565 618 q 924 653 781 653 q 1171 635 1067 653 q 1332 573 1275 618 q 1389 444 1389 528 q 1332 316 1389 361 q 1171 253 1275 271 q 924 236 1067 236 "},"Ó":{"ha":1847,"x_min":83,"x_max":1764,"o":"m 924 -28 q 1411 26 1226 -28 q 1680 184 1596 79 q 1764 444 1764 289 q 1680 705 1764 600 q 1411 863 1596 810 q 924 917 1226 917 q 436 863 621 917 q 167 705 251 810 q 83 444 83 600 q 167 184 83 289 q 436 26 251 79 q 924 -28 621 -28 m 924 236 q 673 253 781 236 q 505 316 565 271 q 444 444 444 361 q 505 573 444 528 q 673 635 565 618 q 924 653 781 653 q 1171 635 1067 653 q 1332 573 1275 618 q 1389 444 1389 528 q 1332 316 1389 361 q 1171 253 1275 271 q 924 236 1067 236 m 733 975 l 1068 975 l 1458 1183 l 1014 1183 l 733 975 "},"Ô":{"ha":1847,"x_min":83,"x_max":1764,"o":"m 924 -28 q 1411 26 1226 -28 q 1680 184 1596 79 q 1764 444 1764 289 q 1680 705 1764 600 q 1411 863 1596 810 q 924 917 1226 917 q 436 863 621 917 q 167 705 251 810 q 83 444 83 600 q 167 184 83 289 q 436 26 251 79 q 924 -28 621 -28 m 924 236 q 673 253 781 236 q 505 316 565 271 q 444 444 444 361 q 505 573 444 528 q 673 635 565 618 q 924 653 781 653 q 1171 635 1067 653 q 1332 573 1275 618 q 1389 444 1389 528 q 1332 316 1389 361 q 1171 253 1275 271 q 924 236 1067 236 m 1118 1183 l 729 1183 l 421 975 l 756 975 l 1054 1144 l 793 1146 l 1090 975 l 1426 975 l 1118 1183 "},"Ö":{"ha":1847,"x_min":83,"x_max":1764,"o":"m 924 -28 q 1411 26 1226 -28 q 1680 184 1596 79 q 1764 444 1764 289 q 1680 705 1764 600 q 1411 863 1596 810 q 924 917 1226 917 q 436 863 621 917 q 167 705 251 810 q 83 444 83 600 q 167 184 83 289 q 436 26 251 79 q 924 -28 621 -28 m 924 236 q 673 253 781 236 q 505 316 565 271 q 444 444 444 361 q 505 573 444 528 q 673 635 565 618 q 924 653 781 653 q 1171 635 1067 653 q 1332 573 1275 618 q 1389 444 1389 528 q 1332 316 1389 361 q 1171 253 1275 271 q 924 236 1067 236 m 915 1185 l 563 1185 l 563 975 l 915 975 l 915 1185 m 1339 1185 l 986 1185 l 986 975 l 1339 975 l 1339 1185 "},"Ȯ":{"ha":1847,"x_min":83,"x_max":1764,"o":"m 924 -28 q 1411 26 1226 -28 q 1680 184 1596 79 q 1764 444 1764 289 q 1680 705 1764 600 q 1411 863 1596 810 q 924 917 1226 917 q 436 863 621 917 q 167 705 251 810 q 83 444 83 600 q 167 184 83 289 q 436 26 251 79 q 924 -28 621 -28 m 924 236 q 673 253 781 236 q 505 316 565 271 q 444 444 444 361 q 505 573 444 528 q 673 635 565 618 q 924 653 781 653 q 1171 635 1067 653 q 1332 573 1275 618 q 1389 444 1389 528 q 1332 316 1389 361 q 1171 253 1275 271 q 924 236 1067 236 m 1100 1185 l 747 1185 l 747 976 l 1100 976 l 1100 1185 "},"Ò":{"ha":1847,"x_min":83,"x_max":1764,"o":"m 924 -28 q 1411 26 1226 -28 q 1680 184 1596 79 q 1764 444 1764 289 q 1680 705 1764 600 q 1411 863 1596 810 q 924 917 1226 917 q 436 863 621 917 q 167 705 251 810 q 83 444 83 600 q 167 184 83 289 q 436 26 251 79 q 924 -28 621 -28 m 924 236 q 673 253 781 236 q 505 316 565 271 q 444 444 444 361 q 505 573 444 528 q 673 635 565 618 q 924 653 781 653 q 1171 635 1067 653 q 1332 573 1275 618 q 1389 444 1389 528 q 1332 316 1389 361 q 1171 253 1275 271 q 924 236 1067 236 m 785 975 l 1119 975 l 839 1183 l 394 1183 l 785 975 "},"Ő":{"ha":1847,"x_min":83,"x_max":1764,"o":"m 924 -28 q 1411 26 1226 -28 q 1680 184 1596 79 q 1764 444 1764 289 q 1680 705 1764 600 q 1411 863 1596 810 q 924 917 1226 917 q 436 863 621 917 q 167 705 251 810 q 83 444 83 600 q 167 184 83 289 q 436 26 251 79 q 924 -28 621 -28 m 924 236 q 673 253 781 236 q 505 316 565 271 q 444 444 444 361 q 505 573 444 528 q 673 635 565 618 q 924 653 781 653 q 1171 635 1067 653 q 1332 573 1275 618 q 1389 444 1389 528 q 1332 316 1389 361 q 1171 253 1275 271 q 924 236 1067 236 m 963 975 l 1200 975 l 1460 1183 l 1176 1183 l 963 975 m 582 975 l 819 975 l 1051 1183 l 769 1183 l 582 975 "},"Ō":{"ha":1847,"x_min":83,"x_max":1764,"o":"m 924 -28 q 1411 26 1226 -28 q 1680 184 1596 79 q 1764 444 1764 289 q 1680 705 1764 600 q 1411 863 1596 810 q 924 917 1226 917 q 436 863 621 917 q 167 705 251 810 q 83 444 83 600 q 167 184 83 289 q 436 26 251 79 q 924 -28 621 -28 m 924 236 q 673 253 781 236 q 505 316 565 271 q 444 444 444 361 q 505 573 444 528 q 673 635 565 618 q 924 653 781 653 q 1171 635 1067 653 q 1332 573 1275 618 q 1389 444 1389 528 q 1332 316 1389 361 q 1171 253 1275 271 q 924 236 1067 236 m 608 976 l 1239 976 l 1239 1114 l 608 1114 l 608 976 "},"Ø":{"ha":1847,"x_min":83,"x_max":1764,"o":"m 924 -28 q 1411 26 1226 -28 q 1680 184 1596 79 q 1764 444 1764 289 q 1680 705 1764 600 q 1411 863 1596 810 q 924 917 1226 917 q 436 863 621 917 q 167 705 251 810 q 83 444 83 600 q 167 184 83 289 q 436 26 251 79 q 924 -28 621 -28 m 924 236 q 673 253 781 236 q 505 316 565 271 q 444 444 444 361 q 505 573 444 528 q 673 635 565 618 q 924 653 781 653 q 1171 635 1067 653 q 1332 573 1275 618 q 1389 444 1389 528 q 1332 316 1389 361 q 1171 253 1275 271 q 924 236 1067 236 m 1188 1010 l 586 -78 l 658 -122 l 1263 968 l 1188 1010 "},"Õ":{"ha":1847,"x_min":83,"x_max":1764,"o":"m 924 -28 q 1411 26 1226 -28 q 1680 184 1596 79 q 1764 444 1764 289 q 1680 705 1764 600 q 1411 863 1596 810 q 924 917 1226 917 q 436 863 621 917 q 167 705 251 810 q 83 444 83 600 q 167 184 83 289 q 436 26 251 79 q 924 -28 621 -28 m 924 236 q 673 253 781 236 q 505 316 565 271 q 444 444 444 361 q 505 573 444 528 q 673 635 565 618 q 924 653 781 653 q 1171 635 1067 653 q 1332 573 1275 618 q 1389 444 1389 528 q 1332 316 1389 361 q 1171 253 1275 271 q 924 236 1067 236 m 1110 965 q 1259 996 1196 965 q 1367 1074 1322 1026 q 1436 1174 1411 1122 l 1228 1174 q 1192 1140 1211 1156 q 1146 1114 1172 1124 q 1081 1104 1119 1104 q 998 1116 1036 1104 q 921 1142 960 1128 q 838 1169 882 1157 q 739 1181 794 1181 q 590 1150 654 1181 q 483 1072 526 1119 q 413 972 439 1025 l 621 972 q 660 1010 642 994 q 703 1033 679 1025 q 760 1042 726 1042 q 844 1030 804 1042 q 925 1003 885 1018 q 1010 977 965 989 q 1110 965 1056 965 "},"Œ":{"ha":2725,"x_min":83,"x_max":2642,"o":"m 2642 264 l 1661 264 l 1175 0 l 2642 0 l 2642 264 m 2447 514 l 1725 514 l 1725 375 l 2447 375 l 2447 514 m 2639 889 l 1189 889 l 1669 625 l 2639 625 l 2639 889 m 924 -28 q 1411 26 1226 -28 q 1680 184 1596 79 q 1764 444 1764 289 q 1680 705 1764 600 q 1411 863 1596 810 q 924 917 1226 917 q 436 863 621 917 q 167 705 251 810 q 83 444 83 600 q 167 184 83 289 q 436 26 251 79 q 924 -28 621 -28 m 924 236 q 673 253 781 236 q 505 316 565 271 q 444 444 444 361 q 505 573 444 528 q 673 635 565 618 q 924 653 781 653 q 1171 635 1067 653 q 1332 573 1275 618 q 1389 444 1389 528 q 1332 316 1389 361 q 1171 253 1275 271 q 924 236 1067 236 "},"P":{"ha":1635,"x_min":94,"x_max":1558,"o":"m 419 229 l 1058 229 q 1253 239 1163 229 q 1413 279 1344 249 q 1519 372 1481 310 q 1558 542 1558 435 q 1519 717 1558 649 q 1413 822 1481 785 q 1253 874 1344 860 q 1058 889 1163 889 l 94 889 l 94 0 l 442 0 l 442 611 l 1113 611 q 1183 599 1154 611 q 1211 542 1211 586 q 1183 485 1211 499 q 1113 472 1154 472 l 419 472 l 419 229 "},"Þ":{"ha":1524,"x_min":94,"x_max":1447,"o":"m 947 764 l 392 764 l 392 514 l 1001 514 q 1072 501 1043 514 q 1100 444 1100 489 q 1072 388 1100 401 q 1001 375 1043 375 l 392 375 l 392 125 l 947 125 q 1142 135 1051 125 q 1301 178 1233 146 q 1408 274 1369 210 q 1447 444 1447 338 q 1408 615 1447 551 q 1301 711 1369 679 q 1142 753 1233 743 q 947 764 1051 764 m 94 889 l 94 0 l 442 0 l 442 889 l 94 889 "},"Q":{"ha":1847,"x_min":83,"x_max":1764,"o":"m 757 60 l 757 -278 l 1090 -278 l 1090 60 l 757 60 m 924 -28 q 1411 26 1226 -28 q 1680 184 1596 79 q 1764 444 1764 289 q 1680 705 1764 600 q 1411 863 1596 810 q 924 917 1226 917 q 436 863 621 917 q 167 705 251 810 q 83 444 83 600 q 167 184 83 289 q 436 26 251 79 q 924 -28 621 -28 m 924 236 q 673 253 781 236 q 505 316 565 271 q 444 444 444 361 q 505 573 444 528 q 673 635 565 618 q 924 653 781 653 q 1171 635 1067 653 q 1332 573 1275 618 q 1389 444 1389 528 q 1332 316 1389 361 q 1171 253 1275 271 q 924 236 1067 236 "},"R":{"ha":1711,"x_min":97,"x_max":1617,"o":"m 97 0 l 444 0 l 444 250 l 988 250 q 1152 242 1099 250 q 1222 212 1206 233 q 1238 149 1238 190 l 1238 0 l 1585 0 l 1585 190 q 1549 284 1585 251 q 1424 329 1514 317 q 1169 343 1335 342 l 1271 324 q 1401 339 1339 326 q 1513 379 1464 351 q 1589 457 1561 407 q 1617 583 1617 507 q 1558 765 1617 699 q 1398 860 1499 832 q 1171 889 1297 889 l 97 889 l 97 0 m 444 482 l 444 611 l 1171 611 q 1241 598 1213 611 q 1269 549 1269 585 q 1241 496 1269 510 q 1171 482 1213 482 l 444 482 "},"Ŕ":{"ha":1711,"x_min":97,"x_max":1617,"o":"m 97 0 l 444 0 l 444 250 l 988 250 q 1152 242 1099 250 q 1222 212 1206 233 q 1238 149 1238 190 l 1238 0 l 1585 0 l 1585 190 q 1549 284 1585 251 q 1424 329 1514 317 q 1169 343 1335 342 l 1271 324 q 1401 339 1339 326 q 1513 379 1464 351 q 1589 457 1561 407 q 1617 583 1617 507 q 1558 765 1617 699 q 1398 860 1499 832 q 1171 889 1297 889 l 97 889 l 97 0 m 444 482 l 444 611 l 1171 611 q 1241 598 1213 611 q 1269 549 1269 585 q 1241 496 1269 510 q 1171 482 1213 482 l 444 482 m 628 961 l 963 961 l 1353 1169 l 908 1169 l 628 961 "},"Ř":{"ha":1711,"x_min":97,"x_max":1617,"o":"m 97 0 l 444 0 l 444 250 l 988 250 q 1152 242 1099 250 q 1222 212 1206 233 q 1238 149 1238 190 l 1238 0 l 1585 0 l 1585 190 q 1549 284 1585 251 q 1424 329 1514 317 q 1169 343 1335 342 l 1271 324 q 1401 339 1339 326 q 1513 379 1464 351 q 1589 457 1561 407 q 1617 583 1617 507 q 1558 765 1617 699 q 1398 860 1499 832 q 1171 889 1297 889 l 97 889 l 97 0 m 444 482 l 444 611 l 1171 611 q 1241 598 1213 611 q 1269 549 1269 585 q 1241 496 1269 510 q 1171 482 1213 482 l 444 482 m 949 1000 l 650 1169 l 315 1169 l 624 961 l 1013 961 l 1321 1169 l 985 1169 l 688 999 l 949 1000 "},"Ŗ":{"ha":1711,"x_min":97,"x_max":1617,"o":"m 97 0 l 444 0 l 444 250 l 988 250 q 1152 242 1099 250 q 1222 212 1206 233 q 1238 149 1238 190 l 1238 0 l 1585 0 l 1585 190 q 1549 284 1585 251 q 1424 329 1514 317 q 1169 343 1335 342 l 1271 324 q 1401 339 1339 326 q 1513 379 1464 351 q 1589 457 1561 407 q 1617 583 1617 507 q 1558 765 1617 699 q 1398 860 1499 832 q 1171 889 1297 889 l 97 889 l 97 0 m 444 482 l 444 611 l 1171 611 q 1241 598 1213 611 q 1269 549 1269 585 q 1241 496 1269 510 q 1171 482 1213 482 l 444 482 m 685 -414 l 685 -414 q 919 -337 840 -397 q 997 -196 997 -276 l 997 -89 l 646 -89 l 646 -251 l 768 -267 q 735 -302 764 -286 q 665 -328 706 -318 l 685 -414 "},"S":{"ha":1467,"x_min":49,"x_max":1411,"o":"m 49 326 q 80 205 49 260 q 171 106 111 150 q 317 33 231 63 q 513 -12 403 3 q 756 -28 624 -28 q 1133 4 989 -28 q 1344 103 1278 36 q 1411 275 1411 169 q 1382 381 1411 336 q 1288 456 1353 426 q 1119 499 1224 485 q 867 514 1015 514 q 644 517 732 514 q 509 527 557 519 q 442 547 461 535 q 422 581 422 560 q 492 638 422 621 q 707 654 563 654 q 932 630 853 654 q 1018 560 1011 606 l 1378 560 q 1209 826 1378 733 q 721 918 1040 918 q 358 884 503 918 q 141 781 213 850 q 69 607 69 713 q 100 502 69 546 q 195 430 131 458 q 360 388 260 401 q 600 375 461 375 q 889 369 786 375 q 1032 349 992 364 q 1072 308 1072 335 q 1047 265 1072 281 q 962 242 1022 249 q 797 236 901 236 q 612 247 692 236 q 485 277 532 257 q 428 326 438 297 l 49 326 "},"Ś":{"ha":1467,"x_min":49,"x_max":1411,"o":"m 49 326 q 80 205 49 260 q 171 106 111 150 q 317 33 231 63 q 513 -12 403 3 q 756 -28 624 -28 q 1133 4 989 -28 q 1344 103 1278 36 q 1411 275 1411 169 q 1382 381 1411 336 q 1288 456 1353 426 q 1119 499 1224 485 q 867 514 1015 514 q 644 517 732 514 q 509 527 557 519 q 442 547 461 535 q 422 581 422 560 q 492 638 422 621 q 707 654 563 654 q 932 630 853 654 q 1018 560 1011 606 l 1378 560 q 1209 826 1378 733 q 721 918 1040 918 q 358 884 503 918 q 141 781 213 850 q 69 607 69 713 q 100 502 69 546 q 195 430 131 458 q 360 388 260 401 q 600 375 461 375 q 889 369 786 375 q 1032 349 992 364 q 1072 308 1072 335 q 1047 265 1072 281 q 962 242 1022 249 q 797 236 901 236 q 612 247 692 236 q 485 277 532 257 q 428 326 438 297 l 49 326 m 525 975 l 860 975 l 1250 1183 l 806 1183 l 525 975 "},"Š":{"ha":1467,"x_min":49,"x_max":1411,"o":"m 49 326 q 80 205 49 260 q 171 106 111 150 q 317 33 231 63 q 513 -12 403 3 q 756 -28 624 -28 q 1133 4 989 -28 q 1344 103 1278 36 q 1411 275 1411 169 q 1382 381 1411 336 q 1288 456 1353 426 q 1119 499 1224 485 q 867 514 1015 514 q 644 517 732 514 q 509 527 557 519 q 442 547 461 535 q 422 581 422 560 q 492 638 422 621 q 707 654 563 654 q 932 630 853 654 q 1018 560 1011 606 l 1378 560 q 1209 826 1378 733 q 721 918 1040 918 q 358 884 503 918 q 141 781 213 850 q 69 607 69 713 q 100 502 69 546 q 195 430 131 458 q 360 388 260 401 q 600 375 461 375 q 889 369 786 375 q 1032 349 992 364 q 1072 308 1072 335 q 1047 265 1072 281 q 962 242 1022 249 q 797 236 901 236 q 612 247 692 236 q 485 277 532 257 q 428 326 438 297 l 49 326 m 846 1014 l 547 1183 l 213 1183 l 521 975 l 910 975 l 1218 1183 l 882 1183 l 585 1013 l 846 1014 "},"Ş":{"ha":1467,"x_min":49,"x_max":1411,"o":"m 593 -172 l 351 -172 q 400 -274 358 -225 q 520 -352 442 -322 q 713 -382 599 -382 q 984 -335 889 -382 q 1079 -212 1079 -289 q 1051 -144 1079 -169 q 975 -103 1022 -118 q 868 -79 928 -89 l 639 -111 q 738 -131 707 -119 q 776 -153 768 -142 q 785 -176 785 -165 q 765 -205 785 -194 q 704 -215 744 -215 q 641 -206 664 -215 q 608 -187 618 -197 q 593 -172 597 -176 m 639 6 l 639 -111 l 875 -139 l 875 6 l 639 6 m 49 326 q 80 205 49 260 q 171 106 111 150 q 317 33 231 63 q 513 -12 403 3 q 756 -28 624 -28 q 1133 4 989 -28 q 1344 103 1278 36 q 1411 275 1411 169 q 1382 381 1411 336 q 1288 456 1353 426 q 1119 499 1224 485 q 867 514 1015 514 q 644 517 732 514 q 509 527 557 519 q 442 547 461 535 q 422 581 422 560 q 492 638 422 621 q 707 654 563 654 q 932 630 853 654 q 1018 560 1011 606 l 1378 560 q 1209 826 1378 733 q 721 918 1040 918 q 358 884 503 918 q 141 781 213 850 q 69 607 69 713 q 100 502 69 546 q 195 430 131 458 q 360 388 260 401 q 600 375 461 375 q 889 369 786 375 q 1032 349 992 364 q 1072 308 1072 335 q 1047 265 1072 281 q 962 242 1022 249 q 797 236 901 236 q 612 247 692 236 q 485 277 532 257 q 428 326 438 297 l 49 326 "},"Ș":{"ha":1467,"x_min":49,"x_max":1411,"o":"m 49 326 q 80 205 49 260 q 171 106 111 150 q 317 33 231 63 q 513 -12 403 3 q 756 -28 624 -28 q 1133 4 989 -28 q 1344 103 1278 36 q 1411 275 1411 169 q 1382 381 1411 336 q 1288 456 1353 426 q 1119 499 1224 485 q 867 514 1015 514 q 644 517 732 514 q 509 527 557 519 q 442 547 461 535 q 422 581 422 560 q 492 638 422 621 q 707 654 563 654 q 932 630 853 654 q 1018 560 1011 606 l 1378 560 q 1209 826 1378 733 q 721 918 1040 918 q 358 884 503 918 q 141 781 213 850 q 69 607 69 713 q 100 502 69 546 q 195 430 131 458 q 360 388 260 401 q 600 375 461 375 q 889 369 786 375 q 1032 349 992 364 q 1072 308 1072 335 q 1047 265 1072 281 q 962 242 1022 249 q 797 236 901 236 q 612 247 692 236 q 485 277 532 257 q 428 326 438 297 l 49 326 m 624 -414 l 624 -414 q 858 -337 779 -397 q 936 -196 936 -276 l 936 -89 l 585 -89 l 585 -251 l 707 -267 q 674 -302 703 -286 q 604 -328 644 -318 l 624 -414 "},"T":{"ha":1528,"x_min":42,"x_max":1486,"o":"m 42 889 l 42 625 l 1486 625 l 1486 889 l 42 889 m 590 643 l 590 0 l 938 0 l 938 643 l 590 643 "},"Ŧ":{"ha":1528,"x_min":42,"x_max":1486,"o":"m 125 393 l 1403 393 l 1403 497 l 125 497 l 125 393 m 42 889 l 42 625 l 1486 625 l 1486 889 l 42 889 m 590 643 l 590 0 l 938 0 l 938 643 l 590 643 "},"Ť":{"ha":1528,"x_min":42,"x_max":1486,"o":"m 42 889 l 42 625 l 1486 625 l 1486 889 l 42 889 m 590 643 l 590 0 l 938 0 l 938 643 l 590 643 m 894 1000 l 596 1169 l 261 1169 l 569 961 l 958 961 l 1267 1169 l 931 1169 l 633 999 l 894 1000 "},"Ţ":{"ha":1528,"x_min":42,"x_max":1486,"o":"m 600 -151 l 358 -151 q 407 -253 365 -204 q 527 -331 449 -301 q 719 -361 606 -361 q 991 -315 896 -361 q 1086 -192 1086 -268 q 1058 -123 1086 -149 q 982 -83 1029 -97 q 875 -58 935 -68 l 646 -90 q 744 -110 714 -99 q 783 -133 775 -121 q 792 -156 792 -144 q 772 -184 792 -174 q 711 -194 751 -194 q 648 -185 671 -194 q 615 -166 625 -176 q 600 -151 604 -156 m 646 26 l 646 -90 l 882 -118 l 882 26 l 646 26 m 42 889 l 42 625 l 1486 625 l 1486 889 l 42 889 m 590 643 l 590 0 l 938 0 l 938 643 l 590 643 "},"Ț":{"ha":1528,"x_min":42,"x_max":1486,"o":"m 42 889 l 42 625 l 1486 625 l 1486 889 l 42 889 m 590 643 l 590 0 l 938 0 l 938 643 l 590 643 m 631 -393 l 631 -393 q 865 -316 786 -376 q 943 -175 943 -256 l 943 -68 l 592 -68 l 592 -231 l 714 -246 q 681 -281 710 -265 q 611 -307 651 -297 l 631 -393 "},"U":{"ha":1790,"x_min":97,"x_max":1693,"o":"m 1346 507 q 1291 338 1346 396 q 1135 258 1236 279 q 896 236 1033 236 q 653 258 754 236 q 499 338 553 279 q 444 507 444 396 l 444 889 l 97 889 l 97 444 q 140 244 97 326 q 257 108 182 161 q 433 25 332 54 q 651 -16 533 -4 q 896 -28 769 -28 q 1131 -16 1015 -28 q 1349 25 1247 -4 q 1528 108 1450 54 q 1649 244 1606 161 q 1693 444 1693 326 l 1693 889 l 1346 889 l 1346 507 "},"Ú":{"ha":1790,"x_min":97,"x_max":1693,"o":"m 1346 507 q 1291 338 1346 396 q 1135 258 1236 279 q 896 236 1033 236 q 653 258 754 236 q 499 338 553 279 q 444 507 444 396 l 444 889 l 97 889 l 97 444 q 140 244 97 326 q 257 108 182 161 q 433 25 332 54 q 651 -16 533 -4 q 896 -28 769 -28 q 1131 -16 1015 -28 q 1349 25 1247 -4 q 1528 108 1450 54 q 1649 244 1606 161 q 1693 444 1693 326 l 1693 889 l 1346 889 l 1346 507 m 706 961 l 1040 961 l 1431 1169 l 986 1169 l 706 961 "},"Û":{"ha":1790,"x_min":97,"x_max":1693,"o":"m 1346 507 q 1291 338 1346 396 q 1135 258 1236 279 q 896 236 1033 236 q 653 258 754 236 q 499 338 553 279 q 444 507 444 396 l 444 889 l 97 889 l 97 444 q 140 244 97 326 q 257 108 182 161 q 433 25 332 54 q 651 -16 533 -4 q 896 -28 769 -28 q 1131 -16 1015 -28 q 1349 25 1247 -4 q 1528 108 1450 54 q 1649 244 1606 161 q 1693 444 1693 326 l 1693 889 l 1346 889 l 1346 507 m 1090 1169 l 701 1169 l 393 961 l 728 961 l 1026 1131 l 765 1132 l 1063 961 l 1399 961 l 1090 1169 "},"Ü":{"ha":1790,"x_min":97,"x_max":1693,"o":"m 1346 507 q 1291 338 1346 396 q 1135 258 1236 279 q 896 236 1033 236 q 653 258 754 236 q 499 338 553 279 q 444 507 444 396 l 444 889 l 97 889 l 97 444 q 140 244 97 326 q 257 108 182 161 q 433 25 332 54 q 651 -16 533 -4 q 896 -28 769 -28 q 1131 -16 1015 -28 q 1349 25 1247 -4 q 1528 108 1450 54 q 1649 244 1606 161 q 1693 444 1693 326 l 1693 889 l 1346 889 l 1346 507 m 860 890 l 507 890 l 507 681 l 860 681 l 860 890 m 1282 890 l 929 890 l 929 681 l 1282 681 l 1282 890 "},"Ù":{"ha":1790,"x_min":97,"x_max":1693,"o":"m 1346 507 q 1291 338 1346 396 q 1135 258 1236 279 q 896 236 1033 236 q 653 258 754 236 q 499 338 553 279 q 444 507 444 396 l 444 889 l 97 889 l 97 444 q 140 244 97 326 q 257 108 182 161 q 433 25 332 54 q 651 -16 533 -4 q 896 -28 769 -28 q 1131 -16 1015 -28 q 1349 25 1247 -4 q 1528 108 1450 54 q 1649 244 1606 161 q 1693 444 1693 326 l 1693 889 l 1346 889 l 1346 507 m 757 961 l 1092 961 l 811 1169 l 367 1169 l 757 961 "},"Ű":{"ha":1790,"x_min":97,"x_max":1693,"o":"m 1346 507 q 1291 338 1346 396 q 1135 258 1236 279 q 896 236 1033 236 q 653 258 754 236 q 499 338 553 279 q 444 507 444 396 l 444 889 l 97 889 l 97 444 q 140 244 97 326 q 257 108 182 161 q 433 25 332 54 q 651 -16 533 -4 q 896 -28 769 -28 q 1131 -16 1015 -28 q 1349 25 1247 -4 q 1528 108 1450 54 q 1649 244 1606 161 q 1693 444 1693 326 l 1693 889 l 1346 889 l 1346 507 m 935 961 l 1172 961 l 1432 1169 l 1149 1169 l 935 961 m 554 961 l 792 961 l 1024 1169 l 742 1169 l 554 961 "},"Ū":{"ha":1790,"x_min":97,"x_max":1693,"o":"m 1346 507 q 1291 338 1346 396 q 1135 258 1236 279 q 896 236 1033 236 q 653 258 754 236 q 499 338 553 279 q 444 507 444 396 l 444 889 l 97 889 l 97 444 q 140 244 97 326 q 257 108 182 161 q 433 25 332 54 q 651 -16 533 -4 q 896 -28 769 -28 q 1131 -16 1015 -28 q 1349 25 1247 -4 q 1528 108 1450 54 q 1649 244 1606 161 q 1693 444 1693 326 l 1693 889 l 1346 889 l 1346 507 m 581 963 l 1211 963 l 1211 1100 l 581 1100 l 581 963 "},"Ų":{"ha":1790,"x_min":97,"x_max":1693,"o":"m 1365 -354 l 1365 -218 q 1249 -207 1303 -218 q 1163 -172 1196 -196 q 1131 -111 1131 -149 q 1176 -39 1131 -65 q 1308 14 1221 -12 l 1308 31 q 1088 -7 1185 14 q 936 -65 992 -28 q 881 -167 881 -101 q 1010 -304 881 -254 q 1365 -354 1139 -354 m 1346 507 q 1291 338 1346 396 q 1135 258 1236 279 q 896 236 1033 236 q 653 258 754 236 q 499 338 553 279 q 444 507 444 396 l 444 889 l 97 889 l 97 444 q 140 244 97 326 q 257 108 182 161 q 433 25 332 54 q 651 -16 533 -4 q 896 -28 769 -28 q 1131 -16 1015 -28 q 1349 25 1247 -4 q 1528 108 1450 54 q 1649 244 1606 161 q 1693 444 1693 326 l 1693 889 l 1346 889 l 1346 507 "},"Ů":{"ha":1790,"x_min":97,"x_max":1693,"o":"m 1346 507 q 1291 338 1346 396 q 1135 258 1236 279 q 896 236 1033 236 q 653 258 754 236 q 499 338 553 279 q 444 507 444 396 l 444 889 l 97 889 l 97 444 q 140 244 97 326 q 257 108 182 161 q 433 25 332 54 q 651 -16 533 -4 q 896 -28 769 -28 q 1131 -16 1015 -28 q 1349 25 1247 -4 q 1528 108 1450 54 q 1649 244 1606 161 q 1693 444 1693 326 l 1693 889 l 1346 889 l 1346 507 m 896 926 q 1072 969 1014 926 q 1131 1082 1131 1011 q 1072 1194 1131 1151 q 896 1236 1014 1236 q 719 1194 776 1236 q 661 1082 661 1151 q 719 969 661 1011 q 896 926 776 926 m 896 1017 q 816 1031 839 1017 q 793 1082 793 1044 q 816 1132 793 1118 q 896 1146 839 1146 q 974 1132 951 1146 q 997 1082 997 1118 q 974 1031 997 1044 q 896 1017 951 1017 "},"V":{"ha":1611,"x_min":28,"x_max":1583,"o":"m 567 0 l 1050 0 l 1583 889 l 1197 889 l 738 35 l 879 35 l 419 889 l 28 889 l 567 0 "},"W":{"ha":2614,"x_min":28,"x_max":2586,"o":"m 525 0 l 994 0 l 1378 749 l 1242 749 l 1625 0 l 2094 0 l 2586 889 l 2200 889 l 1781 63 l 1913 60 l 1519 889 l 1100 889 l 707 60 l 839 63 l 419 889 l 28 889 l 525 0 "},"Ẃ":{"ha":2614,"x_min":28,"x_max":2586,"o":"m 525 0 l 994 0 l 1378 749 l 1242 749 l 1625 0 l 2094 0 l 2586 889 l 2200 889 l 1781 63 l 1913 60 l 1519 889 l 1100 889 l 707 60 l 839 63 l 419 889 l 28 889 l 525 0 m 1129 1031 l 1464 1031 l 1854 1239 l 1410 1239 l 1129 1031 "},"Ŵ":{"ha":2614,"x_min":28,"x_max":2586,"o":"m 525 0 l 994 0 l 1378 749 l 1242 749 l 1625 0 l 2094 0 l 2586 889 l 2200 889 l 1781 63 l 1913 60 l 1519 889 l 1100 889 l 707 60 l 839 63 l 419 889 l 28 889 l 525 0 m 1514 1239 l 1125 1239 l 817 1031 l 1151 1031 l 1450 1200 l 1189 1201 l 1486 1031 l 1822 1031 l 1514 1239 "},"Ẅ":{"ha":2614,"x_min":28,"x_max":2586,"o":"m 525 0 l 994 0 l 1378 749 l 1242 749 l 1625 0 l 2094 0 l 2586 889 l 2200 889 l 1781 63 l 1913 60 l 1519 889 l 1100 889 l 707 60 l 839 63 l 419 889 l 28 889 l 525 0 m 953 1024 l 600 1024 l 600 814 l 953 814 l 953 1024 m 2086 1025 l 1733 1025 l 1733 815 l 2086 815 l 2086 1025 "},"Ẁ":{"ha":2614,"x_min":28,"x_max":2586,"o":"m 525 0 l 994 0 l 1378 749 l 1242 749 l 1625 0 l 2094 0 l 2586 889 l 2200 889 l 1781 63 l 1913 60 l 1519 889 l 1100 889 l 707 60 l 839 63 l 419 889 l 28 889 l 525 0 m 1181 1031 l 1515 1031 l 1235 1239 l 790 1239 l 1181 1031 "},"X":{"ha":1583,"x_min":42,"x_max":1542,"o":"m 1083 889 l 704 556 l 694 547 l 42 0 l 486 0 l 889 350 l 903 361 l 1528 889 l 1083 889 m 500 889 l 56 889 l 672 368 l 678 363 l 1097 0 l 1542 0 l 899 538 l 890 546 l 500 889 "},"Y":{"ha":1486,"x_min":7,"x_max":1479,"o":"m 1479 889 l 1069 889 l 617 313 l 874 313 l 417 889 l 7 889 l 569 226 l 569 0 l 917 0 l 917 226 l 1479 889 "},"Ý":{"ha":1486,"x_min":7,"x_max":1479,"o":"m 1479 889 l 1069 889 l 617 313 l 874 313 l 417 889 l 7 889 l 569 226 l 569 0 l 917 0 l 917 226 l 1479 889 m 553 961 l 888 961 l 1278 1169 l 833 1169 l 553 961 "},"Ŷ":{"ha":1486,"x_min":7,"x_max":1479,"o":"m 1479 889 l 1069 889 l 617 313 l 874 313 l 417 889 l 7 889 l 569 226 l 569 0 l 917 0 l 917 226 l 1479 889 m 938 1169 l 549 1169 l 240 961 l 575 961 l 874 1131 l 613 1132 l 910 961 l 1246 961 l 938 1169 "},"Ÿ":{"ha":1486,"x_min":7,"x_max":1479,"o":"m 1479 889 l 1069 889 l 617 313 l 874 313 l 417 889 l 7 889 l 569 226 l 569 0 l 917 0 l 917 226 l 1479 889 m 708 1171 l 356 1171 l 356 961 l 708 961 l 708 1171 m 1131 1171 l 778 1171 l 778 961 l 1131 961 l 1131 1171 "},"Ỳ":{"ha":1486,"x_min":7,"x_max":1479,"o":"m 1479 889 l 1069 889 l 617 313 l 874 313 l 417 889 l 7 889 l 569 226 l 569 0 l 917 0 l 917 226 l 1479 889 m 604 961 l 939 961 l 658 1169 l 214 1169 l 604 961 "},"Z":{"ha":1667,"x_min":97,"x_max":1569,"o":"m 97 889 l 97 625 l 1124 625 l 1113 682 l 97 264 l 97 0 l 1569 0 l 1569 264 l 547 264 l 558 207 l 1569 625 l 1569 889 l 97 889 "},"Ź":{"ha":1667,"x_min":97,"x_max":1569,"o":"m 97 889 l 97 625 l 1124 625 l 1113 682 l 97 264 l 97 0 l 1569 0 l 1569 264 l 547 264 l 558 207 l 1569 625 l 1569 889 l 97 889 m 643 1031 l 978 1031 l 1368 1239 l 924 1239 l 643 1031 "},"Ž":{"ha":1667,"x_min":97,"x_max":1569,"o":"m 97 889 l 97 625 l 1124 625 l 1113 682 l 97 264 l 97 0 l 1569 0 l 1569 264 l 547 264 l 558 207 l 1569 625 l 1569 889 l 97 889 m 964 1069 l 665 1239 l 331 1239 l 639 1031 l 1028 1031 l 1336 1239 l 1000 1239 l 703 1068 l 964 1069 "},"Ż":{"ha":1667,"x_min":97,"x_max":1569,"o":"m 97 889 l 97 625 l 1124 625 l 1113 682 l 97 264 l 97 0 l 1569 0 l 1569 264 l 547 264 l 558 207 l 1569 625 l 1569 889 l 97 889 m 1010 1240 l 657 1240 l 657 1032 l 1010 1032 l 1010 1240 "},"a":{"ha":1476,"x_min":49,"x_max":1414,"o":"m 567 -19 q 792 6 692 -19 q 963 80 892 32 q 1071 194 1033 128 q 1108 340 1108 260 q 1042 530 1108 449 q 855 656 976 611 q 567 701 733 701 q 300 661 417 701 q 116 540 183 621 q 49 340 49 460 q 116 146 49 226 q 300 23 183 65 q 567 -19 417 -19 m 692 192 q 531 208 597 192 q 429 258 464 225 q 394 340 394 292 q 472 452 394 415 q 692 489 550 489 q 885 476 797 489 q 1027 432 974 464 q 1081 340 1081 400 q 1027 250 1081 282 q 885 205 974 218 q 692 192 797 192 m 1081 681 l 1081 264 q 1085 124 1081 183 q 1095 32 1090 64 q 1100 0 1100 0 l 1414 0 l 1414 681 l 1081 681 "},"á":{"ha":1476,"x_min":49,"x_max":1414,"o":"m 567 -19 q 792 6 692 -19 q 963 80 892 32 q 1071 194 1033 128 q 1108 340 1108 260 q 1042 530 1108 449 q 855 656 976 611 q 567 701 733 701 q 300 661 417 701 q 116 540 183 621 q 49 340 49 460 q 116 146 49 226 q 300 23 183 65 q 567 -19 417 -19 m 692 192 q 531 208 597 192 q 429 258 464 225 q 394 340 394 292 q 472 452 394 415 q 692 489 550 489 q 885 476 797 489 q 1027 432 974 464 q 1081 340 1081 400 q 1027 250 1081 282 q 885 205 974 218 q 692 192 797 192 m 1081 681 l 1081 264 q 1085 124 1081 183 q 1095 32 1090 64 q 1100 0 1100 0 l 1414 0 l 1414 681 l 1081 681 m 524 836 l 858 836 l 1249 1044 l 804 1044 l 524 836 "},"ă":{"ha":1476,"x_min":49,"x_max":1414,"o":"m 567 -19 q 792 6 692 -19 q 963 80 892 32 q 1071 194 1033 128 q 1108 340 1108 260 q 1042 530 1108 449 q 855 656 976 611 q 567 701 733 701 q 300 661 417 701 q 116 540 183 621 q 49 340 49 460 q 116 146 49 226 q 300 23 183 65 q 567 -19 417 -19 m 692 192 q 531 208 597 192 q 429 258 464 225 q 394 340 394 292 q 472 452 394 415 q 692 489 550 489 q 885 476 797 489 q 1027 432 974 464 q 1081 340 1081 400 q 1027 250 1081 282 q 885 205 974 218 q 692 192 797 192 m 1081 681 l 1081 264 q 1085 124 1081 183 q 1095 32 1090 64 q 1100 0 1100 0 l 1414 0 l 1414 681 l 1081 681 m 1235 1014 l 1026 1014 q 922 974 994 994 q 714 953 849 953 q 506 974 579 953 q 401 1014 432 994 l 193 1014 q 283 913 221 958 q 451 841 346 868 q 714 814 557 814 q 976 841 871 814 q 1144 913 1082 868 q 1235 1014 1207 958 "},"â":{"ha":1476,"x_min":49,"x_max":1414,"o":"m 567 -19 q 792 6 692 -19 q 963 80 892 32 q 1071 194 1033 128 q 1108 340 1108 260 q 1042 530 1108 449 q 855 656 976 611 q 567 701 733 701 q 300 661 417 701 q 116 540 183 621 q 49 340 49 460 q 116 146 49 226 q 300 23 183 65 q 567 -19 417 -19 m 692 192 q 531 208 597 192 q 429 258 464 225 q 394 340 394 292 q 472 452 394 415 q 692 489 550 489 q 885 476 797 489 q 1027 432 974 464 q 1081 340 1081 400 q 1027 250 1081 282 q 885 205 974 218 q 692 192 797 192 m 1081 681 l 1081 264 q 1085 124 1081 183 q 1095 32 1090 64 q 1100 0 1100 0 l 1414 0 l 1414 681 l 1081 681 m 908 1044 l 519 1044 l 211 836 l 546 836 l 844 1006 l 583 1007 l 881 836 l 1217 836 l 908 1044 "},"ä":{"ha":1476,"x_min":49,"x_max":1414,"o":"m 567 -19 q 792 6 692 -19 q 963 80 892 32 q 1071 194 1033 128 q 1108 340 1108 260 q 1042 530 1108 449 q 855 656 976 611 q 567 701 733 701 q 300 661 417 701 q 116 540 183 621 q 49 340 49 460 q 116 146 49 226 q 300 23 183 65 q 567 -19 417 -19 m 692 192 q 531 208 597 192 q 429 258 464 225 q 394 340 394 292 q 472 452 394 415 q 692 489 550 489 q 885 476 797 489 q 1027 432 974 464 q 1081 340 1081 400 q 1027 250 1081 282 q 885 205 974 218 q 692 192 797 192 m 1081 681 l 1081 264 q 1085 124 1081 183 q 1095 32 1090 64 q 1100 0 1100 0 l 1414 0 l 1414 681 l 1081 681 m 679 1046 l 326 1046 l 326 836 l 679 836 l 679 1046 m 1101 1046 l 749 1046 l 749 836 l 1101 836 l 1101 1046 "},"à":{"ha":1476,"x_min":49,"x_max":1414,"o":"m 567 -19 q 792 6 692 -19 q 963 80 892 32 q 1071 194 1033 128 q 1108 340 1108 260 q 1042 530 1108 449 q 855 656 976 611 q 567 701 733 701 q 300 661 417 701 q 116 540 183 621 q 49 340 49 460 q 116 146 49 226 q 300 23 183 65 q 567 -19 417 -19 m 692 192 q 531 208 597 192 q 429 258 464 225 q 394 340 394 292 q 472 452 394 415 q 692 489 550 489 q 885 476 797 489 q 1027 432 974 464 q 1081 340 1081 400 q 1027 250 1081 282 q 885 205 974 218 q 692 192 797 192 m 1081 681 l 1081 264 q 1085 124 1081 183 q 1095 32 1090 64 q 1100 0 1100 0 l 1414 0 l 1414 681 l 1081 681 m 575 836 l 910 836 l 629 1044 l 185 1044 l 575 836 "},"ā":{"ha":1476,"x_min":49,"x_max":1414,"o":"m 567 -19 q 792 6 692 -19 q 963 80 892 32 q 1071 194 1033 128 q 1108 340 1108 260 q 1042 530 1108 449 q 855 656 976 611 q 567 701 733 701 q 300 661 417 701 q 116 540 183 621 q 49 340 49 460 q 116 146 49 226 q 300 23 183 65 q 567 -19 417 -19 m 692 192 q 531 208 597 192 q 429 258 464 225 q 394 340 394 292 q 472 452 394 415 q 692 489 550 489 q 885 476 797 489 q 1027 432 974 464 q 1081 340 1081 400 q 1027 250 1081 282 q 885 205 974 218 q 692 192 797 192 m 1081 681 l 1081 264 q 1085 124 1081 183 q 1095 32 1090 64 q 1100 0 1100 0 l 1414 0 l 1414 681 l 1081 681 m 399 838 l 1029 838 l 1029 975 l 399 975 l 399 838 "},"ą":{"ha":1476,"x_min":49,"x_max":1414,"o":"m 1344 -333 l 1344 -197 q 1228 -186 1282 -197 q 1142 -151 1175 -175 q 1110 -90 1110 -128 q 1155 -27 1110 -44 q 1288 0 1200 -10 l 1288 31 q 1067 7 1164 24 q 915 -45 971 -10 q 860 -146 860 -81 q 989 -283 860 -233 q 1344 -333 1118 -333 m 567 -19 q 792 6 692 -19 q 963 80 892 32 q 1071 194 1033 128 q 1108 340 1108 260 q 1042 530 1108 449 q 855 656 976 611 q 567 701 733 701 q 300 661 417 701 q 116 540 183 621 q 49 340 49 460 q 116 146 49 226 q 300 23 183 65 q 567 -19 417 -19 m 692 192 q 531 208 597 192 q 429 258 464 225 q 394 340 394 292 q 472 452 394 415 q 692 489 550 489 q 885 476 797 489 q 1027 432 974 464 q 1081 340 1081 400 q 1027 250 1081 282 q 885 205 974 218 q 692 192 797 192 m 1081 681 l 1081 264 q 1085 124 1081 183 q 1095 32 1090 64 q 1100 0 1100 0 l 1414 0 l 1414 681 l 1081 681 "},"å":{"ha":1476,"x_min":49,"x_max":1414,"o":"m 567 -19 q 792 6 692 -19 q 963 80 892 32 q 1071 194 1033 128 q 1108 340 1108 260 q 1042 530 1108 449 q 855 656 976 611 q 567 701 733 701 q 300 661 417 701 q 116 540 183 621 q 49 340 49 460 q 116 146 49 226 q 300 23 183 65 q 567 -19 417 -19 m 692 192 q 531 208 597 192 q 429 258 464 225 q 394 340 394 292 q 472 452 394 415 q 692 489 550 489 q 885 476 797 489 q 1027 432 974 464 q 1081 340 1081 400 q 1027 250 1081 282 q 885 205 974 218 q 692 192 797 192 m 1081 681 l 1081 264 q 1085 124 1081 183 q 1095 32 1090 64 q 1100 0 1100 0 l 1414 0 l 1414 681 l 1081 681 m 714 801 q 890 844 832 801 q 949 957 949 886 q 890 1069 949 1026 q 714 1111 832 1111 q 537 1069 594 1111 q 479 957 479 1026 q 537 844 479 886 q 714 801 594 801 m 714 892 q 634 906 657 892 q 611 957 611 919 q 634 1007 611 993 q 714 1021 657 1021 q 792 1007 769 1021 q 815 957 815 993 q 792 906 815 919 q 714 892 769 892 "},"ã":{"ha":1476,"x_min":49,"x_max":1414,"o":"m 567 -19 q 792 6 692 -19 q 963 80 892 32 q 1071 194 1033 128 q 1108 340 1108 260 q 1042 530 1108 449 q 855 656 976 611 q 567 701 733 701 q 300 661 417 701 q 116 540 183 621 q 49 340 49 460 q 116 146 49 226 q 300 23 183 65 q 567 -19 417 -19 m 692 192 q 531 208 597 192 q 429 258 464 225 q 394 340 394 292 q 472 452 394 415 q 692 489 550 489 q 885 476 797 489 q 1027 432 974 464 q 1081 340 1081 400 q 1027 250 1081 282 q 885 205 974 218 q 692 192 797 192 m 1081 681 l 1081 264 q 1085 124 1081 183 q 1095 32 1090 64 q 1100 0 1100 0 l 1414 0 l 1414 681 l 1081 681 m 900 826 q 1049 857 986 826 q 1157 935 1113 888 q 1226 1035 1201 983 l 1018 1035 q 982 1001 1001 1017 q 936 975 963 985 q 871 965 910 965 q 788 977 826 965 q 711 1003 750 989 q 628 1030 672 1018 q 529 1042 585 1042 q 381 1011 444 1042 q 273 933 317 981 q 203 833 229 886 l 411 833 q 451 871 432 856 q 493 894 469 886 q 550 903 517 903 q 635 891 594 903 q 715 865 675 879 q 801 838 756 850 q 900 826 846 826 "},"æ":{"ha":2660,"x_min":49,"x_max":2614,"o":"m 567 -19 q 792 6 692 -19 q 963 80 892 32 q 1071 194 1033 128 q 1108 340 1108 260 q 1042 530 1108 449 q 855 656 976 611 q 567 701 733 701 q 300 661 417 701 q 116 540 183 621 q 49 340 49 460 q 116 146 49 226 q 300 23 183 65 q 567 -19 417 -19 m 692 192 q 531 208 597 192 q 429 258 464 225 q 394 340 394 292 q 472 452 394 415 q 692 489 550 489 q 885 476 797 489 q 1027 432 974 464 q 1081 340 1081 400 q 1027 250 1081 282 q 885 205 974 218 q 692 192 797 192 m 1081 681 l 1081 264 q 1088 103 1081 175 q 1100 0 1094 32 l 1414 0 l 1414 681 l 1081 681 m 2281 242 q 2188 194 2265 211 q 1992 178 2111 178 q 1808 197 1876 178 q 1706 246 1739 215 q 1667 313 1674 276 l 2611 313 q 2550 540 2614 456 q 2351 661 2486 624 q 2006 699 2217 699 q 1639 664 1790 699 q 1408 549 1488 629 q 1328 336 1328 469 q 1410 122 1328 201 q 1644 10 1492 43 q 2006 -24 1796 -24 q 2333 9 2204 -24 q 2528 101 2461 42 q 2608 242 2596 161 l 2281 242 m 1992 497 q 2210 467 2142 497 q 2288 401 2278 438 l 1676 401 q 1767 465 1690 433 q 1992 497 1844 497 "},"b":{"ha":1525,"x_min":111,"x_max":1476,"o":"m 958 -19 q 1226 23 1108 -19 q 1410 146 1343 65 q 1476 340 1476 226 q 1410 540 1476 460 q 1226 661 1343 621 q 958 701 1108 701 q 733 676 833 701 q 563 602 633 650 q 454 488 492 554 q 417 340 417 421 q 454 194 417 260 q 563 80 492 128 q 733 6 633 32 q 958 -19 833 -19 m 833 192 q 640 205 728 192 q 498 250 551 218 q 444 340 444 282 q 498 432 444 400 q 640 476 551 464 q 833 489 728 489 q 1053 452 975 489 q 1131 340 1131 415 q 1096 258 1131 292 q 994 208 1061 225 q 833 192 928 192 m 444 958 l 111 958 l 111 0 l 425 0 q 438 103 432 32 q 444 264 444 175 l 444 958 "},"c":{"ha":1381,"x_min":49,"x_max":1332,"o":"m 1332 296 l 1026 296 q 926 210 1004 240 q 722 181 847 181 q 544 194 619 181 q 429 243 469 208 q 389 339 389 278 q 430 436 389 401 q 546 485 471 471 q 722 500 621 500 q 925 470 847 500 q 1025 386 1003 440 l 1331 386 q 1267 556 1329 485 q 1071 664 1204 626 q 722 701 938 701 q 356 666 507 701 q 127 551 206 631 q 49 339 49 471 q 127 128 49 207 q 356 14 206 49 q 722 -21 507 -21 q 1072 17 938 -21 q 1269 125 1207 54 q 1332 296 1332 196 "},"ć":{"ha":1381,"x_min":49,"x_max":1332,"o":"m 1332 296 l 1026 296 q 926 210 1004 240 q 722 181 847 181 q 544 194 619 181 q 429 243 469 208 q 389 339 389 278 q 430 436 389 401 q 546 485 471 471 q 722 500 621 500 q 925 470 847 500 q 1025 386 1003 440 l 1331 386 q 1267 556 1329 485 q 1071 664 1204 626 q 722 701 938 701 q 356 666 507 701 q 127 551 206 631 q 49 339 49 471 q 127 128 49 207 q 356 14 206 49 q 722 -21 507 -21 q 1072 17 938 -21 q 1269 125 1207 54 q 1332 296 1332 196 m 515 836 l 850 836 l 1240 1044 l 796 1044 l 515 836 "},"č":{"ha":1381,"x_min":49,"x_max":1332,"o":"m 1332 296 l 1026 296 q 926 210 1004 240 q 722 181 847 181 q 544 194 619 181 q 429 243 469 208 q 389 339 389 278 q 430 436 389 401 q 546 485 471 471 q 722 500 621 500 q 925 470 847 500 q 1025 386 1003 440 l 1331 386 q 1267 556 1329 485 q 1071 664 1204 626 q 722 701 938 701 q 356 666 507 701 q 127 551 206 631 q 49 339 49 471 q 127 128 49 207 q 356 14 206 49 q 722 -21 507 -21 q 1072 17 938 -21 q 1269 125 1207 54 q 1332 296 1332 196 m 836 875 l 538 1044 l 203 1044 l 511 836 l 900 836 l 1208 1044 l 872 1044 l 575 874 l 836 875 "},"ç":{"ha":1381,"x_min":49,"x_max":1332,"o":"m 556 -165 l 314 -165 q 363 -267 321 -218 q 483 -345 404 -315 q 675 -375 561 -375 q 947 -328 851 -375 q 1042 -206 1042 -282 q 1013 -137 1042 -162 q 938 -97 985 -111 q 831 -72 890 -82 l 601 -104 q 700 -124 669 -112 q 739 -147 731 -135 q 747 -169 747 -158 q 727 -198 747 -187 q 667 -208 707 -208 q 603 -199 626 -208 q 570 -180 581 -190 q 556 -165 560 -169 m 601 13 l 601 -104 l 838 -132 l 838 13 l 601 13 m 1332 296 l 1026 296 q 926 210 1004 240 q 722 181 847 181 q 544 194 619 181 q 429 243 469 208 q 389 339 389 278 q 430 436 389 401 q 546 485 471 471 q 722 500 621 500 q 925 470 847 500 q 1025 386 1003 440 l 1331 386 q 1267 556 1329 485 q 1071 664 1204 626 q 722 701 938 701 q 356 666 507 701 q 127 551 206 631 q 49 339 49 471 q 127 128 49 207 q 356 14 206 49 q 722 -21 507 -21 q 1072 17 938 -21 q 1269 125 1207 54 q 1332 296 1332 196 "},"ċ":{"ha":1381,"x_min":49,"x_max":1332,"o":"m 1332 296 l 1026 296 q 926 210 1004 240 q 722 181 847 181 q 544 194 619 181 q 429 243 469 208 q 389 339 389 278 q 430 436 389 401 q 546 485 471 471 q 722 500 621 500 q 925 470 847 500 q 1025 386 1003 440 l 1331 386 q 1267 556 1329 485 q 1071 664 1204 626 q 722 701 938 701 q 356 666 507 701 q 127 551 206 631 q 49 339 49 471 q 127 128 49 207 q 356 14 206 49 q 722 -21 507 -21 q 1072 17 938 -21 q 1269 125 1207 54 q 1332 296 1332 196 m 882 1046 l 529 1046 l 529 838 l 882 838 l 882 1046 "},"d":{"ha":1525,"x_min":49,"x_max":1414,"o":"m 567 -19 q 792 6 692 -19 q 963 80 892 32 q 1071 194 1033 128 q 1108 340 1108 260 q 1071 488 1108 421 q 963 602 1033 554 q 792 676 892 650 q 567 701 692 701 q 300 661 417 701 q 116 540 183 621 q 49 340 49 460 q 116 146 49 226 q 300 23 183 65 q 567 -19 417 -19 m 692 192 q 531 208 597 192 q 429 258 464 225 q 394 340 394 292 q 472 452 394 415 q 692 489 550 489 q 885 476 797 489 q 1027 432 974 464 q 1081 340 1081 400 q 1027 250 1081 282 q 885 205 974 218 q 692 192 797 192 m 1081 958 l 1081 264 q 1088 103 1081 175 q 1100 0 1094 32 l 1414 0 l 1414 958 l 1081 958 "},"ð":{"ha":1400,"x_min":49,"x_max":1372,"o":"m 719 192 q 481 219 568 192 q 394 325 394 247 q 479 425 394 396 q 706 454 564 454 q 823 449 758 454 q 947 431 888 444 q 1044 393 1006 417 q 1082 332 1082 369 q 1047 257 1082 285 q 956 215 1011 229 q 837 197 900 201 q 719 192 774 192 m 1263 979 l 983 738 l 1090 625 l 1372 865 l 1263 979 m 356 767 q 678 744 546 767 q 893 676 810 721 q 1019 567 976 632 q 1075 419 1063 503 l 1096 426 q 988 553 1067 501 q 793 633 908 606 q 539 660 678 660 q 349 643 438 660 q 192 590 260 626 q 87 492 125 553 q 49 340 49 431 q 124 146 49 226 q 342 22 199 65 q 692 -21 486 -21 q 881 -10 786 -21 q 1058 28 975 1 q 1207 103 1142 56 q 1309 222 1272 150 q 1346 393 1346 293 q 1328 505 1346 443 q 1269 633 1311 567 q 1156 760 1228 699 q 974 872 1083 822 q 711 950 864 921 q 356 979 558 979 l 356 767 "},"ď":{"ha":1525,"x_min":49,"x_max":1832,"o":"m 567 -19 q 792 6 692 -19 q 963 80 892 32 q 1071 194 1033 128 q 1108 340 1108 260 q 1071 488 1108 421 q 963 602 1033 554 q 792 676 892 650 q 567 701 692 701 q 300 661 417 701 q 116 540 183 621 q 49 340 49 460 q 116 146 49 226 q 300 23 183 65 q 567 -19 417 -19 m 692 192 q 531 208 597 192 q 429 258 464 225 q 394 340 394 292 q 472 452 394 415 q 692 489 550 489 q 885 476 797 489 q 1027 432 974 464 q 1081 340 1081 400 q 1027 250 1081 282 q 885 205 974 218 q 692 192 797 192 m 1081 958 l 1081 264 q 1088 103 1081 175 q 1100 0 1094 32 l 1414 0 l 1414 958 l 1081 958 m 1742 647 l 1832 810 l 1832 958 l 1485 958 l 1485 810 l 1575 647 l 1742 647 "},"đ":{"ha":1525,"x_min":49,"x_max":1511,"o":"m 567 -19 q 792 6 692 -19 q 963 80 892 32 q 1071 194 1033 128 q 1108 340 1108 260 q 1071 488 1108 421 q 963 602 1033 554 q 792 676 892 650 q 567 701 692 701 q 300 661 417 701 q 116 540 183 621 q 49 340 49 460 q 116 146 49 226 q 300 23 183 65 q 567 -19 417 -19 m 692 192 q 531 208 597 192 q 429 258 464 225 q 394 340 394 292 q 472 452 394 415 q 692 489 550 489 q 885 476 797 489 q 1027 432 974 464 q 1081 340 1081 400 q 1027 250 1081 282 q 885 205 974 218 q 692 192 797 192 m 1081 958 l 1081 264 q 1088 103 1081 175 q 1100 0 1094 32 l 1414 0 l 1414 958 l 1081 958 m 831 821 l 831 731 l 1511 731 l 1511 821 l 831 821 "},"e":{"ha":1381,"x_min":49,"x_max":1335,"o":"m 1001 244 q 909 197 986 214 q 713 181 832 181 q 528 199 597 181 q 427 249 460 218 q 388 315 394 279 l 1332 315 q 1271 542 1335 458 q 1072 664 1207 626 q 726 701 938 701 q 360 667 511 701 q 128 552 208 632 q 49 339 49 472 q 131 125 49 204 q 365 13 213 46 q 726 -21 517 -21 q 1053 12 925 -21 q 1249 104 1182 44 q 1329 244 1317 164 l 1001 244 m 713 500 q 931 470 863 500 q 1008 404 999 440 l 397 404 q 488 468 411 436 q 713 500 565 500 "},"é":{"ha":1381,"x_min":49,"x_max":1335,"o":"m 1001 244 q 909 197 986 214 q 713 181 832 181 q 528 199 597 181 q 427 249 460 218 q 388 315 394 279 l 1332 315 q 1271 542 1335 458 q 1072 664 1207 626 q 726 701 938 701 q 360 667 511 701 q 128 552 208 632 q 49 339 49 472 q 131 125 49 204 q 365 13 213 46 q 726 -21 517 -21 q 1053 12 925 -21 q 1249 104 1182 44 q 1329 244 1317 164 l 1001 244 m 713 500 q 931 470 863 500 q 1008 404 999 440 l 397 404 q 488 468 411 436 q 713 500 565 500 m 522 836 l 857 836 l 1247 1044 l 803 1044 l 522 836 "},"ě":{"ha":1381,"x_min":49,"x_max":1335,"o":"m 1001 244 q 909 197 986 214 q 713 181 832 181 q 528 199 597 181 q 427 249 460 218 q 388 315 394 279 l 1332 315 q 1271 542 1335 458 q 1072 664 1207 626 q 726 701 938 701 q 360 667 511 701 q 128 552 208 632 q 49 339 49 472 q 131 125 49 204 q 365 13 213 46 q 726 -21 517 -21 q 1053 12 925 -21 q 1249 104 1182 44 q 1329 244 1317 164 l 1001 244 m 713 500 q 931 470 863 500 q 1008 404 999 440 l 397 404 q 488 468 411 436 q 713 500 565 500 m 843 875 l 544 1044 l 210 1044 l 518 836 l 907 836 l 1215 1044 l 879 1044 l 582 874 l 843 875 "},"ê":{"ha":1381,"x_min":49,"x_max":1335,"o":"m 1001 244 q 909 197 986 214 q 713 181 832 181 q 528 199 597 181 q 427 249 460 218 q 388 315 394 279 l 1332 315 q 1271 542 1335 458 q 1072 664 1207 626 q 726 701 938 701 q 360 667 511 701 q 128 552 208 632 q 49 339 49 472 q 131 125 49 204 q 365 13 213 46 q 726 -21 517 -21 q 1053 12 925 -21 q 1249 104 1182 44 q 1329 244 1317 164 l 1001 244 m 713 500 q 931 470 863 500 q 1008 404 999 440 l 397 404 q 488 468 411 436 q 713 500 565 500 m 907 1044 l 518 1044 l 210 836 l 544 836 l 843 1006 l 582 1007 l 879 836 l 1215 836 l 907 1044 "},"ë":{"ha":1381,"x_min":49,"x_max":1335,"o":"m 1001 244 q 909 197 986 214 q 713 181 832 181 q 528 199 597 181 q 427 249 460 218 q 388 315 394 279 l 1332 315 q 1271 542 1335 458 q 1072 664 1207 626 q 726 701 938 701 q 360 667 511 701 q 128 552 208 632 q 49 339 49 472 q 131 125 49 204 q 365 13 213 46 q 726 -21 517 -21 q 1053 12 925 -21 q 1249 104 1182 44 q 1329 244 1317 164 l 1001 244 m 713 500 q 931 470 863 500 q 1008 404 999 440 l 397 404 q 488 468 411 436 q 713 500 565 500 m 678 1046 l 325 1046 l 325 836 l 678 836 l 678 1046 m 1100 1046 l 747 1046 l 747 836 l 1100 836 l 1100 1046 "},"ė":{"ha":1381,"x_min":49,"x_max":1335,"o":"m 1001 244 q 909 197 986 214 q 713 181 832 181 q 528 199 597 181 q 427 249 460 218 q 388 315 394 279 l 1332 315 q 1271 542 1335 458 q 1072 664 1207 626 q 726 701 938 701 q 360 667 511 701 q 128 552 208 632 q 49 339 49 472 q 131 125 49 204 q 365 13 213 46 q 726 -21 517 -21 q 1053 12 925 -21 q 1249 104 1182 44 q 1329 244 1317 164 l 1001 244 m 713 500 q 931 470 863 500 q 1008 404 999 440 l 397 404 q 488 468 411 436 q 713 500 565 500 m 889 1046 l 536 1046 l 536 838 l 889 838 l 889 1046 "},"è":{"ha":1381,"x_min":49,"x_max":1335,"o":"m 1001 244 q 909 197 986 214 q 713 181 832 181 q 528 199 597 181 q 427 249 460 218 q 388 315 394 279 l 1332 315 q 1271 542 1335 458 q 1072 664 1207 626 q 726 701 938 701 q 360 667 511 701 q 128 552 208 632 q 49 339 49 472 q 131 125 49 204 q 365 13 213 46 q 726 -21 517 -21 q 1053 12 925 -21 q 1249 104 1182 44 q 1329 244 1317 164 l 1001 244 m 713 500 q 931 470 863 500 q 1008 404 999 440 l 397 404 q 488 468 411 436 q 713 500 565 500 m 574 836 l 908 836 l 628 1044 l 183 1044 l 574 836 "},"ē":{"ha":1381,"x_min":49,"x_max":1335,"o":"m 1001 244 q 909 197 986 214 q 713 181 832 181 q 528 199 597 181 q 427 249 460 218 q 388 315 394 279 l 1332 315 q 1271 542 1335 458 q 1072 664 1207 626 q 726 701 938 701 q 360 667 511 701 q 128 552 208 632 q 49 339 49 472 q 131 125 49 204 q 365 13 213 46 q 726 -21 517 -21 q 1053 12 925 -21 q 1249 104 1182 44 q 1329 244 1317 164 l 1001 244 m 713 500 q 931 470 863 500 q 1008 404 999 440 l 397 404 q 488 468 411 436 q 713 500 565 500 m 397 838 l 1028 838 l 1028 975 l 397 975 l 397 838 "},"ę":{"ha":1381,"x_min":49,"x_max":1335,"o":"m 1200 -333 l 1200 -197 q 1084 -186 1138 -197 q 998 -151 1031 -175 q 965 -90 965 -128 q 1010 -19 965 -44 q 1143 42 1056 7 l 1143 72 q 923 19 1019 44 q 771 -43 826 -6 q 715 -146 715 -81 q 844 -283 715 -233 q 1200 -333 974 -333 m 1001 244 q 909 197 986 214 q 713 181 832 181 q 528 199 597 181 q 427 249 460 218 q 388 315 394 279 l 1332 315 q 1271 542 1335 458 q 1072 664 1207 626 q 726 701 938 701 q 360 667 511 701 q 128 552 208 632 q 49 339 49 472 q 131 125 49 204 q 365 13 213 46 q 726 -21 517 -21 q 1053 12 925 -21 q 1249 104 1182 44 q 1329 244 1317 164 l 1001 244 m 713 500 q 931 470 863 500 q 1008 404 999 440 l 397 404 q 488 468 411 436 q 713 500 565 500 "},"f":{"ha":936,"x_min":28,"x_max":908,"o":"m 28 639 l 28 431 l 908 431 l 908 639 l 28 639 m 588 958 q 390 931 463 958 q 285 847 317 903 q 254 708 254 792 l 254 0 l 588 0 l 588 639 q 599 703 588 682 q 641 731 611 724 q 726 736 671 738 l 908 736 l 908 958 l 588 958 "},"g":{"ha":1346,"x_min":49,"x_max":1318,"o":"m 624 96 q 951 127 825 96 q 1135 219 1076 158 q 1194 365 1194 279 q 1160 468 1194 425 q 1069 542 1125 511 q 950 592 1013 572 l 965 571 q 1135 535 1043 549 q 1318 526 1228 522 l 1318 701 l 788 701 q 706 701 747 701 q 624 701 664 701 q 295 663 422 701 q 108 555 168 624 q 49 393 49 486 q 110 227 49 293 q 299 128 171 161 q 624 96 426 96 m 919 -299 l 1253 -299 l 1253 -219 q 1220 -88 1253 -136 q 1108 -20 1188 -40 q 892 0 1029 0 l 482 0 q 433 9 451 0 q 415 38 415 18 q 461 84 415 72 q 624 96 507 96 l 490 111 q 257 97 349 111 q 121 49 165 83 q 76 -44 76 15 q 87 -101 76 -72 q 128 -153 97 -129 q 220 -190 160 -176 q 379 -204 281 -204 l 767 -204 q 883 -212 846 -204 q 919 -261 919 -219 l 919 -299 m 624 278 q 474 292 531 278 q 391 332 417 307 q 365 388 365 357 q 392 447 365 422 q 475 486 418 472 q 624 500 532 500 q 772 486 717 500 q 853 447 828 472 q 878 388 878 422 q 853 332 878 357 q 772 292 828 307 q 624 278 715 278 "},"ğ":{"ha":1346,"x_min":49,"x_max":1318,"o":"m 624 96 q 951 127 825 96 q 1135 219 1076 158 q 1194 365 1194 279 q 1160 468 1194 425 q 1069 542 1125 511 q 950 592 1013 572 l 965 571 q 1135 535 1043 549 q 1318 526 1228 522 l 1318 701 l 788 701 q 706 701 747 701 q 624 701 664 701 q 295 663 422 701 q 108 555 168 624 q 49 393 49 486 q 110 227 49 293 q 299 128 171 161 q 624 96 426 96 m 919 -299 l 1253 -299 l 1253 -219 q 1220 -88 1253 -136 q 1108 -20 1188 -40 q 892 0 1029 0 l 482 0 q 433 9 451 0 q 415 38 415 18 q 461 84 415 72 q 624 96 507 96 l 490 111 q 257 97 349 111 q 121 49 165 83 q 76 -44 76 15 q 87 -101 76 -72 q 128 -153 97 -129 q 220 -190 160 -176 q 379 -204 281 -204 l 767 -204 q 883 -212 846 -204 q 919 -261 919 -219 l 919 -299 m 624 278 q 474 292 531 278 q 391 332 417 307 q 365 388 365 357 q 392 447 365 422 q 475 486 418 472 q 624 500 532 500 q 772 486 717 500 q 853 447 828 472 q 878 388 878 422 q 853 332 878 357 q 772 292 828 307 q 624 278 715 278 m 1144 1014 l 936 1014 q 831 974 904 994 q 624 953 758 953 q 415 974 489 953 q 311 1014 342 994 l 103 1014 q 193 913 131 958 q 361 841 256 868 q 624 814 467 814 q 886 841 781 814 q 1054 913 992 868 q 1144 1014 1117 958 "},"ģ":{"ha":1346,"x_min":49,"x_max":1318,"o":"m 624 96 q 951 127 825 96 q 1135 219 1076 158 q 1194 365 1194 279 q 1160 468 1194 425 q 1069 542 1125 511 q 950 592 1013 572 l 965 571 q 1135 535 1043 549 q 1318 526 1228 522 l 1318 701 l 788 701 q 706 701 747 701 q 624 701 664 701 q 295 663 422 701 q 108 555 168 624 q 49 393 49 486 q 110 227 49 293 q 299 128 171 161 q 624 96 426 96 m 919 -299 l 1253 -299 l 1253 -219 q 1220 -88 1253 -136 q 1108 -20 1188 -40 q 892 0 1029 0 l 482 0 q 433 9 451 0 q 415 38 415 18 q 461 84 415 72 q 624 96 507 96 l 490 111 q 257 97 349 111 q 121 49 165 83 q 76 -44 76 15 q 87 -101 76 -72 q 128 -153 97 -129 q 220 -190 160 -176 q 379 -204 281 -204 l 767 -204 q 883 -212 846 -204 q 919 -261 919 -219 l 919 -299 m 624 278 q 474 292 531 278 q 391 332 417 307 q 365 388 365 357 q 392 447 365 422 q 475 486 418 472 q 624 500 532 500 q 772 486 717 500 q 853 447 828 472 q 878 388 878 422 q 853 332 878 357 q 772 292 828 307 q 624 278 715 278 m 761 1101 q 523 1021 597 1083 q 449 883 449 958 l 449 776 l 800 776 l 800 939 l 678 954 q 715 992 682 975 q 779 1015 749 1008 l 761 1101 "},"ġ":{"ha":1346,"x_min":49,"x_max":1318,"o":"m 624 96 q 951 127 825 96 q 1135 219 1076 158 q 1194 365 1194 279 q 1160 468 1194 425 q 1069 542 1125 511 q 950 592 1013 572 l 965 571 q 1135 535 1043 549 q 1318 526 1228 522 l 1318 701 l 788 701 q 706 701 747 701 q 624 701 664 701 q 295 663 422 701 q 108 555 168 624 q 49 393 49 486 q 110 227 49 293 q 299 128 171 161 q 624 96 426 96 m 919 -299 l 1253 -299 l 1253 -219 q 1220 -88 1253 -136 q 1108 -20 1188 -40 q 892 0 1029 0 l 482 0 q 433 9 451 0 q 415 38 415 18 q 461 84 415 72 q 624 96 507 96 l 490 111 q 257 97 349 111 q 121 49 165 83 q 76 -44 76 15 q 87 -101 76 -72 q 128 -153 97 -129 q 220 -190 160 -176 q 379 -204 281 -204 l 767 -204 q 883 -212 846 -204 q 919 -261 919 -219 l 919 -299 m 624 278 q 474 292 531 278 q 391 332 417 307 q 365 388 365 357 q 392 447 365 422 q 475 486 418 472 q 624 500 532 500 q 772 486 717 500 q 853 447 828 472 q 878 388 878 422 q 853 332 878 357 q 772 292 828 307 q 624 278 715 278 m 800 1046 l 447 1046 l 447 838 l 800 838 l 800 1046 "},"h":{"ha":1400,"x_min":76,"x_max":1338,"o":"m 1004 0 l 1338 0 l 1338 392 q 1301 540 1338 481 q 1205 635 1265 600 q 1068 686 1144 671 q 910 701 992 701 q 684 669 779 701 q 526 590 589 636 q 431 501 464 543 q 393 438 399 458 l 396 371 q 474 404 425 388 q 585 433 524 421 q 713 444 647 444 q 891 423 828 444 q 979 358 954 401 q 1004 253 1004 315 l 1004 0 m 76 0 l 410 0 l 410 958 l 76 958 l 76 0 "},"ħ":{"ha":1400,"x_min":-1,"x_max":1338,"o":"m 1004 0 l 1338 0 l 1338 392 q 1301 540 1338 481 q 1205 635 1265 600 q 1068 686 1144 671 q 910 701 992 701 q 684 669 779 701 q 526 590 589 636 q 431 501 464 543 q 393 438 399 458 l 396 371 q 474 404 425 388 q 585 433 524 421 q 713 444 647 444 q 891 423 828 444 q 979 358 954 401 q 1004 253 1004 315 l 1004 0 m 76 0 l 410 0 l 410 958 l 76 958 l 76 0 m -1 829 l -1 739 l 679 739 l 679 829 l -1 829 "},"i":{"ha":506,"x_min":76,"x_max":429,"o":"m 429 1038 l 76 1038 l 76 829 l 429 829 l 429 1038 m 86 681 l 86 0 l 419 0 l 419 681 l 86 681 "},"ı":{"ha":486,"x_min":76,"x_max":410,"o":"m 76 681 l 76 0 l 410 0 l 410 681 l 76 681 "},"í":{"ha":486,"x_min":53,"x_max":778,"o":"m 76 681 l 76 0 l 410 0 l 410 681 l 76 681 m 53 829 l 388 829 l 778 1038 l 333 1038 l 53 829 "},"î":{"ha":486,"x_min":-260,"x_max":746,"o":"m 76 681 l 76 0 l 410 0 l 410 681 l 76 681 m 438 1038 l 49 1038 l -260 829 l 75 829 l 374 999 l 113 1000 l 410 829 l 746 829 l 438 1038 "},"ï":{"ha":278,"x_min":-46,"x_max":492,"o":"m 76 681 l 76 0 l 410 0 l 410 681 l 76 681 m 307 1046 l -46 1046 l -46 836 l 307 836 l 307 1046 m 492 1046 l 139 1046 l 139 836 l 492 836 l 492 1046 "},"ì":{"ha":486,"x_min":-286,"x_max":439,"o":"m 76 681 l 76 0 l 410 0 l 410 681 l 76 681 m 104 829 l 439 829 l 158 1038 l -286 1038 l 104 829 "},"ĳ":{"ha":1011,"x_min":76,"x_max":935,"o":"m 429 1038 l 76 1038 l 76 829 l 429 829 l 429 1038 m 86 681 l 86 0 l 419 0 l 419 681 l 86 681 m 592 681 l 592 -278 l 925 -278 l 925 681 l 592 681 m 935 1038 l 582 1038 l 582 829 l 935 829 l 935 1038 "},"ī":{"ha":486,"x_min":-72,"x_max":558,"o":"m 76 681 l 76 0 l 410 0 l 410 681 l 76 681 m -72 831 l 558 831 l 558 968 l -72 968 l -72 831 "},"į":{"ha":506,"x_min":-8,"x_max":476,"o":"m 476 -333 l 476 -197 q 360 -186 414 -197 q 274 -151 307 -175 q 242 -90 242 -128 q 287 -27 242 -44 q 419 0 332 -10 l 419 31 q 199 7 296 24 q 47 -45 103 -10 q -8 -146 -8 -81 q 121 -283 -8 -233 q 476 -333 250 -333 m 429 1038 l 76 1038 l 76 829 l 429 829 l 429 1038 m 86 681 l 86 0 l 419 0 l 419 681 l 86 681 "},"j":{"ha":506,"x_min":76,"x_max":429,"o":"m 86 681 l 86 -278 l 419 -278 l 419 681 l 86 681 m 429 1038 l 76 1038 l 76 829 l 429 829 l 429 1038 "},"k":{"ha":1308,"x_min":76,"x_max":1301,"o":"m 76 958 l 76 0 l 410 0 l 410 958 l 76 958 m 1254 681 l 813 681 l 415 388 l 879 0 l 1301 0 l 711 479 l 704 299 l 1254 681 "},"ķ":{"ha":1308,"x_min":76,"x_max":1301,"o":"m 76 958 l 76 0 l 410 0 l 410 958 l 76 958 m 1254 681 l 813 681 l 415 388 l 879 0 l 1301 0 l 711 479 l 704 299 l 1254 681 m 476 -393 l 476 -393 q 710 -316 632 -376 q 789 -175 789 -256 l 789 -68 l 438 -68 l 438 -231 l 560 -246 q 526 -281 556 -265 q 457 -307 497 -297 l 476 -393 "},"l":{"ha":500,"x_min":83,"x_max":417,"o":"m 83 958 l 83 0 l 417 0 l 417 958 l 83 958 "},"ĺ":{"ha":500,"x_min":69,"x_max":794,"o":"m 83 958 l 83 0 l 417 0 l 417 958 l 83 958 m 69 1100 l 404 1100 l 794 1308 l 350 1308 l 69 1100 "},"ľ":{"ha":847,"x_min":83,"x_max":847,"o":"m 83 958 l 83 0 l 417 0 l 417 958 l 83 958 m 757 647 l 847 810 l 847 958 l 500 958 l 500 810 l 590 647 l 757 647 "},"ļ":{"ha":500,"x_min":79,"x_max":431,"o":"m 83 958 l 83 0 l 417 0 l 417 958 l 83 958 m 118 -393 l 118 -393 q 352 -316 274 -376 q 431 -175 431 -256 l 431 -68 l 79 -68 l 79 -231 l 201 -246 q 168 -281 197 -265 q 99 -307 139 -297 l 118 -393 "},"ŀ":{"ha":915,"x_min":83,"x_max":832,"o":"m 83 958 l 83 0 l 417 0 l 417 958 l 83 958 m 832 483 l 479 483 l 479 274 l 832 274 l 832 483 "},"ł":{"ha":529,"x_min":-42,"x_max":571,"o":"m 519 708 l -42 324 l 7 250 l 571 635 l 519 708 m 99 958 l 99 0 l 432 0 l 432 958 l 99 958 "},"m":{"ha":2297,"x_min":63,"x_max":2235,"o":"m 63 681 l 63 0 l 396 0 l 396 681 l 63 681 m 896 701 q 670 669 765 701 q 513 592 575 638 q 417 501 450 546 q 379 431 385 456 l 382 378 q 469 423 414 400 q 595 463 525 446 q 740 479 665 479 q 936 435 882 479 q 990 288 990 392 l 990 0 l 1324 0 l 1324 329 q 1288 511 1324 439 q 1191 625 1251 583 q 1054 684 1131 667 q 896 701 978 701 m 1807 701 q 1594 669 1688 701 q 1434 593 1500 638 q 1332 507 1368 549 q 1290 444 1296 465 l 1293 378 q 1381 423 1325 400 q 1506 463 1436 446 q 1651 479 1576 479 q 1847 435 1793 479 q 1901 288 1901 392 l 1901 0 l 2235 0 l 2235 329 q 2199 511 2235 439 q 2102 625 2163 583 q 1965 684 2042 667 q 1807 701 1889 701 "},"n":{"ha":1386,"x_min":63,"x_max":1324,"o":"m 63 681 l 63 0 l 396 0 l 396 681 l 63 681 m 896 701 q 670 669 765 701 q 513 592 575 638 q 417 501 450 546 q 379 431 385 456 l 382 378 q 469 423 414 400 q 595 463 525 446 q 740 479 665 479 q 936 435 882 479 q 990 288 990 392 l 990 0 l 1324 0 l 1324 329 q 1288 511 1324 439 q 1191 625 1251 583 q 1054 684 1131 667 q 896 701 978 701 "},"ń":{"ha":1386,"x_min":63,"x_max":1324,"o":"m 63 681 l 63 0 l 396 0 l 396 681 l 63 681 m 896 701 q 670 669 765 701 q 513 592 575 638 q 417 501 450 546 q 379 431 385 456 l 382 378 q 469 423 414 400 q 595 463 525 446 q 740 479 665 479 q 936 435 882 479 q 990 288 990 392 l 990 0 l 1324 0 l 1324 329 q 1288 511 1324 439 q 1191 625 1251 583 q 1054 684 1131 667 q 896 701 978 701 m 572 836 l 907 836 l 1297 1044 l 853 1044 l 572 836 "},"ň":{"ha":1386,"x_min":63,"x_max":1324,"o":"m 63 681 l 63 0 l 396 0 l 396 681 l 63 681 m 896 701 q 670 669 765 701 q 513 592 575 638 q 417 501 450 546 q 379 431 385 456 l 382 378 q 469 423 414 400 q 595 463 525 446 q 740 479 665 479 q 936 435 882 479 q 990 288 990 392 l 990 0 l 1324 0 l 1324 329 q 1288 511 1324 439 q 1191 625 1251 583 q 1054 684 1131 667 q 896 701 978 701 m 893 875 l 594 1044 l 260 1044 l 568 836 l 957 836 l 1265 1044 l 929 1044 l 632 874 l 893 875 "},"ņ":{"ha":1386,"x_min":63,"x_max":1324,"o":"m 63 681 l 63 0 l 396 0 l 396 681 l 63 681 m 896 701 q 670 669 765 701 q 513 592 575 638 q 417 501 450 546 q 379 431 385 456 l 382 378 q 469 423 414 400 q 595 463 525 446 q 740 479 665 479 q 936 435 882 479 q 990 288 990 392 l 990 0 l 1324 0 l 1324 329 q 1288 511 1324 439 q 1191 625 1251 583 q 1054 684 1131 667 q 896 701 978 701 m 560 -393 l 560 -393 q 794 -316 715 -376 q 872 -175 872 -256 l 872 -68 l 521 -68 l 521 -231 l 643 -246 q 610 -281 639 -265 q 540 -307 581 -297 l 560 -393 "},"ñ":{"ha":1386,"x_min":63,"x_max":1324,"o":"m 63 681 l 63 0 l 396 0 l 396 681 l 63 681 m 896 701 q 670 669 765 701 q 513 592 575 638 q 417 501 450 546 q 379 431 385 456 l 382 378 q 469 423 414 400 q 595 463 525 446 q 740 479 665 479 q 936 435 882 479 q 990 288 990 392 l 990 0 l 1324 0 l 1324 329 q 1288 511 1324 439 q 1191 625 1251 583 q 1054 684 1131 667 q 896 701 978 701 m 949 826 q 1098 857 1035 826 q 1206 935 1161 888 q 1275 1035 1250 983 l 1067 1035 q 1031 1001 1050 1017 q 985 975 1011 985 q 919 965 958 965 q 837 977 875 965 q 760 1003 799 989 q 677 1030 721 1018 q 578 1042 633 1042 q 429 1011 493 1042 q 322 933 365 981 q 251 833 278 886 l 460 833 q 499 871 481 856 q 542 894 518 886 q 599 903 565 903 q 683 891 643 903 q 764 865 724 879 q 849 838 804 850 q 949 826 894 826 "},"ŋ":{"ha":1386,"x_min":63,"x_max":1324,"o":"m 768 -299 q 1047 -290 938 -299 q 1216 -260 1156 -282 q 1300 -198 1276 -237 q 1324 -97 1324 -158 l 1324 329 q 1288 511 1324 439 q 1191 625 1251 583 q 1054 684 1131 667 q 896 701 978 701 q 670 669 765 701 q 513 592 575 638 q 417 501 450 546 q 379 431 385 456 l 382 378 q 469 423 414 400 q 594 463 524 446 q 740 479 664 479 q 936 435 882 479 q 990 288 990 392 l 990 0 q 972 -43 990 -28 q 905 -64 953 -58 q 768 -69 857 -69 l 768 -299 m 63 0 l 396 0 l 396 681 l 63 681 l 63 0 "},"o":{"ha":1411,"x_min":49,"x_max":1363,"o":"m 708 -21 q 1073 15 928 -21 q 1290 131 1218 51 q 1363 339 1363 210 q 1290 548 1363 468 q 1073 665 1218 628 q 708 701 928 701 q 341 665 488 701 q 122 548 194 628 q 49 339 49 468 q 122 131 49 210 q 341 15 194 51 q 708 -21 488 -21 m 708 181 q 533 198 604 181 q 425 251 461 215 q 389 339 389 286 q 426 428 389 393 q 534 482 463 464 q 708 500 606 500 q 882 482 813 500 q 987 428 951 464 q 1022 339 1022 392 q 986 251 1022 286 q 881 198 950 215 q 708 181 811 181 "},"ó":{"ha":1411,"x_min":49,"x_max":1363,"o":"m 708 -21 q 1073 15 928 -21 q 1290 131 1218 51 q 1363 339 1363 210 q 1290 548 1363 468 q 1073 665 1218 628 q 708 701 928 701 q 341 665 488 701 q 122 548 194 628 q 49 339 49 468 q 122 131 49 210 q 341 15 194 51 q 708 -21 488 -21 m 708 181 q 533 198 604 181 q 425 251 461 215 q 389 339 389 286 q 426 428 389 393 q 534 482 463 464 q 708 500 606 500 q 882 482 813 500 q 987 428 951 464 q 1022 339 1022 392 q 986 251 1022 286 q 881 198 950 215 q 708 181 811 181 m 518 836 l 853 836 l 1243 1044 l 799 1044 l 518 836 "},"ô":{"ha":1411,"x_min":49,"x_max":1363,"o":"m 708 -21 q 1073 15 928 -21 q 1290 131 1218 51 q 1363 339 1363 210 q 1290 548 1363 468 q 1073 665 1218 628 q 708 701 928 701 q 341 665 488 701 q 122 548 194 628 q 49 339 49 468 q 122 131 49 210 q 341 15 194 51 q 708 -21 488 -21 m 708 181 q 533 198 604 181 q 425 251 461 215 q 389 339 389 286 q 426 428 389 393 q 534 482 463 464 q 708 500 606 500 q 882 482 813 500 q 987 428 951 464 q 1022 339 1022 392 q 986 251 1022 286 q 881 198 950 215 q 708 181 811 181 m 903 1044 l 514 1044 l 206 836 l 540 836 l 839 1006 l 578 1007 l 875 836 l 1211 836 l 903 1044 "},"ö":{"ha":1411,"x_min":49,"x_max":1363,"o":"m 708 -21 q 1073 15 928 -21 q 1290 131 1218 51 q 1363 339 1363 210 q 1290 548 1363 468 q 1073 665 1218 628 q 708 701 928 701 q 341 665 488 701 q 122 548 194 628 q 49 339 49 468 q 122 131 49 210 q 341 15 194 51 q 708 -21 488 -21 m 708 181 q 533 198 604 181 q 425 251 461 215 q 389 339 389 286 q 426 428 389 393 q 534 482 463 464 q 708 500 606 500 q 882 482 813 500 q 987 428 951 464 q 1022 339 1022 392 q 986 251 1022 286 q 881 198 950 215 q 708 181 811 181 m 674 1046 l 321 1046 l 321 836 l 674 836 l 674 1046 m 1096 1046 l 743 1046 l 743 836 l 1096 836 l 1096 1046 "},"ò":{"ha":1411,"x_min":49,"x_max":1363,"o":"m 708 -21 q 1073 15 928 -21 q 1290 131 1218 51 q 1363 339 1363 210 q 1290 548 1363 468 q 1073 665 1218 628 q 708 701 928 701 q 341 665 488 701 q 122 548 194 628 q 49 339 49 468 q 122 131 49 210 q 341 15 194 51 q 708 -21 488 -21 m 708 181 q 533 198 604 181 q 425 251 461 215 q 389 339 389 286 q 426 428 389 393 q 534 482 463 464 q 708 500 606 500 q 882 482 813 500 q 987 428 951 464 q 1022 339 1022 392 q 986 251 1022 286 q 881 198 950 215 q 708 181 811 181 m 569 836 l 904 836 l 624 1044 l 179 1044 l 569 836 "},"ő":{"ha":1411,"x_min":49,"x_max":1363,"o":"m 708 -21 q 1073 15 928 -21 q 1290 131 1218 51 q 1363 339 1363 210 q 1290 548 1363 468 q 1073 665 1218 628 q 708 701 928 701 q 341 665 488 701 q 122 548 194 628 q 49 339 49 468 q 122 131 49 210 q 341 15 194 51 q 708 -21 488 -21 m 708 181 q 533 198 604 181 q 425 251 461 215 q 389 339 389 286 q 426 428 389 393 q 534 482 463 464 q 708 500 606 500 q 882 482 813 500 q 987 428 951 464 q 1022 339 1022 392 q 986 251 1022 286 q 881 198 950 215 q 708 181 811 181 m 747 836 l 985 836 l 1244 1044 l 961 1044 l 747 836 m 367 836 l 604 836 l 836 1044 l 554 1044 l 367 836 "},"ō":{"ha":1411,"x_min":49,"x_max":1363,"o":"m 708 -21 q 1073 15 928 -21 q 1290 131 1218 51 q 1363 339 1363 210 q 1290 548 1363 468 q 1073 665 1218 628 q 708 701 928 701 q 341 665 488 701 q 122 548 194 628 q 49 339 49 468 q 122 131 49 210 q 341 15 194 51 q 708 -21 488 -21 m 708 181 q 533 198 604 181 q 425 251 461 215 q 389 339 389 286 q 426 428 389 393 q 534 482 463 464 q 708 500 606 500 q 882 482 813 500 q 987 428 951 464 q 1022 339 1022 392 q 986 251 1022 286 q 881 198 950 215 q 708 181 811 181 m 393 838 l 1024 838 l 1024 975 l 393 975 l 393 838 "},"ø":{"ha":1411,"x_min":49,"x_max":1363,"o":"m 929 808 l 407 -76 l 479 -121 l 1004 767 l 929 808 m 708 -21 q 1073 15 928 -21 q 1290 131 1218 51 q 1363 339 1363 210 q 1290 548 1363 468 q 1073 665 1218 628 q 708 701 928 701 q 341 665 488 701 q 122 548 194 628 q 49 339 49 468 q 122 131 49 210 q 341 15 194 51 q 708 -21 488 -21 m 708 181 q 533 198 604 181 q 425 251 461 215 q 389 339 389 286 q 426 428 389 393 q 534 482 463 464 q 708 500 606 500 q 882 482 813 500 q 987 428 951 464 q 1022 339 1022 392 q 986 251 1022 286 q 881 198 950 215 q 708 181 811 181 "},"õ":{"ha":1411,"x_min":49,"x_max":1363,"o":"m 708 -21 q 1073 15 928 -21 q 1290 131 1218 51 q 1363 339 1363 210 q 1290 548 1363 468 q 1073 665 1218 628 q 708 701 928 701 q 341 665 488 701 q 122 548 194 628 q 49 339 49 468 q 122 131 49 210 q 341 15 194 51 q 708 -21 488 -21 m 708 181 q 533 198 604 181 q 425 251 461 215 q 389 339 389 286 q 426 428 389 393 q 534 482 463 464 q 708 500 606 500 q 882 482 813 500 q 987 428 951 464 q 1022 339 1022 392 q 986 251 1022 286 q 881 198 950 215 q 708 181 811 181 m 894 826 q 1044 857 981 826 q 1151 935 1107 888 q 1221 1035 1196 983 l 1013 1035 q 976 1001 996 1017 q 931 975 957 985 q 865 965 904 965 q 783 977 821 965 q 706 1003 744 989 q 623 1030 667 1018 q 524 1042 579 1042 q 375 1011 439 1042 q 267 933 311 981 q 197 833 224 886 l 406 833 q 445 871 426 856 q 488 894 464 886 q 544 903 511 903 q 629 891 589 903 q 710 865 669 879 q 795 838 750 850 q 894 826 840 826 "},"œ":{"ha":2356,"x_min":49,"x_max":2310,"o":"m 708 -21 q 1073 15 928 -21 q 1290 131 1218 51 q 1363 339 1363 210 q 1290 548 1363 468 q 1073 665 1218 628 q 708 701 928 701 q 341 665 488 701 q 122 548 194 628 q 49 339 49 468 q 122 131 49 210 q 341 15 194 51 q 708 -21 488 -21 m 708 181 q 533 198 604 181 q 425 251 461 215 q 389 339 389 286 q 426 428 389 393 q 534 482 463 464 q 708 500 606 500 q 882 482 813 500 q 987 428 951 464 q 1022 339 1022 392 q 986 251 1022 286 q 881 198 950 215 q 708 181 811 181 m 1976 244 q 1884 197 1961 214 q 1688 181 1807 181 q 1503 199 1572 181 q 1402 249 1435 218 q 1363 315 1369 279 l 2307 315 q 2246 542 2310 458 q 2047 664 2182 626 q 1701 701 1913 701 q 1335 667 1486 701 q 1103 552 1183 632 q 1024 339 1024 472 q 1106 125 1024 204 q 1340 13 1188 46 q 1701 -21 1492 -21 q 2028 12 1900 -21 q 2224 104 2157 44 q 2304 244 2292 164 l 1976 244 m 1688 500 q 1906 470 1838 500 q 1983 404 1974 440 l 1372 404 q 1463 468 1386 436 q 1688 500 1540 500 "},"p":{"ha":1476,"x_min":63,"x_max":1428,"o":"m 910 -21 q 1177 19 1060 -21 q 1361 140 1294 60 q 1428 340 1428 221 q 1361 535 1428 454 q 1177 658 1294 615 q 910 700 1060 700 q 685 674 785 700 q 514 601 585 649 q 406 487 443 553 q 368 340 368 421 q 406 193 368 260 q 514 78 443 126 q 685 5 585 31 q 910 -21 785 -21 m 785 192 q 591 204 679 192 q 449 249 503 217 q 396 340 396 282 q 449 431 396 399 q 591 476 503 464 q 785 489 679 489 q 1004 451 926 489 q 1082 340 1082 414 q 1047 258 1082 290 q 946 208 1013 225 q 785 192 879 192 m 63 681 l 63 -278 l 396 -278 l 396 417 l 376 681 l 63 681 "},"þ":{"ha":1476,"x_min":63,"x_max":1428,"o":"m 910 -21 q 1177 19 1060 -21 q 1361 140 1294 60 q 1428 340 1428 221 q 1361 535 1428 454 q 1177 658 1294 615 q 910 700 1060 700 q 685 674 785 700 q 514 601 585 649 q 406 487 443 553 q 368 340 368 421 q 406 193 368 260 q 514 78 443 126 q 685 5 585 31 q 910 -21 785 -21 m 785 192 q 591 204 679 192 q 449 249 503 217 q 396 340 396 282 q 449 431 396 399 q 591 476 503 464 q 785 489 679 489 q 1004 451 926 489 q 1082 340 1082 414 q 1047 258 1082 290 q 946 208 1013 225 q 785 192 879 192 m 63 958 l 63 -278 l 396 -278 l 396 417 l 396 958 l 63 958 "},"q":{"ha":1525,"x_min":49,"x_max":1414,"o":"m 567 -21 q 792 5 692 -21 q 963 78 892 31 q 1071 193 1033 126 q 1108 340 1108 260 q 1071 487 1108 421 q 963 601 1033 553 q 792 674 892 649 q 567 700 692 700 q 300 658 417 700 q 116 535 183 615 q 49 340 49 454 q 116 140 49 221 q 300 19 183 60 q 567 -21 417 -21 m 692 192 q 531 208 597 192 q 429 258 464 225 q 394 340 394 290 q 472 451 394 414 q 692 489 550 489 q 885 476 797 489 q 1027 431 974 464 q 1081 340 1081 399 q 1027 249 1081 282 q 885 204 974 217 q 692 192 797 192 m 1414 681 l 1100 681 l 1081 417 l 1081 -278 l 1414 -278 l 1414 681 "},"r":{"ha":782,"x_min":63,"x_max":754,"o":"m 63 681 l 63 0 l 396 0 l 396 681 l 63 681 m 754 424 l 754 701 q 627 678 685 701 q 525 619 569 656 q 450 540 481 582 q 401 458 419 497 q 379 389 383 418 l 382 322 q 461 367 408 344 q 589 407 514 390 q 754 424 664 424 "},"ŕ":{"ha":782,"x_min":63,"x_max":1010,"o":"m 63 681 l 63 0 l 396 0 l 396 681 l 63 681 m 754 424 l 754 701 q 627 678 685 701 q 525 619 569 656 q 450 540 481 582 q 401 458 419 497 q 379 389 383 418 l 382 322 q 461 367 408 344 q 589 407 514 390 q 754 424 664 424 m 285 836 l 619 836 l 1010 1044 l 565 1044 l 285 836 "},"ř":{"ha":782,"x_min":-28,"x_max":978,"o":"m 63 681 l 63 0 l 396 0 l 396 681 l 63 681 m 754 424 l 754 701 q 627 678 685 701 q 525 619 569 656 q 450 540 481 582 q 401 458 419 497 q 379 389 383 418 l 382 322 q 461 367 408 344 q 589 407 514 390 q 754 424 664 424 m 606 875 l 307 1044 l -28 1044 l 281 836 l 669 836 l 978 1044 l 642 1044 l 344 874 l 606 875 "},"ŗ":{"ha":782,"x_min":58,"x_max":754,"o":"m 63 681 l 63 0 l 396 0 l 396 681 l 63 681 m 754 424 l 754 701 q 627 678 685 701 q 525 619 569 656 q 450 540 481 582 q 401 458 419 497 q 379 389 383 418 l 382 322 q 461 367 408 344 q 589 407 514 390 q 754 424 664 424 m 97 -393 l 97 -393 q 331 -316 253 -376 q 410 -175 410 -256 l 410 -68 l 58 -68 l 58 -231 l 181 -246 q 147 -281 176 -265 q 78 -307 118 -297 l 97 -393 "},"s":{"ha":1169,"x_min":53,"x_max":1121,"o":"m 56 244 q 63 181 53 217 q 106 110 74 146 q 200 45 139 75 q 358 -3 261 15 q 594 -21 454 -21 q 874 1 756 -21 q 1056 73 992 24 q 1121 201 1121 122 q 1085 304 1121 267 q 987 360 1049 342 q 848 383 925 378 q 690 389 771 389 q 513 393 574 389 q 431 408 453 397 q 410 439 410 418 q 453 485 410 471 q 594 500 497 500 q 740 486 697 500 q 797 436 782 472 l 1096 436 q 1044 571 1097 511 q 881 666 992 631 q 594 701 769 701 q 392 690 489 701 q 222 653 296 679 q 106 583 149 628 q 63 471 63 538 q 92 381 63 417 q 176 324 121 344 q 312 295 232 304 q 493 286 392 286 q 661 284 600 286 q 748 273 722 282 q 774 240 774 264 q 762 211 774 225 q 712 189 750 197 q 594 181 674 181 q 437 194 492 181 q 363 244 382 208 l 56 244 "},"ś":{"ha":1169,"x_min":53,"x_max":1121,"o":"m 56 244 q 63 181 53 217 q 106 110 74 146 q 200 45 139 75 q 358 -3 261 15 q 594 -21 454 -21 q 874 1 756 -21 q 1056 73 992 24 q 1121 201 1121 122 q 1085 304 1121 267 q 987 360 1049 342 q 848 383 925 378 q 690 389 771 389 q 513 393 574 389 q 431 408 453 397 q 410 439 410 418 q 453 485 410 471 q 594 500 497 500 q 740 486 697 500 q 797 436 782 472 l 1096 436 q 1044 571 1097 511 q 881 666 992 631 q 594 701 769 701 q 392 690 489 701 q 222 653 296 679 q 106 583 149 628 q 63 471 63 538 q 92 381 63 417 q 176 324 121 344 q 312 295 232 304 q 493 286 392 286 q 661 284 600 286 q 748 273 722 282 q 774 240 774 264 q 762 211 774 225 q 712 189 750 197 q 594 181 674 181 q 437 194 492 181 q 363 244 382 208 l 56 244 m 383 836 l 718 836 l 1108 1044 l 664 1044 l 383 836 "},"š":{"ha":1169,"x_min":53,"x_max":1121,"o":"m 56 244 q 63 181 53 217 q 106 110 74 146 q 200 45 139 75 q 358 -3 261 15 q 594 -21 454 -21 q 874 1 756 -21 q 1056 73 992 24 q 1121 201 1121 122 q 1085 304 1121 267 q 987 360 1049 342 q 848 383 925 378 q 690 389 771 389 q 513 393 574 389 q 431 408 453 397 q 410 439 410 418 q 453 485 410 471 q 594 500 497 500 q 740 486 697 500 q 797 436 782 472 l 1096 436 q 1044 571 1097 511 q 881 666 992 631 q 594 701 769 701 q 392 690 489 701 q 222 653 296 679 q 106 583 149 628 q 63 471 63 538 q 92 381 63 417 q 176 324 121 344 q 312 295 232 304 q 493 286 392 286 q 661 284 600 286 q 748 273 722 282 q 774 240 774 264 q 762 211 774 225 q 712 189 750 197 q 594 181 674 181 q 437 194 492 181 q 363 244 382 208 l 56 244 m 704 875 l 406 1044 l 71 1044 l 379 836 l 768 836 l 1076 1044 l 740 1044 l 443 874 l 704 875 "},"ş":{"ha":1169,"x_min":53,"x_max":1121,"o":"m 460 -165 l 218 -165 q 267 -267 225 -218 q 387 -345 308 -315 q 579 -375 465 -375 q 851 -328 756 -375 q 946 -206 946 -282 q 917 -137 946 -162 q 842 -97 889 -111 q 735 -72 794 -82 l 506 -104 q 604 -124 574 -112 q 643 -147 635 -135 q 651 -169 651 -158 q 631 -198 651 -187 q 571 -208 611 -208 q 508 -199 531 -208 q 474 -180 485 -190 q 460 -165 464 -169 m 506 13 l 506 -104 l 742 -132 l 742 13 l 506 13 m 56 244 q 63 181 53 217 q 106 110 74 146 q 200 45 139 75 q 358 -3 261 15 q 594 -21 454 -21 q 874 1 756 -21 q 1056 73 992 24 q 1121 201 1121 122 q 1085 304 1121 267 q 987 360 1049 342 q 848 383 925 378 q 690 389 771 389 q 513 393 574 389 q 431 408 453 397 q 410 439 410 418 q 453 485 410 471 q 594 500 497 500 q 740 486 697 500 q 797 436 782 472 l 1096 436 q 1044 571 1097 511 q 881 666 992 631 q 594 701 769 701 q 392 690 489 701 q 222 653 296 679 q 106 583 149 628 q 63 471 63 538 q 92 381 63 417 q 176 324 121 344 q 312 295 232 304 q 493 286 392 286 q 661 284 600 286 q 748 273 722 282 q 774 240 774 264 q 762 211 774 225 q 712 189 750 197 q 594 181 674 181 q 437 194 492 181 q 363 244 382 208 l 56 244 "},"ș":{"ha":1169,"x_min":53,"x_max":1121,"o":"m 56 244 q 63 181 53 217 q 106 110 74 146 q 200 45 139 75 q 358 -3 261 15 q 594 -21 454 -21 q 874 1 756 -21 q 1056 73 992 24 q 1121 201 1121 122 q 1085 304 1121 267 q 987 360 1049 342 q 848 383 925 378 q 690 389 771 389 q 513 393 574 389 q 431 408 453 397 q 410 439 410 418 q 453 485 410 471 q 594 500 497 500 q 740 486 697 500 q 797 436 782 472 l 1096 436 q 1044 571 1097 511 q 881 666 992 631 q 594 701 769 701 q 392 690 489 701 q 222 653 296 679 q 106 583 149 628 q 63 471 63 538 q 92 381 63 417 q 176 324 121 344 q 312 295 232 304 q 493 286 392 286 q 661 284 600 286 q 748 273 722 282 q 774 240 774 264 q 762 211 774 225 q 712 189 750 197 q 594 181 674 181 q 437 194 492 181 q 363 244 382 208 l 56 244 m 490 -407 l 490 -407 q 724 -330 646 -390 q 803 -189 803 -269 l 803 -82 l 451 -82 l 451 -244 l 574 -260 q 540 -295 569 -279 q 471 -321 511 -311 l 490 -407 "},"ß":{"ha":1581,"x_min":76,"x_max":1567,"o":"m 707 -278 q 1042 -269 886 -278 q 1317 -229 1199 -260 q 1501 -135 1435 -199 q 1567 36 1567 -72 q 1517 164 1567 115 q 1383 238 1468 213 q 1191 274 1297 264 q 969 285 1085 283 l 971 210 l 1461 472 l 1461 639 l 388 639 l 388 431 l 1140 431 l 1129 489 l 707 311 l 707 111 l 749 111 q 995 109 901 111 q 1140 99 1089 107 q 1208 73 1190 90 q 1226 24 1226 56 q 1208 -25 1226 -7 q 1135 -51 1189 -43 q 978 -62 1081 -60 q 707 -64 875 -64 l 707 -278 m 76 0 l 410 0 l 410 638 q 431 713 410 689 q 507 736 453 736 l 776 736 l 776 958 l 410 958 q 212 931 285 958 q 108 847 139 903 q 76 708 76 792 l 76 0 "},"t":{"ha":872,"x_min":28,"x_max":844,"o":"m 28 681 l 28 472 l 844 472 l 844 681 l 28 681 m 269 889 l 269 0 l 603 0 l 603 889 l 269 889 "},"ŧ":{"ha":872,"x_min":28,"x_max":844,"o":"m 29 368 l 29 264 l 844 264 l 844 368 l 29 368 m 28 681 l 28 472 l 844 472 l 844 681 l 28 681 m 269 889 l 269 0 l 603 0 l 603 889 l 269 889 "},"ť":{"ha":492,"x_min":28,"x_max":919,"o":"m 28 681 l 28 472 l 844 472 l 844 681 l 28 681 m 269 889 l 269 0 l 603 0 l 603 889 l 269 889 m 829 718 l 919 881 l 919 1029 l 572 1029 l 572 881 l 663 718 l 829 718 "},"ţ":{"ha":872,"x_min":28,"x_max":844,"o":"m 272 -151 l 31 -151 q 79 -253 38 -204 q 199 -331 121 -301 q 392 -361 278 -361 q 663 -315 568 -361 q 758 -192 758 -268 q 730 -123 758 -149 q 654 -83 701 -97 q 547 -58 607 -68 l 318 -90 q 417 -110 386 -99 q 456 -133 447 -121 q 464 -156 464 -144 q 444 -184 464 -174 q 383 -194 424 -194 q 319 -185 342 -194 q 287 -166 297 -176 q 272 -151 276 -156 m 318 26 l 318 -90 l 554 -118 l 554 26 l 318 26 m 28 681 l 28 472 l 844 472 l 844 681 l 28 681 m 269 889 l 269 0 l 603 0 l 603 889 l 269 889 "},"ț":{"ha":872,"x_min":28,"x_max":844,"o":"m 28 681 l 28 472 l 844 472 l 844 681 l 28 681 m 269 889 l 269 0 l 603 0 l 603 889 l 269 889 m 303 -393 l 303 -393 q 537 -316 458 -376 q 615 -175 615 -256 l 615 -68 l 264 -68 l 264 -231 l 386 -246 q 353 -281 382 -265 q 283 -307 324 -297 l 303 -393 "},"u":{"ha":1386,"x_min":63,"x_max":1324,"o":"m 1324 0 l 1324 681 l 990 681 l 990 0 l 1324 0 m 1004 351 q 922 285 975 319 q 798 226 868 250 q 646 201 728 201 q 503 217 558 201 q 422 275 447 233 q 396 393 396 317 l 396 681 l 63 681 l 63 358 q 99 176 63 249 q 199 60 135 103 q 344 -2 263 17 q 518 -21 426 -21 q 685 1 610 -21 q 818 59 760 24 q 917 136 876 94 q 980 217 957 178 q 1007 285 1003 256 l 1004 351 "},"ú":{"ha":1386,"x_min":63,"x_max":1324,"o":"m 1324 0 l 1324 681 l 990 681 l 990 0 l 1324 0 m 1004 351 q 922 285 975 319 q 798 226 868 250 q 646 201 728 201 q 503 217 558 201 q 422 275 447 233 q 396 393 396 317 l 396 681 l 63 681 l 63 358 q 99 176 63 249 q 199 60 135 103 q 344 -2 263 17 q 518 -21 426 -21 q 685 1 610 -21 q 818 59 760 24 q 917 136 876 94 q 980 217 957 178 q 1007 285 1003 256 l 1004 351 m 522 836 l 857 836 l 1247 1044 l 803 1044 l 522 836 "},"û":{"ha":1386,"x_min":63,"x_max":1324,"o":"m 1324 0 l 1324 681 l 990 681 l 990 0 l 1324 0 m 1004 351 q 922 285 975 319 q 798 226 868 250 q 646 201 728 201 q 503 217 558 201 q 422 275 447 233 q 396 393 396 317 l 396 681 l 63 681 l 63 358 q 99 176 63 249 q 199 60 135 103 q 344 -2 263 17 q 518 -21 426 -21 q 685 1 610 -21 q 818 59 760 24 q 917 136 876 94 q 980 217 957 178 q 1007 285 1003 256 l 1004 351 m 907 1044 l 518 1044 l 210 836 l 544 836 l 843 1006 l 582 1007 l 879 836 l 1215 836 l 907 1044 "},"ü":{"ha":1386,"x_min":63,"x_max":1324,"o":"m 1324 0 l 1324 681 l 990 681 l 990 0 l 1324 0 m 1004 351 q 922 285 975 319 q 798 226 868 250 q 646 201 728 201 q 503 217 558 201 q 422 275 447 233 q 396 393 396 317 l 396 681 l 63 681 l 63 358 q 99 176 63 249 q 199 60 135 103 q 344 -2 263 17 q 518 -21 426 -21 q 685 1 610 -21 q 818 59 760 24 q 917 136 876 94 q 980 217 957 178 q 1007 285 1003 256 l 1004 351 m 678 1046 l 325 1046 l 325 836 l 678 836 l 678 1046 m 1100 1046 l 747 1046 l 747 836 l 1100 836 l 1100 1046 "},"ù":{"ha":1386,"x_min":63,"x_max":1324,"o":"m 1324 0 l 1324 681 l 990 681 l 990 0 l 1324 0 m 1004 351 q 922 285 975 319 q 798 226 868 250 q 646 201 728 201 q 503 217 558 201 q 422 275 447 233 q 396 393 396 317 l 396 681 l 63 681 l 63 358 q 99 176 63 249 q 199 60 135 103 q 344 -2 263 17 q 518 -21 426 -21 q 685 1 610 -21 q 818 59 760 24 q 917 136 876 94 q 980 217 957 178 q 1007 285 1003 256 l 1004 351 m 574 836 l 908 836 l 628 1044 l 183 1044 l 574 836 "},"ű":{"ha":1386,"x_min":63,"x_max":1324,"o":"m 1324 0 l 1324 681 l 990 681 l 990 0 l 1324 0 m 1004 351 q 922 285 975 319 q 798 226 868 250 q 646 201 728 201 q 503 217 558 201 q 422 275 447 233 q 396 393 396 317 l 396 681 l 63 681 l 63 358 q 99 176 63 249 q 199 60 135 103 q 344 -2 263 17 q 518 -21 426 -21 q 685 1 610 -21 q 818 59 760 24 q 917 136 876 94 q 980 217 957 178 q 1007 285 1003 256 l 1004 351 m 751 836 l 989 836 l 1249 1044 l 965 1044 l 751 836 m 371 836 l 608 836 l 840 1044 l 558 1044 l 371 836 "},"ū":{"ha":1386,"x_min":63,"x_max":1324,"o":"m 1324 0 l 1324 681 l 990 681 l 990 0 l 1324 0 m 1004 351 q 922 285 975 319 q 798 226 868 250 q 646 201 728 201 q 503 217 558 201 q 422 275 447 233 q 396 393 396 317 l 396 681 l 63 681 l 63 358 q 99 176 63 249 q 199 60 135 103 q 344 -2 263 17 q 518 -21 426 -21 q 685 1 610 -21 q 818 59 760 24 q 917 136 876 94 q 980 217 957 178 q 1007 285 1003 256 l 1004 351 m 397 838 l 1028 838 l 1028 975 l 397 975 l 397 838 "},"ų":{"ha":1386,"x_min":63,"x_max":1324,"o":"m 1271 -333 l 1271 -197 q 1155 -186 1208 -197 q 1069 -151 1101 -175 q 1036 -90 1036 -128 q 1081 -27 1036 -44 q 1214 0 1126 -10 l 1214 31 q 994 7 1090 24 q 842 -45 897 -10 q 786 -146 786 -81 q 915 -283 786 -233 q 1271 -333 1044 -333 m 1324 0 l 1324 681 l 990 681 l 990 0 l 1324 0 m 1004 351 q 922 285 975 319 q 798 226 868 250 q 646 201 728 201 q 503 217 558 201 q 422 275 447 233 q 396 393 396 317 l 396 681 l 63 681 l 63 358 q 99 176 63 249 q 199 60 135 103 q 344 -2 263 17 q 518 -21 426 -21 q 685 1 610 -21 q 818 59 760 24 q 917 136 876 94 q 980 217 957 178 q 1007 285 1003 256 l 1004 351 "},"ů":{"ha":1386,"x_min":63,"x_max":1324,"o":"m 1324 0 l 1324 681 l 990 681 l 990 0 l 1324 0 m 1004 351 q 922 285 975 319 q 798 226 868 250 q 646 201 728 201 q 503 217 558 201 q 422 275 447 233 q 396 393 396 317 l 396 681 l 63 681 l 63 358 q 99 176 63 249 q 199 60 135 103 q 344 -2 263 17 q 518 -21 426 -21 q 685 1 610 -21 q 818 59 760 24 q 917 136 876 94 q 980 217 957 178 q 1007 285 1003 256 l 1004 351 m 713 801 q 889 844 831 801 q 947 957 947 886 q 889 1069 947 1026 q 713 1111 831 1111 q 535 1069 593 1111 q 478 957 478 1026 q 535 844 478 886 q 713 801 593 801 m 713 892 q 633 906 656 892 q 610 957 610 919 q 633 1007 610 993 q 713 1021 656 1021 q 791 1007 768 1021 q 814 957 814 993 q 791 906 814 919 q 713 892 768 892 "},"v":{"ha":1275,"x_min":7,"x_max":1268,"o":"m 708 125 l 374 681 l 7 681 l 469 0 l 783 0 l 1268 681 l 900 681 l 550 128 l 708 125 "},"w":{"ha":2031,"x_min":7,"x_max":2024,"o":"m 1499 128 l 1196 681 l 828 681 l 514 131 l 657 131 l 374 681 l 7 681 l 414 0 l 728 0 l 1093 526 l 929 528 l 1281 0 l 1594 0 l 2024 681 l 1656 681 l 1354 131 l 1499 128 "},"ẃ":{"ha":2031,"x_min":7,"x_max":2024,"o":"m 1499 128 l 1196 681 l 828 681 l 514 131 l 657 131 l 374 681 l 7 681 l 414 0 l 728 0 l 1093 526 l 929 528 l 1281 0 l 1594 0 l 2024 681 l 1656 681 l 1354 131 l 1499 128 m 821 836 l 1156 836 l 1546 1044 l 1101 1044 l 821 836 "},"ŵ":{"ha":2031,"x_min":7,"x_max":2024,"o":"m 1499 128 l 1196 681 l 828 681 l 514 131 l 657 131 l 374 681 l 7 681 l 414 0 l 728 0 l 1093 526 l 929 528 l 1281 0 l 1594 0 l 2024 681 l 1656 681 l 1354 131 l 1499 128 m 1206 1044 l 817 1044 l 508 836 l 843 836 l 1142 1006 l 881 1007 l 1178 836 l 1514 836 l 1206 1044 "},"ẅ":{"ha":2031,"x_min":7,"x_max":2024,"o":"m 1499 128 l 1196 681 l 828 681 l 514 131 l 657 131 l 374 681 l 7 681 l 414 0 l 728 0 l 1093 526 l 929 528 l 1281 0 l 1594 0 l 2024 681 l 1656 681 l 1354 131 l 1499 128 m 976 1046 l 624 1046 l 624 836 l 976 836 l 976 1046 m 1399 1046 l 1046 1046 l 1046 836 l 1399 836 l 1399 1046 "},"ẁ":{"ha":2031,"x_min":7,"x_max":2024,"o":"m 1499 128 l 1196 681 l 828 681 l 514 131 l 657 131 l 374 681 l 7 681 l 414 0 l 728 0 l 1093 526 l 929 528 l 1281 0 l 1594 0 l 2024 681 l 1656 681 l 1354 131 l 1499 128 m 872 836 l 1207 836 l 926 1044 l 482 1044 l 872 836 "},"x":{"ha":1361,"x_min":14,"x_max":1347,"o":"m 1319 681 l 911 681 l 578 417 l 14 0 l 422 0 l 764 281 l 1319 681 m 14 681 l 574 265 l 939 0 l 1347 0 l 772 426 l 422 681 l 14 681 "},"y":{"ha":1292,"x_min":7,"x_max":1285,"o":"m 7 681 l 479 0 l 767 28 l 361 681 l 7 681 m 1285 681 l 931 681 l 558 115 l 268 -278 l 608 -278 l 1285 681 "},"ý":{"ha":1292,"x_min":7,"x_max":1285,"o":"m 7 681 l 479 0 l 767 28 l 361 681 l 7 681 m 1285 681 l 931 681 l 558 115 l 268 -278 l 608 -278 l 1285 681 m 469 836 l 804 836 l 1194 1044 l 750 1044 l 469 836 "},"ŷ":{"ha":1292,"x_min":7,"x_max":1285,"o":"m 7 681 l 479 0 l 767 28 l 361 681 l 7 681 m 1285 681 l 931 681 l 558 115 l 268 -278 l 608 -278 l 1285 681 m 854 1044 l 465 1044 l 157 836 l 492 836 l 790 1006 l 529 1007 l 826 836 l 1163 836 l 854 1044 "},"ÿ":{"ha":1292,"x_min":7,"x_max":1285,"o":"m 7 681 l 479 0 l 767 28 l 361 681 l 7 681 m 1285 681 l 931 681 l 558 115 l 268 -278 l 608 -278 l 1285 681 m 625 1046 l 272 1046 l 272 836 l 625 836 l 625 1046 m 1047 1046 l 694 1046 l 694 836 l 1047 836 l 1047 1046 "},"ỳ":{"ha":1292,"x_min":7,"x_max":1285,"o":"m 7 681 l 479 0 l 767 28 l 361 681 l 7 681 m 1285 681 l 931 681 l 558 115 l 268 -278 l 608 -278 l 1285 681 m 521 836 l 856 836 l 575 1044 l 131 1044 l 521 836 "},"z":{"ha":1244,"x_min":83,"x_max":1161,"o":"m 1153 472 l 1153 681 l 83 681 l 83 472 l 842 472 l 829 532 l 83 208 l 83 0 l 1161 0 l 1161 208 l 389 208 l 401 149 l 1153 472 "},"ź":{"ha":1244,"x_min":83,"x_max":1161,"o":"m 1153 472 l 1153 681 l 83 681 l 83 472 l 842 472 l 829 532 l 83 208 l 83 0 l 1161 0 l 1161 208 l 389 208 l 401 149 l 1153 472 m 426 836 l 761 836 l 1151 1044 l 707 1044 l 426 836 "},"ž":{"ha":1244,"x_min":83,"x_max":1161,"o":"m 1153 472 l 1153 681 l 83 681 l 83 472 l 842 472 l 829 532 l 83 208 l 83 0 l 1161 0 l 1161 208 l 389 208 l 401 149 l 1153 472 m 747 875 l 449 1044 l 114 1044 l 422 836 l 811 836 l 1119 1044 l 783 1044 l 486 874 l 747 875 "},"ż":{"ha":1244,"x_min":83,"x_max":1161,"o":"m 1153 472 l 1153 681 l 83 681 l 83 472 l 842 472 l 829 532 l 83 208 l 83 0 l 1161 0 l 1161 208 l 389 208 l 401 149 l 1153 472 m 793 1046 l 440 1046 l 440 838 l 793 838 l 793 1046 "},"ﬁ":{"ha":1471,"x_min":28,"x_max":1394,"o":"m 861 431 l 1344 431 l 1344 639 l 861 639 l 861 431 m 1061 639 l 1061 0 l 1394 0 l 1394 639 l 1061 639 m 254 0 l 588 0 l 588 639 l 254 708 l 254 0 m 588 958 q 390 931 463 958 q 285 847 317 903 q 254 708 254 792 l 588 639 q 599 703 588 682 q 641 731 611 724 q 726 736 671 738 l 1394 736 l 1394 958 l 588 958 m 28 639 l 28 431 l 908 431 l 908 639 l 28 639 "},"ª":{"ha":1393,"x_min":49,"x_max":1331,"o":"m 511 383 q 720 408 626 383 q 883 476 814 433 q 988 573 951 518 q 1025 686 1025 628 q 988 794 1025 742 q 883 888 951 846 q 720 954 814 929 q 511 979 626 979 q 271 944 375 979 q 108 843 167 910 q 49 681 49 776 q 108 524 49 592 q 271 420 167 457 q 511 383 375 383 m 608 590 q 451 612 507 590 q 394 681 394 633 q 451 750 394 729 q 608 771 507 771 q 751 767 682 771 q 876 752 821 763 q 965 724 932 742 q 997 681 997 707 q 965 638 997 656 q 876 610 932 621 q 751 595 821 600 q 608 590 682 590 m 997 958 l 997 651 q 1002 522 997 578 q 1012 434 1007 465 q 1017 403 1017 403 l 1331 403 l 1331 958 l 997 958 "},"º":{"ha":1411,"x_min":104,"x_max":1307,"o":"m 708 382 q 1034 411 900 382 q 1238 506 1168 440 q 1307 679 1307 571 q 1238 853 1307 788 q 1034 949 1168 919 q 708 979 900 979 q 381 949 515 979 q 175 853 246 919 q 104 679 104 788 q 175 506 104 571 q 381 411 246 440 q 708 382 515 382 m 708 579 q 541 592 600 579 q 460 628 482 606 q 438 679 438 650 q 460 732 438 708 q 542 769 483 756 q 708 782 601 782 q 873 768 815 782 q 952 731 931 754 q 974 679 974 708 q 951 628 974 650 q 872 592 929 606 q 708 579 814 579 "},"Α":{"ha":1611,"x_min":14,"x_max":1597,"o":"m 325 135 l 1275 135 l 1275 343 l 325 343 l 325 135 m 14 0 l 396 0 l 907 796 l 700 796 l 1215 0 l 1597 0 l 996 889 l 610 889 l 14 0 "},"Β":{"ha":1583,"x_min":97,"x_max":1542,"o":"m 97 0 l 1042 0 q 1307 27 1194 0 q 1481 110 1419 54 q 1542 251 1542 165 q 1504 363 1542 322 q 1400 422 1467 403 q 1244 447 1333 442 q 1051 453 1156 453 l 1040 442 q 1285 463 1183 446 q 1442 525 1388 481 q 1497 653 1497 569 q 1369 836 1497 783 q 972 889 1242 889 l 97 889 l 97 0 m 444 261 l 444 378 l 1042 378 q 1121 372 1090 378 q 1166 353 1151 365 q 1181 319 1181 340 q 1148 275 1181 289 q 1042 261 1115 261 l 444 261 m 444 511 l 444 628 l 983 628 q 1090 615 1057 628 q 1122 569 1122 601 q 1090 525 1122 539 q 983 511 1057 511 l 444 511 "},"Γ":{"ha":1317,"x_min":97,"x_max":1303,"o":"m 394 889 l 394 625 l 1303 625 l 1303 889 l 394 889 m 97 889 l 97 0 l 444 0 l 444 889 l 97 889 "},"Δ":{"ha":1611,"x_min":14,"x_max":1597,"o":"m 325 0 l 1275 0 l 1275 208 l 325 208 l 325 0 m 14 0 l 396 0 l 907 796 l 700 796 l 1215 0 l 1597 0 l 996 889 l 610 889 l 14 0 "},"Ε":{"ha":1583,"x_min":97,"x_max":1500,"o":"m 444 375 l 1306 375 l 1306 514 l 444 514 l 444 625 l 1497 625 l 1497 889 l 97 889 l 97 0 l 1500 0 l 1500 264 l 444 264 l 444 375 "},"Ζ":{"ha":1556,"x_min":97,"x_max":1458,"o":"m 97 889 l 97 625 l 1013 625 l 1001 682 l 97 264 l 97 0 l 1458 0 l 1458 264 l 547 264 l 558 207 l 1458 625 l 1458 889 l 97 889 "},"Η":{"ha":1778,"x_min":97,"x_max":1681,"o":"m 394 582 l 394 318 l 1372 318 l 1372 582 l 394 582 m 1333 889 l 1333 0 l 1681 0 l 1681 889 l 1333 889 m 97 889 l 97 0 l 444 0 l 444 889 l 97 889 "},"Θ":{"ha":1847,"x_min":83,"x_max":1764,"o":"m 924 -28 q 1411 26 1226 -28 q 1680 184 1596 79 q 1764 444 1764 289 q 1680 705 1764 600 q 1411 863 1596 810 q 924 917 1226 917 q 436 863 621 917 q 167 705 251 810 q 83 444 83 600 q 167 184 83 289 q 436 26 251 79 q 924 -28 621 -28 m 924 236 q 673 253 781 236 q 505 316 565 271 q 444 444 444 361 q 505 573 444 528 q 673 635 565 618 q 924 653 781 653 q 1171 635 1067 653 q 1332 573 1275 618 q 1389 444 1389 528 q 1332 316 1389 361 q 1171 253 1275 271 q 924 236 1067 236 m 528 514 l 528 375 l 1306 375 l 1306 514 l 528 514 "},"Ι":{"ha":583,"x_min":118,"x_max":465,"o":"m 118 889 l 118 0 l 465 0 l 465 889 l 118 889 "},"Κ":{"ha":1688,"x_min":97,"x_max":1639,"o":"m 838 438 l 1564 889 l 1069 889 l 442 472 l 1122 0 l 1639 0 l 838 515 l 838 438 m 97 889 l 97 0 l 444 0 l 444 889 l 97 889 "},"Λ":{"ha":1611,"x_min":14,"x_max":1597,"o":"m 14 0 l 396 0 l 907 796 l 700 796 l 1215 0 l 1597 0 l 996 889 l 610 889 l 14 0 "},"Μ":{"ha":2194,"x_min":97,"x_max":2097,"o":"m 1200 106 l 444 889 l 97 889 l 97 0 l 444 0 l 444 604 l 339 561 l 889 0 l 1306 0 l 1854 563 l 1750 606 l 1750 0 l 2097 0 l 2097 889 l 1750 889 l 992 106 l 1200 106 "},"Ν":{"ha":1806,"x_min":97,"x_max":1708,"o":"m 1490 272 l 444 889 l 97 889 l 97 0 l 444 0 l 444 681 l 315 606 l 1361 0 l 1708 0 l 1708 889 l 1361 889 l 1361 199 l 1490 272 "},"Ξ":{"ha":1569,"x_min":83,"x_max":1486,"o":"m 83 889 l 83 625 l 1483 625 l 1483 889 l 83 889 m 83 264 l 83 0 l 1486 0 l 1486 264 l 83 264 m 275 514 l 275 375 l 1292 375 l 1292 514 l 275 514 "},"Ο":{"ha":1847,"x_min":83,"x_max":1764,"o":"m 924 -28 q 1411 26 1226 -28 q 1680 184 1596 79 q 1764 444 1764 289 q 1680 705 1764 600 q 1411 863 1596 810 q 924 917 1226 917 q 436 863 621 917 q 167 705 251 810 q 83 444 83 600 q 167 184 83 289 q 436 26 251 79 q 924 -28 621 -28 m 924 236 q 673 253 781 236 q 505 316 565 271 q 444 444 444 361 q 505 573 444 528 q 673 635 565 618 q 924 653 781 653 q 1171 635 1067 653 q 1332 573 1275 618 q 1389 444 1389 528 q 1332 316 1389 361 q 1171 253 1275 271 q 924 236 1067 236 "},"Π":{"ha":1778,"x_min":97,"x_max":1681,"o":"m 394 889 l 394 625 l 1372 625 l 1372 889 l 394 889 m 1333 889 l 1333 0 l 1681 0 l 1681 889 l 1333 889 m 97 889 l 97 0 l 444 0 l 444 889 l 97 889 "},"Ρ":{"ha":1635,"x_min":94,"x_max":1558,"o":"m 419 229 l 1058 229 q 1253 239 1163 229 q 1413 279 1344 249 q 1519 372 1481 310 q 1558 542 1558 435 q 1519 717 1558 649 q 1413 822 1481 785 q 1253 874 1344 860 q 1058 889 1163 889 l 94 889 l 94 0 l 442 0 l 442 611 l 1113 611 q 1183 599 1154 611 q 1211 542 1211 586 q 1183 485 1211 499 q 1113 472 1154 472 l 419 472 l 419 229 "},"Σ":{"ha":1564,"x_min":111,"x_max":1453,"o":"m 111 889 l 111 625 l 535 415 l 590 500 l 111 264 l 111 0 l 1453 0 l 1453 264 l 300 264 l 196 79 l 908 447 l 188 800 l 300 625 l 1439 625 l 1439 889 l 111 889 "},"Τ":{"ha":1528,"x_min":42,"x_max":1486,"o":"m 42 889 l 42 625 l 1486 625 l 1486 889 l 42 889 m 590 643 l 590 0 l 938 0 l 938 643 l 590 643 "},"Υ":{"ha":1486,"x_min":7,"x_max":1479,"o":"m 1479 889 l 1069 889 l 617 313 l 874 313 l 417 889 l 7 889 l 569 226 l 569 0 l 917 0 l 917 226 l 1479 889 "},"Φ":{"ha":1903,"x_min":83,"x_max":1819,"o":"m 951 97 q 1367 112 1200 97 q 1633 165 1533 126 q 1776 271 1733 203 q 1819 444 1819 339 q 1776 619 1819 551 q 1633 724 1733 686 q 1367 777 1533 763 q 951 792 1200 792 q 537 777 704 792 q 269 724 369 763 q 126 619 169 686 q 83 444 83 551 q 126 271 83 339 q 269 165 169 203 q 537 112 369 126 q 951 97 704 97 m 951 361 q 668 365 781 361 q 500 385 556 368 q 444 444 444 403 q 500 503 444 486 q 668 524 556 521 q 951 528 781 528 q 1231 524 1122 528 q 1392 503 1340 521 q 1444 444 1444 486 q 1392 385 1444 403 q 1231 365 1340 368 q 951 361 1122 361 m 778 889 l 778 0 l 1125 0 l 1125 889 l 778 889 "},"Χ":{"ha":1583,"x_min":42,"x_max":1542,"o":"m 1083 889 l 704 556 l 694 547 l 42 0 l 486 0 l 889 350 l 903 361 l 1528 889 l 1083 889 m 500 889 l 56 889 l 672 368 l 678 363 l 1097 0 l 1542 0 l 899 538 l 890 546 l 500 889 "},"Ψ":{"ha":1850,"x_min":85,"x_max":1765,"o":"m 1765 643 l 1765 889 l 1418 889 l 1418 643 q 1381 542 1418 575 q 1278 499 1344 510 q 1122 490 1213 489 q 925 490 1032 490 q 728 490 818 490 q 571 499 638 489 q 468 542 504 510 q 432 643 432 575 l 432 889 l 85 889 l 85 643 q 131 440 85 521 q 278 313 178 360 q 538 246 378 265 q 925 226 699 226 q 1313 246 1153 226 q 1572 313 1472 265 q 1719 440 1672 360 q 1765 643 1765 521 m 751 889 l 751 0 l 1099 0 l 1099 889 l 751 889 "},"Ω":{"ha":1750,"x_min":42,"x_max":1719,"o":"m 42 0 l 750 0 l 750 278 q 569 312 647 293 q 447 365 490 331 q 403 460 403 400 q 447 567 403 525 q 595 631 492 610 q 875 653 699 653 q 1155 631 1051 653 q 1303 567 1258 610 q 1347 460 1347 525 q 1305 368 1347 401 q 1187 315 1263 335 q 1011 278 1111 296 l 1011 0 l 1719 0 l 1719 264 l 1263 264 l 1263 278 q 1419 299 1342 282 q 1558 349 1496 315 q 1657 434 1619 382 q 1694 560 1694 486 q 1637 719 1694 651 q 1472 830 1579 786 q 1214 895 1365 874 q 875 917 1063 917 q 536 895 688 917 q 278 830 385 874 q 113 719 171 786 q 56 560 56 651 q 91 434 56 486 q 188 349 126 382 q 325 299 249 315 q 485 278 401 282 l 485 264 l 42 264 l 42 0 "},"Ά":{"ha":1864,"x_min":0,"x_max":1850,"o":"m 578 135 l 1528 135 l 1528 343 l 578 343 l 578 135 m 267 0 l 649 0 l 1160 796 l 953 796 l 1468 0 l 1850 0 l 1249 889 l 863 889 l 267 0 m 0 681 l 335 681 l 725 889 l 281 889 l 0 681 "},"Έ":{"ha":2267,"x_min":0,"x_max":2183,"o":"m 1128 375 l 1989 375 l 1989 514 l 1128 514 l 1128 625 l 2181 625 l 2181 889 l 781 889 l 781 0 l 2183 0 l 2183 264 l 1128 264 l 1128 375 m 0 681 l 335 681 l 725 889 l 281 889 l 0 681 "},"Ή":{"ha":2461,"x_min":0,"x_max":2364,"o":"m 1078 582 l 1078 318 l 2056 318 l 2056 582 l 1078 582 m 2017 889 l 2017 0 l 2364 0 l 2364 889 l 2017 889 m 781 889 l 781 0 l 1128 0 l 1128 889 l 781 889 m 0 681 l 335 681 l 725 889 l 281 889 l 0 681 "},"Ί":{"ha":1267,"x_min":0,"x_max":1149,"o":"m 801 889 l 801 0 l 1149 0 l 1149 889 l 801 889 m 0 681 l 335 681 l 725 889 l 281 889 l 0 681 "},"Ό":{"ha":2399,"x_min":0,"x_max":2315,"o":"m 1475 -28 q 1963 26 1778 -28 q 2231 184 2147 79 q 2315 444 2315 289 q 2231 705 2315 600 q 1963 863 2147 810 q 1475 917 1778 917 q 988 863 1172 917 q 719 705 803 810 q 635 444 635 600 q 719 184 635 289 q 988 26 803 79 q 1475 -28 1172 -28 m 1475 236 q 1224 253 1332 236 q 1056 316 1117 271 q 996 444 996 361 q 1056 573 996 528 q 1224 635 1117 618 q 1475 653 1332 653 q 1722 635 1618 653 q 1883 573 1826 618 q 1940 444 1940 528 q 1883 316 1940 361 q 1722 253 1826 271 q 1475 236 1618 236 m 0 681 l 335 681 l 725 889 l 281 889 l 0 681 "},"Ύ":{"ha":2211,"x_min":0,"x_max":2204,"o":"m 2204 889 l 1794 889 l 1342 313 l 1599 313 l 1142 889 l 732 889 l 1294 226 l 1294 0 l 1642 0 l 1642 226 l 2204 889 m 0 681 l 335 681 l 725 889 l 281 889 l 0 681 "},"Ώ":{"ha":2239,"x_min":0,"x_max":2208,"o":"m 531 0 l 1239 0 l 1239 278 q 1058 312 1136 293 q 935 365 979 331 q 892 460 892 400 q 936 567 892 525 q 1084 631 981 610 q 1364 653 1188 653 q 1644 631 1540 653 q 1792 567 1747 610 q 1836 460 1836 525 q 1794 368 1836 401 q 1676 315 1751 335 q 1500 278 1600 296 l 1500 0 l 2208 0 l 2208 264 l 1751 264 l 1751 278 q 1908 299 1831 282 q 2047 349 1985 315 q 2146 434 2108 382 q 2183 560 2183 486 q 2126 719 2183 651 q 1961 830 2068 786 q 1703 895 1854 874 q 1364 917 1551 917 q 1025 895 1176 917 q 767 830 874 874 q 602 719 660 786 q 544 560 544 651 q 580 434 544 486 q 676 349 615 382 q 814 299 738 315 q 974 278 890 282 l 974 264 l 531 264 l 531 0 m 0 681 l 335 681 l 725 889 l 281 889 l 0 681 "},"Ϊ":{"ha":583,"x_min":-96,"x_max":679,"o":"m 118 889 l 118 0 l 465 0 l 465 889 l 118 889 m 257 1171 l -96 1171 l -96 961 l 257 961 l 257 1171 m 679 1171 l 326 1171 l 326 961 l 679 961 l 679 1171 "},"Ϋ":{"ha":1486,"x_min":7,"x_max":1479,"o":"m 1479 889 l 1069 889 l 617 313 l 874 313 l 417 889 l 7 889 l 569 226 l 569 0 l 917 0 l 917 226 l 1479 889 m 708 1171 l 356 1171 l 356 961 l 708 961 l 708 1171 m 1131 1171 l 778 1171 l 778 961 l 1131 961 l 1131 1171 "},"α":{"ha":1476,"x_min":49,"x_max":1414,"o":"m 567 -19 q 792 6 692 -19 q 963 80 892 32 q 1071 194 1033 128 q 1108 340 1108 260 q 1042 530 1108 449 q 855 656 976 611 q 567 701 733 701 q 300 661 417 701 q 116 540 183 621 q 49 340 49 460 q 116 146 49 226 q 300 23 183 65 q 567 -19 417 -19 m 692 192 q 531 208 597 192 q 429 258 464 225 q 394 340 394 292 q 472 452 394 415 q 692 489 550 489 q 885 476 797 489 q 1027 432 974 464 q 1081 340 1081 400 q 1027 250 1081 282 q 885 205 974 218 q 692 192 797 192 m 1081 681 l 1081 264 q 1085 126 1081 183 q 1094 38 1089 69 q 1100 0 1099 6 l 1414 0 l 1414 681 l 1081 681 "},"β":{"ha":1476,"x_min":63,"x_max":1413,"o":"m 1413 264 q 1373 387 1413 336 q 1253 464 1333 438 q 1047 494 1172 490 q 1233 523 1165 496 q 1330 596 1301 550 q 1358 703 1358 642 q 1197 911 1358 843 q 717 979 1036 979 q 342 939 486 979 q 130 802 197 899 q 63 536 63 706 l 63 271 l 368 340 q 406 193 368 260 q 514 78 443 126 q 685 5 585 31 q 910 -21 785 -21 q 1173 6 1060 -21 q 1349 96 1286 33 q 1413 264 1413 158 m 833 532 l 554 532 l 554 442 l 875 442 q 979 432 932 442 q 1054 397 1026 422 q 1082 326 1082 371 q 1010 222 1082 251 q 785 192 938 192 q 591 204 679 192 q 449 249 503 217 q 396 340 396 282 l 396 578 q 422 686 396 647 q 492 742 447 725 q 594 764 536 760 q 715 768 651 768 q 883 758 817 768 q 981 719 949 747 q 1013 633 1013 690 q 960 552 1013 572 q 833 532 907 532 m 63 285 l 63 -278 l 396 -278 l 396 350 l 351 350 l 63 285 "},"γ":{"ha":1275,"x_min":7,"x_max":1268,"o":"m 460 69 l 460 -278 l 793 -278 l 793 69 l 460 69 m 708 125 l 374 681 l 7 681 l 469 0 l 783 0 l 1268 681 l 900 681 l 550 128 l 708 125 "},"δ":{"ha":1436,"x_min":49,"x_max":1374,"o":"m 692 -21 q 889 -10 790 -21 q 1074 24 988 0 q 1228 90 1161 49 q 1335 192 1296 131 q 1374 338 1374 253 q 1319 497 1374 417 q 1147 644 1264 578 q 840 751 1029 711 q 383 792 651 792 l 226 750 q 543 712 393 740 q 813 639 693 683 q 1010 535 933 594 q 1104 403 1086 476 l 1124 381 q 1038 476 1097 432 q 898 551 979 519 q 724 601 817 583 q 539 618 632 618 q 292 585 404 618 q 115 485 181 553 q 49 311 49 417 q 124 124 49 197 q 342 15 199 50 q 692 -21 486 -21 m 719 192 q 545 200 618 192 q 433 234 472 208 q 394 311 394 260 q 433 383 394 358 q 541 417 471 408 q 706 426 611 426 q 823 423 758 426 q 947 408 888 419 q 1044 373 1006 397 q 1082 307 1082 349 q 1042 241 1082 267 q 922 203 1003 215 q 719 192 842 192 m 1306 958 l 222 958 l 222 750 l 1306 750 l 1306 958 "},"ε":{"ha":1385,"x_min":63,"x_max":1350,"o":"m 713 -21 q 986 0 874 -21 q 1172 59 1099 21 q 1287 151 1244 97 q 1350 268 1329 204 l 1044 268 q 976 219 1022 239 q 863 190 929 200 q 713 181 796 181 q 567 188 632 181 q 463 210 501 194 q 424 253 424 226 q 447 288 424 278 q 510 300 471 299 q 600 301 550 301 l 921 301 l 921 390 l 600 390 q 512 392 550 390 q 452 401 474 393 q 431 429 431 410 q 504 483 431 467 q 713 500 578 500 q 863 490 796 500 q 975 462 929 481 q 1043 414 1021 443 l 1349 414 q 1250 563 1319 499 q 1051 665 1181 628 q 713 701 921 701 q 370 676 513 701 q 151 600 228 650 q 75 478 75 550 q 106 406 75 432 q 187 367 136 379 q 297 350 238 354 q 414 346 357 346 q 289 333 351 342 q 176 307 226 325 q 94 258 125 289 q 63 178 63 228 q 143 56 63 100 q 369 -4 224 13 q 713 -21 515 -21 "},"ζ":{"ha":1139,"x_min":63,"x_max":1153,"o":"m 1153 750 l 1014 785 q 815 765 921 778 q 601 729 708 751 q 398 673 494 707 q 226 589 301 639 q 106 470 150 539 q 63 311 63 401 q 92 158 63 218 q 169 65 121 99 q 279 16 218 32 q 406 -6 340 0 q 532 -16 471 -12 q 642 -30 593 -19 q 719 -65 690 -40 q 749 -136 749 -89 l 749 -278 l 1082 -278 l 1082 -136 q 1053 16 1082 -42 q 975 105 1024 74 q 866 150 926 136 q 742 169 806 164 q 617 178 678 174 q 508 198 557 183 q 431 245 460 213 q 403 339 403 278 q 438 458 403 401 q 556 565 472 514 q 785 662 639 615 q 1153 750 931 708 m 1153 958 l 139 958 l 139 750 l 1153 750 l 1153 958 "},"η":{"ha":1386,"x_min":63,"x_max":1324,"o":"m 63 681 l 63 0 l 396 0 l 396 681 l 63 681 m 896 701 q 670 669 765 701 q 513 592 575 638 q 417 501 450 546 q 379 431 385 456 l 382 378 q 469 423 414 400 q 595 463 525 446 q 740 479 665 479 q 936 435 882 479 q 990 288 990 392 l 990 -278 l 1324 -278 l 1324 329 q 1288 511 1324 439 q 1191 625 1251 583 q 1054 684 1131 667 q 896 701 978 701 "},"θ":{"ha":1500,"x_min":63,"x_max":1438,"o":"m 757 -28 q 1141 34 990 -28 q 1365 210 1292 96 q 1438 479 1438 324 q 1365 749 1438 635 q 1141 924 1292 863 q 757 986 990 986 q 369 924 524 986 q 139 749 215 863 q 63 479 63 635 q 139 210 63 324 q 369 34 215 96 q 757 -28 524 -28 m 757 174 q 574 198 644 174 q 467 264 504 222 q 417 361 431 306 q 403 479 403 417 q 417 597 403 542 q 467 694 431 653 q 574 760 504 736 q 757 785 644 785 q 938 760 869 785 q 1040 694 1006 736 q 1085 597 1074 653 q 1097 479 1097 542 q 1085 361 1097 417 q 1040 264 1074 306 q 938 198 1006 222 q 757 174 869 174 m 368 549 l 368 410 l 1132 410 l 1132 549 l 368 549 "},"ι":{"ha":576,"x_min":63,"x_max":521,"o":"m 521 0 l 521 236 q 429 246 463 226 q 396 319 396 265 l 396 681 l 63 681 l 63 236 q 106 92 63 153 q 249 6 149 32 q 521 0 350 -21 "},"κ":{"ha":1294,"x_min":63,"x_max":1288,"o":"m 63 681 l 63 0 l 396 0 l 396 681 l 63 681 m 1240 681 l 799 681 l 401 388 l 865 0 l 1288 0 l 697 479 l 690 299 l 1240 681 "},"λ":{"ha":1275,"x_min":7,"x_max":1268,"o":"m 532 556 l 900 0 l 1268 0 l 806 681 l 492 681 l 7 0 l 375 0 l 718 556 l 532 556 m 438 958 l 160 958 l 160 750 l 342 750 q 412 734 389 750 q 450 694 435 718 l 515 594 l 806 681 l 689 833 q 588 926 644 893 q 438 958 532 958 "},"μ":{"ha":1476,"x_min":63,"x_max":1449,"o":"m 1449 0 l 1449 264 q 1382 269 1410 264 q 1339 293 1354 275 q 1324 347 1324 311 l 1324 681 l 990 681 l 990 236 q 1033 107 990 160 q 1177 27 1076 54 q 1449 0 1278 0 m 1004 351 q 928 285 978 319 q 810 226 878 250 q 660 201 742 201 q 526 219 586 201 q 431 283 467 236 q 396 421 396 331 l 396 681 l 63 681 l 63 -278 l 396 -278 l 396 240 l 358 186 q 453 29 383 79 q 643 -21 522 -21 q 781 1 722 -21 q 881 59 840 24 q 949 136 922 94 q 989 217 975 178 q 1007 285 1003 256 l 1004 351 "},"ν":{"ha":1275,"x_min":7,"x_max":1268,"o":"m 708 125 l 374 681 l 7 681 l 469 0 l 783 0 l 1268 681 l 900 681 l 550 128 l 708 125 "},"ξ":{"ha":1097,"x_min":63,"x_max":1097,"o":"m 63 235 q 100 113 63 157 q 199 46 138 68 q 333 14 260 24 q 478 -1 406 4 q 613 -18 551 -7 q 711 -56 674 -29 q 749 -136 749 -83 l 749 -278 l 1082 -278 l 1082 -136 q 1053 14 1082 -44 q 975 106 1024 72 q 866 155 926 139 q 742 177 806 171 q 617 188 678 183 q 508 202 557 192 q 431 236 460 213 q 403 304 403 260 q 423 367 403 343 q 483 401 443 390 q 586 413 524 413 l 935 413 l 935 501 l 586 501 q 505 510 536 501 q 459 538 474 519 q 444 582 444 556 q 459 631 444 611 q 513 664 474 650 q 626 690 553 678 q 814 717 699 703 q 1097 750 929 731 l 944 761 q 766 753 861 756 q 574 748 671 751 q 391 736 478 744 q 236 710 304 728 q 128 664 168 693 q 89 589 89 635 q 119 511 89 539 q 201 472 150 483 q 311 459 251 461 q 428 457 371 457 q 301 442 365 453 q 183 406 236 431 q 96 341 129 382 q 63 235 63 300 m 1097 958 l 97 958 l 97 750 l 1097 750 l 1097 958 "},"ο":{"ha":1411,"x_min":49,"x_max":1363,"o":"m 708 -21 q 1073 15 928 -21 q 1290 131 1218 51 q 1363 339 1363 210 q 1290 548 1363 468 q 1073 665 1218 628 q 708 701 928 701 q 341 665 488 701 q 122 548 194 628 q 49 339 49 468 q 122 131 49 210 q 341 15 194 51 q 708 -21 488 -21 m 708 181 q 533 198 604 181 q 425 251 461 215 q 389 339 389 286 q 426 428 389 393 q 534 482 463 464 q 708 500 606 500 q 882 482 813 500 q 987 428 951 464 q 1022 339 1022 392 q 986 251 1022 286 q 881 198 950 215 q 708 181 811 181 "},"π":{"ha":1583,"x_min":69,"x_max":1514,"o":"m 306 528 l 306 0 l 639 0 l 639 528 l 306 528 m 1514 681 l 69 681 l 69 472 l 1514 472 l 1514 681 m 1278 332 l 1278 528 l 958 528 l 958 304 q 978 150 958 217 q 1054 43 997 83 q 1222 -9 1111 3 q 1514 0 1332 -21 l 1514 236 q 1374 228 1425 222 q 1300 260 1322 233 q 1278 332 1278 286 "},"ρ":{"ha":1476,"x_min":63,"x_max":1428,"o":"m 910 -21 q 1177 19 1060 -21 q 1361 140 1294 60 q 1428 340 1428 221 q 1353 535 1428 454 q 1135 658 1278 615 q 786 700 992 700 q 374 655 535 700 q 138 515 214 610 q 63 271 63 419 l 368 340 q 406 193 368 260 q 514 78 443 126 q 685 5 585 31 q 910 -21 785 -21 m 785 192 q 591 204 679 192 q 449 249 503 217 q 396 340 396 282 q 449 431 396 399 q 591 476 503 464 q 785 489 679 489 q 1004 451 926 489 q 1082 340 1082 414 q 1047 258 1082 290 q 946 208 1013 225 q 785 192 879 192 m 63 271 l 63 -278 l 396 -278 l 396 340 l 351 350 l 63 271 "},"ς":{"ha":1381,"x_min":49,"x_max":1331,"o":"m 389 339 q 430 436 389 401 q 546 485 471 471 q 722 500 621 500 q 925 470 847 500 q 1025 386 1003 440 l 1331 386 q 1267 556 1329 485 q 1071 664 1204 626 q 722 701 938 701 q 356 666 507 701 q 127 551 206 631 q 49 339 49 471 q 83 173 49 238 q 175 72 117 108 q 306 17 233 35 q 454 -8 378 -1 q 603 -18 531 -14 q 733 -32 675 -22 q 826 -65 792 -42 q 860 -136 860 -89 l 860 -278 l 1193 -278 l 1193 -136 q 1159 16 1193 -42 q 1067 105 1125 74 q 938 150 1010 136 q 790 169 867 164 q 642 178 714 174 q 514 198 571 183 q 423 245 457 213 q 389 339 389 278 "},"σ":{"ha":1411,"x_min":49,"x_max":1411,"o":"m 708 -21 q 1073 17 928 -21 q 1290 119 1218 56 q 1363 257 1363 182 q 1326 352 1363 313 q 1228 418 1289 392 q 1093 460 1167 444 q 946 482 1019 475 q 809 491 872 489 q 708 493 746 493 l 708 681 q 341 649 488 681 q 122 542 194 617 q 49 339 49 468 q 122 131 49 210 q 341 15 194 51 q 708 -21 488 -21 m 708 181 q 533 198 604 181 q 425 251 461 215 q 389 339 389 286 q 426 422 389 393 q 534 461 463 450 q 708 472 606 472 q 882 458 813 472 q 987 415 951 444 q 1022 339 1022 385 q 986 251 1022 286 q 881 198 950 215 q 708 181 811 181 m 1411 681 l 708 681 l 708 472 l 1411 472 l 1411 681 "},"τ":{"ha":903,"x_min":69,"x_max":833,"o":"m 833 681 l 69 681 l 69 472 l 833 472 l 833 681 m 597 332 l 597 528 l 278 528 l 278 304 q 297 150 278 217 q 374 43 317 83 q 541 -9 431 3 q 833 0 651 -21 l 833 236 q 693 228 744 222 q 619 260 642 233 q 597 332 597 286 "},"υ":{"ha":1383,"x_min":63,"x_max":1321,"o":"m 1321 681 l 1321 367 q 1256 145 1321 231 q 1052 19 1190 60 q 694 -21 914 -21 q 213 71 364 -21 q 63 367 63 163 l 63 681 l 403 681 l 403 367 q 470 228 403 276 q 694 181 538 181 q 914 228 847 181 q 981 367 981 276 l 981 681 l 1321 681 "},"φ":{"ha":1717,"x_min":49,"x_max":1668,"o":"m 1668 340 q 1624 167 1668 235 q 1501 60 1579 99 q 1321 5 1424 22 q 1101 -17 1218 -12 q 861 -21 983 -21 q 622 -17 739 -21 q 401 5 504 -12 q 218 60 297 22 q 94 167 139 99 q 49 340 49 235 q 94 514 49 446 q 218 620 139 582 q 401 676 297 658 q 622 697 504 693 q 861 701 740 701 q 1101 697 983 701 q 1320 676 1218 693 q 1501 620 1422 658 q 1624 514 1579 582 q 1668 340 1668 446 m 390 340 q 433 241 390 275 q 578 194 476 207 q 861 181 681 181 q 1140 194 1039 181 q 1284 241 1242 207 q 1326 340 1326 275 q 1284 440 1326 406 q 1140 487 1242 474 q 861 500 1039 500 q 578 487 681 500 q 433 440 476 474 q 390 340 390 406 m 1025 -278 l 692 -278 l 692 958 l 1025 958 l 1025 -278 "},"χ":{"ha":1361,"x_min":14,"x_max":1347,"o":"m 1319 681 l 925 681 l 564 278 l 14 -278 l 408 -278 l 778 142 l 1319 681 m 14 681 l 560 126 l 953 -278 l 1347 -278 l 786 288 l 408 681 l 14 681 "},"ψ":{"ha":1633,"x_min":63,"x_max":1571,"o":"m 1571 681 l 1571 408 q 1532 208 1571 290 q 1406 76 1493 126 q 1175 2 1319 25 q 819 -21 1031 -21 q 462 2 607 -21 q 228 76 317 25 q 101 208 140 126 q 63 408 63 290 l 63 681 l 403 681 l 403 408 q 438 277 403 328 q 563 203 472 226 q 819 181 653 181 q 1074 203 985 181 q 1197 277 1163 226 q 1231 408 1231 328 l 1231 681 l 1571 681 m 983 -278 l 650 -278 l 650 681 l 983 681 l 983 -278 "},"ω":{"ha":2051,"x_min":49,"x_max":2003,"o":"m 1454 -21 q 1768 19 1647 -21 q 1946 138 1889 58 q 2003 340 2003 218 q 1944 542 2003 463 q 1752 662 1885 622 q 1399 701 1619 701 l 1399 500 q 1561 479 1504 500 q 1640 423 1618 458 q 1663 340 1663 388 q 1642 258 1663 294 q 1569 201 1621 222 q 1426 181 1518 181 q 1288 202 1339 181 q 1217 265 1238 224 q 1196 367 1196 307 l 1196 472 l 1008 472 l 1008 367 q 1051 145 1008 231 q 1192 19 1094 60 q 1454 -21 1290 -21 m 597 -21 q 859 19 761 -21 q 1000 145 957 60 q 1043 367 1043 231 l 1043 472 l 856 472 l 856 367 q 835 265 856 307 q 764 202 814 224 q 625 181 714 181 q 483 201 535 181 q 410 258 431 222 q 389 340 389 294 q 411 423 389 388 q 491 479 433 458 q 653 500 549 500 l 653 701 q 299 662 432 701 q 108 542 167 622 q 49 340 49 463 q 106 138 49 218 q 283 19 163 58 q 597 -21 404 -21 "},"ί":{"ha":576,"x_min":39,"x_max":764,"o":"m 521 0 l 521 236 q 429 246 463 226 q 396 319 396 265 l 396 681 l 63 681 l 63 236 q 106 92 63 153 q 249 6 149 32 q 521 0 350 -21 m 39 836 l 374 836 l 764 1044 l 319 1044 l 39 836 "},"ϊ":{"ha":576,"x_min":-149,"x_max":626,"o":"m 521 0 l 521 236 q 429 246 463 226 q 396 319 396 265 l 396 681 l 63 681 l 63 236 q 106 92 63 153 q 249 6 149 32 q 521 0 350 -21 m 204 1046 l -149 1046 l -149 836 l 204 836 l 204 1046 m 626 1046 l 274 1046 l 274 836 l 626 836 l 626 1046 "},"ΐ":{"ha":576,"x_min":-407,"x_max":1049,"o":"m 521 0 l 521 236 q 429 246 463 226 q 396 319 396 265 l 396 681 l 63 681 l 63 236 q 106 92 63 153 q 249 6 149 32 q 521 0 350 -21 m -54 1046 l -407 1046 l -407 836 l -54 836 l -54 1046 m 1049 1046 l 696 1046 l 696 836 l 1049 836 l 1049 1046 m -42 836 l 293 836 l 683 1046 l 239 1046 l -42 836 "},"ύ":{"ha":1383,"x_min":63,"x_max":1321,"o":"m 1321 681 l 1321 367 q 1256 145 1321 231 q 1052 19 1190 60 q 694 -21 914 -21 q 213 71 364 -21 q 63 367 63 163 l 63 681 l 403 681 l 403 367 q 470 228 403 276 q 694 181 538 181 q 914 228 847 181 q 981 367 981 276 l 981 681 l 1321 681 m 504 836 l 839 836 l 1229 1044 l 785 1044 l 504 836 "},"ϋ":{"ha":1383,"x_min":63,"x_max":1321,"o":"m 1321 681 l 1321 367 q 1256 145 1321 231 q 1052 19 1190 60 q 694 -21 914 -21 q 213 71 364 -21 q 63 367 63 163 l 63 681 l 403 681 l 403 367 q 470 228 403 276 q 694 181 538 181 q 914 228 847 181 q 981 367 981 276 l 981 681 l 1321 681 m 657 1046 l 304 1046 l 304 836 l 657 836 l 657 1046 m 1079 1046 l 726 1046 l 726 836 l 1079 836 l 1079 1046 "},"ΰ":{"ha":1383,"x_min":-37,"x_max":1418,"o":"m 1321 681 l 1321 367 q 1256 145 1321 231 q 1052 19 1190 60 q 694 -21 914 -21 q 213 71 364 -21 q 63 367 63 163 l 63 681 l 403 681 l 403 367 q 470 228 403 276 q 694 181 538 181 q 914 228 847 181 q 981 367 981 276 l 981 681 l 1321 681 m 315 1046 l -37 1046 l -37 836 l 315 836 l 315 1046 m 1418 1046 l 1065 1046 l 1065 836 l 1418 836 l 1418 1046 m 328 836 l 663 836 l 1053 1046 l 608 1046 l 328 836 "},"ό":{"ha":1411,"x_min":49,"x_max":1363,"o":"m 708 -21 q 1073 15 928 -21 q 1290 131 1218 51 q 1363 339 1363 210 q 1290 548 1363 468 q 1073 665 1218 628 q 708 701 928 701 q 341 665 488 701 q 122 548 194 628 q 49 339 49 468 q 122 131 49 210 q 341 15 194 51 q 708 -21 488 -21 m 708 181 q 533 198 604 181 q 425 251 461 215 q 389 339 389 286 q 426 428 389 393 q 534 482 463 464 q 708 500 606 500 q 882 482 813 500 q 987 428 951 464 q 1022 339 1022 392 q 986 251 1022 286 q 881 198 950 215 q 708 181 811 181 m 518 836 l 853 836 l 1243 1044 l 799 1044 l 518 836 "},"ώ":{"ha":2051,"x_min":49,"x_max":2003,"o":"m 1454 -21 q 1768 19 1647 -21 q 1946 138 1889 58 q 2003 340 2003 218 q 1944 542 2003 463 q 1752 662 1885 622 q 1399 701 1619 701 l 1399 500 q 1561 479 1504 500 q 1640 423 1618 458 q 1663 340 1663 388 q 1642 258 1663 294 q 1569 201 1621 222 q 1426 181 1518 181 q 1288 202 1339 181 q 1217 265 1238 224 q 1196 367 1196 307 l 1196 472 l 1008 472 l 1008 367 q 1051 145 1008 231 q 1192 19 1094 60 q 1454 -21 1290 -21 m 597 -21 q 859 19 761 -21 q 1000 145 957 60 q 1043 367 1043 231 l 1043 472 l 856 472 l 856 367 q 835 265 856 307 q 764 202 814 224 q 625 181 714 181 q 483 201 535 181 q 410 258 431 222 q 389 340 389 294 q 411 423 389 388 q 491 479 433 458 q 653 500 549 500 l 653 701 q 299 662 432 701 q 108 542 167 622 q 49 340 49 463 q 106 138 49 218 q 283 19 163 58 q 597 -21 404 -21 m 826 836 l 1161 836 l 1551 1044 l 1107 1044 l 826 836 "},"ά":{"ha":1476,"x_min":49,"x_max":1414,"o":"m 567 -19 q 792 6 692 -19 q 963 80 892 32 q 1071 194 1033 128 q 1108 340 1108 260 q 1042 530 1108 449 q 855 656 976 611 q 567 701 733 701 q 300 661 417 701 q 116 540 183 621 q 49 340 49 460 q 116 146 49 226 q 300 23 183 65 q 567 -19 417 -19 m 692 192 q 531 208 597 192 q 429 258 464 225 q 394 340 394 292 q 472 452 394 415 q 692 489 550 489 q 885 476 797 489 q 1027 432 974 464 q 1081 340 1081 400 q 1027 250 1081 282 q 885 205 974 218 q 692 192 797 192 m 1081 681 l 1081 264 q 1085 126 1081 183 q 1094 38 1089 69 q 1100 0 1099 6 l 1414 0 l 1414 681 l 1081 681 m 474 833 l 808 833 l 1199 1042 l 754 1042 l 474 833 "},"έ":{"ha":1385,"x_min":63,"x_max":1350,"o":"m 713 -21 q 986 0 874 -21 q 1172 59 1099 21 q 1287 151 1244 97 q 1350 268 1329 204 l 1044 268 q 976 219 1022 239 q 863 190 929 200 q 713 181 796 181 q 567 188 632 181 q 463 210 501 194 q 424 253 424 226 q 447 288 424 278 q 510 300 471 299 q 600 301 550 301 l 921 301 l 921 390 l 600 390 q 512 392 550 390 q 452 401 474 393 q 431 429 431 410 q 504 483 431 467 q 713 500 578 500 q 863 490 796 500 q 975 462 929 481 q 1043 414 1021 443 l 1349 414 q 1250 563 1319 499 q 1051 665 1181 628 q 713 701 921 701 q 370 676 513 701 q 151 600 228 650 q 75 478 75 550 q 106 406 75 432 q 187 367 136 379 q 297 350 238 354 q 414 346 357 346 q 289 333 351 342 q 176 307 226 325 q 94 258 125 289 q 63 178 63 228 q 143 56 63 100 q 369 -4 224 13 q 713 -21 515 -21 m 519 836 l 854 836 l 1244 1044 l 800 1044 l 519 836 "},"ή":{"ha":1386,"x_min":63,"x_max":1324,"o":"m 63 681 l 63 0 l 396 0 l 396 681 l 63 681 m 896 701 q 670 669 765 701 q 513 592 575 638 q 417 501 450 546 q 379 431 385 456 l 382 378 q 469 423 414 400 q 595 463 525 446 q 740 479 665 479 q 936 435 882 479 q 990 288 990 392 l 990 -278 l 1324 -278 l 1324 329 q 1288 511 1324 439 q 1191 625 1251 583 q 1054 684 1131 667 q 896 701 978 701 m 572 836 l 907 836 l 1297 1044 l 853 1044 l 572 836 "},"⁄":{"ha":117,"x_min":-236,"x_max":367,"o":"m 292 972 l -236 17 l -164 -28 l 367 931 l 292 972 "},"½":{"ha":2032,"x_min":35,"x_max":1976,"o":"m 35 333 l 832 333 l 832 521 l 596 521 l 596 892 l 35 892 l 35 704 l 318 704 l 318 521 l 35 521 l 35 333 m 1263 972 l 735 17 l 807 -28 l 1338 931 l 1263 972 m 1961 0 l 1961 193 l 1469 179 l 1658 201 q 1833 235 1763 215 q 1940 290 1904 254 q 1976 389 1976 326 q 1924 502 1976 461 q 1783 560 1872 543 q 1579 578 1693 578 q 1323 540 1421 578 q 1181 442 1225 503 q 1136 311 1136 381 l 1378 311 q 1435 351 1389 333 q 1588 368 1482 368 q 1701 321 1701 368 q 1693 295 1701 307 q 1657 271 1685 283 q 1572 245 1629 258 q 1416 216 1514 232 q 1169 179 1318 200 l 1169 0 l 1961 0 "},"↉":{"ha":2065,"x_min":49,"x_max":2017,"o":"m 500 915 q 251 881 351 915 q 99 779 150 847 q 49 610 49 711 q 99 442 49 510 q 251 340 150 374 q 500 306 351 306 q 749 340 649 306 q 901 442 850 374 q 951 610 951 510 q 901 779 951 711 q 749 881 850 847 q 500 915 649 915 m 500 510 q 368 534 411 510 q 325 610 325 558 q 369 683 325 660 q 500 707 413 707 q 627 683 586 707 q 668 610 668 660 q 627 534 668 558 q 500 510 586 510 m 1292 972 l 764 17 l 836 -28 l 1367 931 l 1292 972 m 1754 265 q 1933 306 1864 272 q 2001 406 2001 339 q 1898 534 2001 490 q 1583 578 1794 578 q 1376 553 1471 578 q 1225 476 1282 529 q 1168 335 1168 422 l 1365 335 q 1426 362 1368 350 q 1589 374 1483 374 q 1719 365 1685 374 q 1753 336 1753 356 q 1718 303 1753 314 q 1589 293 1683 293 l 1400 293 l 1400 238 l 1589 238 q 1719 232 1675 238 q 1764 199 1764 226 q 1724 164 1764 171 q 1589 157 1683 157 q 1424 167 1481 157 q 1364 203 1367 176 l 1165 203 q 1215 72 1165 122 q 1360 -3 1264 21 q 1593 -28 1456 -28 q 1906 13 1796 -28 q 2017 147 2017 54 q 1983 226 2017 201 q 1891 257 1950 250 q 1754 265 1832 264 "},"⅓":{"ha":2036,"x_min":35,"x_max":1988,"o":"m 35 333 l 832 333 l 832 521 l 596 521 l 596 892 l 35 892 l 35 704 l 318 704 l 318 521 l 35 521 l 35 333 m 1263 972 l 735 17 l 807 -28 l 1338 931 l 1263 972 m 1725 265 q 1903 306 1835 272 q 1972 406 1972 339 q 1869 534 1972 490 q 1554 578 1765 578 q 1347 553 1442 578 q 1196 476 1253 529 q 1139 335 1139 422 l 1336 335 q 1397 362 1339 350 q 1560 374 1454 374 q 1690 365 1656 374 q 1724 336 1724 356 q 1689 303 1724 314 q 1560 293 1654 293 l 1371 293 l 1371 238 l 1560 238 q 1690 232 1646 238 q 1735 199 1735 226 q 1694 164 1735 171 q 1560 157 1654 157 q 1394 167 1451 157 q 1335 203 1338 176 l 1136 203 q 1185 72 1136 122 q 1331 -3 1235 21 q 1564 -28 1426 -28 q 1877 13 1767 -28 q 1988 147 1988 54 q 1954 226 1988 201 q 1862 257 1921 250 q 1725 265 1803 264 "},"⅔":{"ha":2107,"x_min":49,"x_max":2058,"o":"m 874 333 l 874 526 l 382 513 l 571 535 q 746 568 675 549 q 853 624 817 588 q 889 722 889 660 q 837 835 889 794 q 695 894 785 876 q 492 911 606 911 q 235 874 333 911 q 93 775 138 836 q 49 644 49 714 l 290 644 q 348 684 301 667 q 500 701 394 701 q 614 654 614 701 q 606 628 614 640 q 569 604 597 617 q 484 578 542 592 q 328 549 426 565 q 82 513 231 533 l 82 333 l 874 333 m 1333 972 l 806 17 l 878 -28 l 1408 931 l 1333 972 m 1796 265 q 1974 306 1906 272 q 2043 406 2043 339 q 1940 534 2043 490 q 1625 578 1836 578 q 1418 553 1513 578 q 1267 476 1324 529 q 1210 335 1210 422 l 1407 335 q 1467 362 1410 350 q 1631 374 1525 374 q 1760 365 1726 374 q 1794 336 1794 356 q 1760 303 1794 314 q 1631 293 1725 293 l 1442 293 l 1442 238 l 1631 238 q 1761 232 1717 238 q 1806 199 1806 226 q 1765 164 1806 171 q 1631 157 1725 157 q 1465 167 1522 157 q 1406 203 1408 176 l 1207 203 q 1256 72 1207 122 q 1401 -3 1306 21 q 1635 -28 1497 -28 q 1948 13 1838 -28 q 2058 147 2058 54 q 2025 226 2058 201 q 1933 257 1992 250 q 1796 265 1874 264 "},"¼":{"ha":1939,"x_min":35,"x_max":1897,"o":"m 35 333 l 832 333 l 832 521 l 596 521 l 596 892 l 35 892 l 35 704 l 318 704 l 318 521 l 35 521 l 35 333 m 1263 972 l 735 17 l 807 -28 l 1338 931 l 1263 972 m 1496 0 l 1788 0 l 1788 88 l 1897 88 l 1897 240 l 1788 240 l 1788 557 l 1544 557 l 1074 271 l 1074 88 l 1496 88 l 1496 0 m 1329 222 l 1510 367 l 1510 222 l 1329 222 "},"¾":{"ha":1972,"x_min":49,"x_max":1931,"o":"m 638 599 q 816 639 747 606 q 885 739 885 672 q 781 867 885 824 q 467 911 678 911 q 260 887 354 911 q 108 809 165 863 q 51 668 51 756 l 249 668 q 309 695 251 683 q 472 707 367 707 q 602 698 568 707 q 636 669 636 689 q 601 637 636 647 q 472 626 567 626 l 283 626 l 283 571 l 472 571 q 603 565 558 571 q 647 532 647 560 q 607 497 647 504 q 472 490 567 490 q 307 500 364 490 q 247 536 250 510 l 49 536 q 98 405 49 456 q 243 330 147 354 q 476 306 339 306 q 790 347 679 306 q 900 481 900 388 q 867 559 900 535 q 774 590 833 583 q 638 599 715 597 m 1296 972 l 768 17 l 840 -28 l 1371 931 l 1296 972 m 1529 0 l 1821 0 l 1821 88 l 1931 88 l 1931 240 l 1821 240 l 1821 557 l 1578 557 l 1107 271 l 1107 88 l 1529 88 l 1529 0 m 1363 222 l 1543 367 l 1543 222 l 1363 222 "},"⅕":{"ha":2025,"x_min":35,"x_max":1956,"o":"m 35 333 l 832 333 l 832 521 l 596 521 l 596 892 l 35 892 l 35 704 l 318 704 l 318 521 l 35 521 l 35 333 m 1263 972 l 735 17 l 807 -28 l 1338 931 l 1263 972 m 1678 328 q 1506 315 1581 328 q 1375 269 1432 303 l 1383 378 l 1890 378 l 1890 558 l 1218 558 l 1199 267 l 1364 219 q 1394 220 1364 219 q 1474 221 1425 221 q 1579 221 1524 221 q 1666 216 1632 221 q 1700 183 1700 211 q 1666 149 1700 157 q 1579 140 1632 140 q 1424 150 1479 140 q 1367 176 1369 160 l 1164 176 q 1214 65 1164 111 q 1354 -4 1264 19 q 1565 -28 1444 -28 q 1863 16 1771 -28 q 1956 160 1956 60 q 1919 258 1956 221 q 1821 311 1883 294 q 1678 328 1758 328 "},"⅖":{"ha":2096,"x_min":49,"x_max":2026,"o":"m 874 333 l 874 526 l 382 513 l 571 535 q 746 568 675 549 q 853 624 817 588 q 889 722 889 660 q 837 835 889 794 q 695 894 785 876 q 492 911 606 911 q 235 874 333 911 q 93 775 138 836 q 49 644 49 714 l 290 644 q 348 684 301 667 q 500 701 394 701 q 614 654 614 701 q 606 628 614 640 q 569 604 597 617 q 484 578 542 592 q 328 549 426 565 q 82 513 231 533 l 82 333 l 874 333 m 1333 972 l 806 17 l 878 -28 l 1408 931 l 1333 972 m 1749 328 q 1577 315 1651 328 q 1446 269 1503 303 l 1454 378 l 1961 378 l 1961 558 l 1289 558 l 1269 267 l 1435 219 q 1465 220 1435 219 q 1545 221 1496 221 q 1650 221 1594 221 q 1737 216 1703 221 q 1771 183 1771 211 q 1737 149 1771 157 q 1650 140 1703 140 q 1495 150 1550 140 q 1438 176 1440 160 l 1235 176 q 1285 65 1235 111 q 1425 -4 1335 19 q 1636 -28 1515 -28 q 1934 16 1842 -28 q 2026 160 2026 60 q 1990 258 2026 221 q 1892 311 1954 294 q 1749 328 1829 328 "},"⅗":{"ha":2058,"x_min":49,"x_max":1989,"o":"m 638 599 q 816 639 747 606 q 885 739 885 672 q 781 867 885 824 q 467 911 678 911 q 260 887 354 911 q 108 809 165 863 q 51 668 51 756 l 249 668 q 309 695 251 683 q 472 707 367 707 q 602 698 568 707 q 636 669 636 689 q 601 637 636 647 q 472 626 567 626 l 283 626 l 283 571 l 472 571 q 603 565 558 571 q 647 532 647 560 q 607 497 647 504 q 472 490 567 490 q 307 500 364 490 q 247 536 250 510 l 49 536 q 98 405 49 456 q 243 330 147 354 q 476 306 339 306 q 790 347 679 306 q 900 481 900 388 q 867 559 900 535 q 774 590 833 583 q 638 599 715 597 m 1296 972 l 768 17 l 840 -28 l 1371 931 l 1296 972 m 1711 328 q 1540 315 1614 328 q 1408 269 1465 303 l 1417 378 l 1924 378 l 1924 558 l 1251 558 l 1232 267 l 1397 219 q 1428 220 1397 219 q 1508 221 1458 221 q 1613 221 1557 221 q 1699 216 1665 221 q 1733 183 1733 211 q 1699 149 1733 157 q 1613 140 1665 140 q 1458 150 1513 140 q 1400 176 1403 160 l 1197 176 q 1247 65 1197 111 q 1388 -4 1297 19 q 1599 -28 1478 -28 q 1897 16 1804 -28 q 1989 160 1989 60 q 1953 258 1989 221 q 1854 311 1917 294 q 1711 328 1792 328 "},"⅘":{"ha":2072,"x_min":69,"x_max":2003,"o":"m 492 333 l 783 333 l 783 421 l 893 421 l 893 574 l 783 574 l 783 890 l 540 890 l 69 604 l 69 421 l 492 421 l 492 333 m 325 556 l 506 700 l 506 556 l 325 556 m 1310 972 l 782 17 l 854 -28 l 1385 931 l 1310 972 m 1725 328 q 1553 315 1628 328 q 1422 269 1479 303 l 1431 378 l 1938 378 l 1938 558 l 1265 558 l 1246 267 l 1411 219 q 1442 220 1411 219 q 1522 221 1472 221 q 1626 221 1571 221 q 1713 216 1679 221 q 1747 183 1747 211 q 1713 149 1747 157 q 1626 140 1679 140 q 1472 150 1526 140 q 1414 176 1417 160 l 1211 176 q 1261 65 1211 111 q 1401 -4 1311 19 q 1613 -28 1492 -28 q 1910 16 1818 -28 q 2003 160 2003 60 q 1967 258 2003 221 q 1868 311 1931 294 q 1725 328 1806 328 "},"⅙":{"ha":1951,"x_min":35,"x_max":1903,"o":"m 35 333 l 832 333 l 832 521 l 596 521 l 596 892 l 35 892 l 35 704 l 318 704 l 318 521 l 35 521 l 35 333 m 1263 972 l 735 17 l 807 -28 l 1338 931 l 1263 972 m 1608 393 q 1510 383 1554 393 q 1428 357 1465 372 l 1719 557 l 1410 557 q 1385 538 1410 557 q 1324 488 1361 518 q 1249 426 1288 458 q 1178 367 1210 393 q 1132 329 1146 340 q 1065 244 1078 282 q 1053 176 1053 206 q 1106 65 1053 110 q 1262 -4 1158 19 q 1515 -28 1365 -28 q 1810 31 1718 -28 q 1903 200 1903 90 q 1826 345 1903 297 q 1608 393 1749 393 m 1492 156 q 1351 167 1400 156 q 1303 204 1303 179 q 1351 242 1303 231 q 1492 254 1400 254 q 1631 242 1592 254 q 1669 204 1669 231 q 1631 169 1669 182 q 1492 156 1592 156 "},"⅚":{"ha":1918,"x_min":76,"x_max":1869,"o":"m 590 661 q 419 649 493 661 q 288 603 344 636 l 296 711 l 803 711 l 803 892 l 131 892 l 111 600 l 276 553 q 307 553 276 553 q 387 554 338 554 q 492 554 436 554 q 578 549 544 554 q 613 517 613 544 q 578 482 613 490 q 492 474 544 474 q 337 483 392 474 q 279 510 282 493 l 76 510 q 126 399 76 444 q 267 329 176 353 q 478 306 357 306 q 776 349 683 306 q 868 493 868 393 q 832 591 868 554 q 733 644 796 628 q 590 661 671 661 m 1229 972 l 701 17 l 774 -28 l 1304 931 l 1229 972 m 1575 393 q 1476 383 1521 393 q 1394 357 1432 372 l 1686 557 l 1376 557 q 1352 538 1376 557 q 1291 488 1328 518 q 1215 426 1254 458 q 1144 367 1176 393 q 1099 329 1113 340 q 1032 244 1044 282 q 1019 176 1019 206 q 1072 65 1019 110 q 1228 -4 1125 19 q 1482 -28 1332 -28 q 1777 31 1685 -28 q 1869 200 1869 90 q 1792 345 1869 297 q 1575 393 1715 393 m 1458 156 q 1318 167 1367 156 q 1269 204 1269 179 q 1318 242 1269 231 q 1458 254 1367 254 q 1597 242 1558 254 q 1636 204 1636 231 q 1597 169 1636 182 q 1458 156 1558 156 "},"⅐":{"ha":2096,"x_min":35,"x_max":2054,"o":"m 35 333 l 832 333 l 832 521 l 596 521 l 596 892 l 35 892 l 35 704 l 318 704 l 318 521 l 35 521 l 35 333 m 1263 972 l 735 17 l 807 -28 l 1338 931 l 1263 972 m 1226 369 l 1756 369 l 1403 0 l 1750 0 l 2054 344 l 2054 557 l 1226 557 l 1226 369 "},"⅛":{"ha":2015,"x_min":35,"x_max":1967,"o":"m 35 333 l 832 333 l 832 521 l 596 521 l 596 892 l 35 892 l 35 704 l 318 704 l 318 521 l 35 521 l 35 333 m 1263 972 l 735 17 l 807 -28 l 1338 931 l 1263 972 m 1753 281 q 1887 320 1831 289 q 1943 418 1943 351 q 1851 540 1943 503 q 1551 578 1760 578 q 1251 540 1343 578 q 1160 418 1160 503 q 1185 345 1160 374 q 1251 301 1211 317 q 1338 281 1292 286 q 1242 265 1288 279 q 1166 221 1196 250 q 1136 144 1136 192 q 1176 55 1136 93 q 1306 -4 1215 17 q 1551 -25 1397 -25 q 1797 -4 1706 -25 q 1927 55 1888 17 q 1967 144 1967 93 q 1937 221 1967 192 q 1858 265 1907 250 q 1753 281 1810 279 m 1551 397 q 1660 388 1629 397 q 1690 360 1690 379 q 1660 329 1690 342 q 1551 317 1629 317 q 1448 329 1475 317 q 1421 360 1421 342 q 1448 388 1421 379 q 1551 397 1475 397 m 1551 157 q 1426 167 1458 157 q 1394 197 1394 178 q 1426 228 1394 218 q 1551 238 1458 238 q 1681 228 1644 238 q 1717 197 1717 218 q 1681 167 1717 178 q 1551 157 1644 157 "},"⅜":{"ha":2049,"x_min":49,"x_max":2000,"o":"m 638 599 q 816 639 747 606 q 885 739 885 672 q 781 867 885 824 q 467 911 678 911 q 260 887 354 911 q 108 809 165 863 q 51 668 51 756 l 249 668 q 309 695 251 683 q 472 707 367 707 q 602 698 568 707 q 636 669 636 689 q 601 637 636 647 q 472 626 567 626 l 283 626 l 283 571 l 472 571 q 603 565 558 571 q 647 532 647 560 q 607 497 647 504 q 472 490 567 490 q 307 500 364 490 q 247 536 250 510 l 49 536 q 98 405 49 456 q 243 330 147 354 q 476 306 339 306 q 790 347 679 306 q 900 481 900 388 q 867 559 900 535 q 774 590 833 583 q 638 599 715 597 m 1296 972 l 768 17 l 840 -28 l 1371 931 l 1296 972 m 1786 281 q 1920 320 1864 289 q 1976 418 1976 351 q 1885 540 1976 503 q 1585 578 1793 578 q 1285 540 1376 578 q 1193 418 1193 503 q 1219 345 1193 374 q 1285 301 1244 317 q 1371 281 1325 286 q 1275 265 1321 279 q 1199 221 1229 250 q 1169 144 1169 192 q 1209 55 1169 93 q 1340 -4 1249 17 q 1585 -25 1431 -25 q 1830 -4 1739 -25 q 1960 55 1921 17 q 2000 144 2000 93 q 1970 221 2000 192 q 1892 265 1940 250 q 1786 281 1843 279 m 1585 397 q 1693 388 1663 397 q 1724 360 1724 379 q 1693 329 1724 342 q 1585 317 1663 317 q 1481 329 1508 317 q 1454 360 1454 342 q 1481 388 1454 379 q 1585 397 1508 397 m 1585 157 q 1460 167 1492 157 q 1428 197 1428 178 q 1460 228 1428 218 q 1585 238 1492 238 q 1714 228 1678 238 q 1750 197 1750 218 q 1714 167 1750 178 q 1585 157 1678 157 "},"⅝":{"ha":1982,"x_min":76,"x_max":1933,"o":"m 590 661 q 419 649 493 661 q 288 603 344 636 l 296 711 l 803 711 l 803 892 l 131 892 l 111 600 l 276 553 q 307 553 276 553 q 387 554 338 554 q 492 554 436 554 q 578 549 544 554 q 613 517 613 544 q 578 482 613 490 q 492 474 544 474 q 337 483 392 474 q 279 510 282 493 l 76 510 q 126 399 76 444 q 267 329 176 353 q 478 306 357 306 q 776 349 683 306 q 868 493 868 393 q 832 591 868 554 q 733 644 796 628 q 590 661 671 661 m 1229 972 l 701 17 l 774 -28 l 1304 931 l 1229 972 m 1719 281 q 1853 320 1797 289 q 1910 418 1910 351 q 1818 540 1910 503 q 1518 578 1726 578 q 1218 540 1310 578 q 1126 418 1126 503 q 1152 345 1126 374 q 1218 301 1178 317 q 1304 281 1258 286 q 1208 265 1254 279 q 1133 221 1163 250 q 1103 144 1103 192 q 1142 55 1103 93 q 1273 -4 1182 17 q 1518 -25 1364 -25 q 1763 -4 1672 -25 q 1894 55 1854 17 q 1933 144 1933 93 q 1903 221 1933 192 q 1825 265 1874 250 q 1719 281 1776 279 m 1518 397 q 1626 388 1596 397 q 1657 360 1657 379 q 1626 329 1657 342 q 1518 317 1596 317 q 1415 329 1442 317 q 1388 360 1388 342 q 1415 388 1388 379 q 1518 397 1442 397 m 1518 157 q 1393 167 1425 157 q 1361 197 1361 178 q 1393 228 1361 218 q 1518 238 1425 238 q 1647 228 1611 238 q 1683 197 1683 218 q 1647 167 1683 178 q 1518 157 1611 157 "},"⅞":{"ha":1914,"x_min":42,"x_max":1865,"o":"m 42 703 l 571 703 l 218 333 l 565 333 l 869 678 l 869 890 l 42 890 l 42 703 m 1161 972 l 633 17 l 706 -28 l 1236 931 l 1161 972 m 1651 281 q 1785 320 1729 289 q 1842 418 1842 351 q 1750 540 1842 503 q 1450 578 1658 578 q 1150 540 1242 578 q 1058 418 1058 503 q 1084 345 1058 374 q 1150 301 1110 317 q 1236 281 1190 286 q 1140 265 1186 279 q 1065 221 1094 250 q 1035 144 1035 192 q 1074 55 1035 93 q 1205 -4 1114 17 q 1450 -25 1296 -25 q 1695 -4 1604 -25 q 1826 55 1786 17 q 1865 144 1865 93 q 1835 221 1865 192 q 1757 265 1806 250 q 1651 281 1708 279 m 1450 397 q 1558 388 1528 397 q 1589 360 1589 379 q 1558 329 1589 342 q 1450 317 1528 317 q 1347 329 1374 317 q 1319 360 1319 342 q 1347 388 1319 379 q 1450 397 1374 397 m 1450 157 q 1325 167 1357 157 q 1293 197 1293 178 q 1325 228 1293 218 q 1450 238 1357 238 q 1579 228 1543 238 q 1615 197 1615 218 q 1579 167 1615 178 q 1450 157 1543 157 "},"⅑":{"ha":2035,"x_min":35,"x_max":1986,"o":"m 35 333 l 832 333 l 832 521 l 596 521 l 596 892 l 35 892 l 35 704 l 318 704 l 318 521 l 35 521 l 35 333 m 1263 972 l 735 17 l 807 -28 l 1338 931 l 1263 972 m 1524 576 q 1228 518 1321 576 q 1136 349 1136 460 q 1217 203 1136 250 q 1458 156 1299 156 q 1531 164 1496 156 q 1596 185 1565 172 l 1319 0 l 1629 0 q 1653 19 1629 0 q 1715 66 1678 38 q 1790 126 1751 94 q 1861 183 1829 157 q 1907 219 1893 208 q 1974 306 1961 268 q 1986 372 1986 343 q 1933 485 1986 440 q 1778 553 1881 531 q 1524 576 1675 576 m 1547 294 q 1421 307 1458 294 q 1383 346 1383 319 q 1421 381 1383 368 q 1547 393 1458 393 q 1688 381 1639 393 q 1736 346 1736 369 q 1688 307 1736 319 q 1547 294 1639 294 "},"⅒":{"ha":3121,"x_min":35,"x_max":2982,"o":"m 35 333 l 832 333 l 832 521 l 596 521 l 596 892 l 35 892 l 35 704 l 318 704 l 318 521 l 35 521 l 35 333 m 1263 972 l 735 17 l 807 -28 l 1338 931 l 1263 972 m 1219 0 l 2017 0 l 2017 188 l 1781 188 l 1781 558 l 1219 558 l 1219 371 l 1503 371 l 1503 188 l 1219 188 l 1219 0 m 2531 582 q 2281 548 2382 582 q 2130 446 2181 514 q 2079 276 2079 378 q 2130 108 2079 175 q 2281 6 2181 40 q 2531 -28 2382 -28 q 2780 6 2679 -28 q 2931 108 2881 40 q 2982 276 2982 175 q 2931 446 2982 378 q 2780 548 2881 514 q 2531 582 2679 582 m 2531 176 q 2399 201 2442 176 q 2356 276 2356 225 q 2399 350 2356 326 q 2531 374 2443 374 q 2658 350 2617 374 q 2699 276 2699 326 q 2658 201 2699 225 q 2531 176 2617 176 "},"¹":{"ha":343,"x_min":56,"x_max":260,"o":"m 56 883 l 165 883 l 165 556 l 260 556 l 260 972 l 56 972 l 56 883 "},"²":{"ha":463,"x_min":63,"x_max":393,"o":"m 199 640 q 344 728 294 685 q 393 843 393 772 q 352 944 393 901 q 233 986 311 986 q 140 962 181 986 q 81 897 100 938 q 74 808 63 857 l 165 808 q 174 865 156 842 q 226 889 193 889 q 275 872 258 889 q 292 829 292 856 q 267 776 292 799 q 196 723 243 753 q 82 643 149 693 l 82 556 l 389 556 l 389 649 l 199 640 "},"³":{"ha":456,"x_min":65,"x_max":386,"o":"m 289 763 q 359 800 338 774 q 381 861 381 826 q 342 951 381 915 q 231 986 304 986 q 107 942 147 986 q 76 840 67 899 l 161 840 q 174 875 160 858 q 228 892 189 892 q 285 846 285 892 q 271 810 285 824 q 224 796 257 796 l 147 796 l 147 728 l 224 728 q 290 681 290 728 q 276 643 290 658 q 231 628 263 628 q 173 648 186 628 q 161 686 160 668 l 69 686 q 103 578 65 626 q 231 531 142 531 q 349 570 313 531 q 386 657 386 610 q 289 763 386 742 "},"⁴":{"ha":436,"x_min":56,"x_max":408,"o":"m 353 744 l 353 976 l 260 976 l 56 744 l 56 661 l 265 661 l 265 556 l 353 556 l 353 661 l 408 661 l 408 744 l 353 744 m 265 744 l 157 744 l 265 869 l 265 744 "},"\r":{"ha":833,"x_min":0,"x_max":0,"o":""}," ":{"ha":431,"x_min":0,"x_max":0,"o":""}," ":{"ha":431,"x_min":0,"x_max":0,"o":""},"·":{"ha":492,"x_min":69,"x_max":422,"o":"m 422 681 l 69 681 l 69 471 l 422 471 l 422 681 "},";":{"ha":492,"x_min":69,"x_max":422,"o":"m 422 665 l 69 665 l 69 456 l 422 456 l 422 665 m 110 -176 q 349 -72 275 -157 q 422 139 422 13 l 422 268 l 71 268 l 71 56 l 165 40 q 137 -41 161 -3 q 90 -90 113 -79 l 110 -176 "},".":{"ha":492,"x_min":69,"x_max":422,"o":"m 422 210 l 69 210 l 69 0 l 422 0 l 422 210 "},",":{"ha":421,"x_min":35,"x_max":386,"o":"m 74 -232 q 313 -128 239 -212 q 386 83 386 -43 l 386 213 l 35 213 l 35 0 l 129 -15 q 101 -97 125 -58 q 54 -146 76 -135 l 74 -232 "},":":{"ha":492,"x_min":69,"x_max":422,"o":"m 422 210 l 69 210 l 69 0 l 422 0 l 422 210 m 422 713 l 69 713 l 69 503 l 422 503 l 422 713 "},";":{"ha":492,"x_min":69,"x_max":422,"o":"m 422 665 l 69 665 l 69 456 l 422 456 l 422 665 m 110 -176 q 349 -72 275 -157 q 422 139 422 13 l 422 268 l 71 268 l 71 56 l 165 40 q 137 -41 161 -3 q 90 -90 113 -79 l 110 -176 "},"…":{"ha":1447,"x_min":69,"x_max":1378,"o":"m 1378 210 l 1025 210 l 1025 0 l 1378 0 l 1378 210 m 422 210 l 69 210 l 69 0 l 422 0 l 422 210 m 900 210 l 547 210 l 547 0 l 900 0 l 900 210 "},"!":{"ha":547,"x_min":97,"x_max":450,"o":"m 100 958 l 100 283 l 447 283 l 447 958 l 100 958 m 450 210 l 97 210 l 97 0 l 450 0 l 450 210 "},"¡":{"ha":547,"x_min":97,"x_max":450,"o":"m 100 -118 l 447 -118 l 447 557 l 100 557 l 100 -118 m 450 631 l 450 840 l 97 840 l 97 631 l 450 631 "},"?":{"ha":1200,"x_min":53,"x_max":1144,"o":"m 397 279 l 717 279 l 717 279 q 931 315 833 279 q 1086 424 1028 351 q 1144 606 1144 497 q 1117 754 1144 686 q 1024 873 1089 822 q 852 951 960 924 q 586 979 744 979 q 357 953 451 979 q 201 884 263 926 q 108 794 140 842 q 64 703 75 747 q 57 631 53 660 l 383 631 q 406 661 389 644 q 464 690 422 678 q 586 701 506 701 q 745 678 693 701 q 797 592 797 656 q 750 513 797 539 q 586 488 703 488 l 397 488 l 397 279 m 394 0 l 747 0 l 747 210 l 394 210 l 394 0 "},"¿":{"ha":1200,"x_min":56,"x_max":1147,"o":"m 453 625 l 806 625 l 806 835 l 453 835 l 453 625 m 817 204 q 794 174 811 190 q 736 145 778 157 q 613 133 694 133 q 455 156 507 133 q 403 243 403 179 q 450 322 403 296 q 613 347 497 347 l 803 347 l 803 556 l 483 556 l 483 556 q 269 519 367 556 q 114 411 172 483 q 56 229 56 339 q 83 81 56 149 q 176 -38 111 13 q 347 -117 240 -89 q 613 -144 454 -144 q 843 -118 749 -144 q 999 -49 938 -92 q 1092 40 1060 -7 q 1136 131 1125 88 q 1143 204 1147 175 l 817 204 "},"·":{"ha":492,"x_min":69,"x_max":422,"o":"m 422 483 l 69 483 l 69 274 l 422 274 l 422 483 "},"•":{"ha":664,"x_min":125,"x_max":539,"o":"m 125 571 l 125 157 l 539 157 l 539 571 l 125 571 "},"*":{"ha":925,"x_min":28,"x_max":897,"o":"m 826 910 l 550 800 l 569 1085 l 338 1085 l 356 813 l 99 913 l 28 693 l 294 624 l 118 411 l 304 276 l 456 514 l 608 275 l 796 411 l 625 619 l 897 689 l 826 910 "},"#":{"ha":1933,"x_min":83,"x_max":1850,"o":"m 1169 889 l 1169 0 l 1517 0 l 1517 889 l 1169 889 m 417 889 l 417 0 l 764 0 l 764 889 l 417 889 m 1850 363 l 83 363 l 83 154 l 1850 154 l 1850 363 m 1850 735 l 83 735 l 83 526 l 1850 526 l 1850 735 "},"/":{"ha":864,"x_min":69,"x_max":794,"o":"m 546 1140 l 69 -168 l 318 -258 l 794 1050 l 546 1140 "},"\\":{"ha":864,"x_min":69,"x_max":794,"o":"m 318 1140 l 69 1050 l 546 -258 l 794 -168 l 318 1140 "},"-":{"ha":819,"x_min":111,"x_max":708,"o":"m 111 482 l 111 274 l 708 274 l 708 482 l 111 482 "},"­":{"ha":833,"x_min":111,"x_max":708,"o":"m 111 482 l 111 274 l 708 274 l 708 482 l 111 482 "},"–":{"ha":972,"x_min":111,"x_max":861,"o":"m 111 482 l 111 274 l 861 274 l 861 482 l 111 482 "},"—":{"ha":1306,"x_min":83,"x_max":1222,"o":"m 83 482 l 83 274 l 1222 274 l 1222 482 l 83 482 "},"_":{"ha":1361,"x_min":69,"x_max":1292,"o":"m 69 -69 l 69 -278 l 1292 -278 l 1292 -69 l 69 -69 "},"(":{"ha":563,"x_min":83,"x_max":479,"o":"m 479 -135 q 460 -115 479 -135 q 414 -56 442 -96 q 358 48 386 -15 q 310 198 329 111 q 292 397 292 285 q 320 625 292 528 q 385 787 349 722 q 451 883 422 851 q 479 915 479 915 l 374 1021 q 344 995 374 1021 q 272 919 315 969 q 185 794 229 869 q 113 620 142 719 q 83 397 83 521 q 113 173 83 274 q 185 -5 142 72 q 272 -134 229 -82 q 344 -213 315 -186 q 374 -240 374 -240 l 479 -135 "},")":{"ha":563,"x_min":83,"x_max":479,"o":"m 83 -135 l 189 -240 q 218 -213 189 -240 q 291 -134 247 -186 q 378 -5 335 -82 q 450 173 421 72 q 479 397 479 274 q 450 620 479 521 q 378 794 421 719 q 291 919 335 869 q 218 995 247 969 q 189 1021 189 1021 l 83 915 q 112 883 83 915 q 177 787 140 851 q 242 625 214 722 q 271 397 271 528 q 252 198 271 285 q 205 48 233 111 q 149 -56 176 -15 q 102 -115 121 -96 q 83 -135 83 -135 "},"{":{"ha":865,"x_min":42,"x_max":740,"o":"m 181 1111 q 183 977 169 1047 q 222 840 197 907 q 265 718 246 774 q 285 626 285 663 q 231 533 285 565 q 42 501 178 501 l 42 363 q 231 331 178 363 q 285 238 285 299 q 265 146 285 201 q 222 24 246 90 q 183 -112 197 -43 q 181 -247 169 -182 l 740 -247 l 740 -39 l 428 -39 q 439 8 428 -21 q 465 74 450 38 q 492 153 481 111 q 503 238 503 194 q 445 350 503 306 q 294 418 388 394 q 89 446 200 442 l 89 418 q 294 447 200 424 q 445 515 388 471 q 503 626 503 560 q 492 711 503 669 q 465 790 481 753 q 439 856 450 826 q 428 903 428 885 l 740 903 l 740 1111 l 181 1111 "},"}":{"ha":865,"x_min":125,"x_max":824,"o":"m 581 626 q 601 718 581 663 q 644 840 621 774 q 682 977 668 907 q 685 1111 696 1047 l 125 1111 l 125 903 l 438 903 q 426 856 438 885 q 400 790 415 826 q 374 711 385 753 q 363 626 363 669 q 420 515 363 560 q 572 447 478 471 q 776 418 667 424 l 776 446 q 572 418 667 442 q 420 350 478 394 q 363 238 363 306 q 374 153 363 194 q 400 74 385 111 q 426 8 415 38 q 438 -39 438 -21 l 125 -39 l 125 -247 l 685 -247 q 682 -112 696 -182 q 644 24 668 -43 q 601 146 621 90 q 581 238 581 201 q 635 331 581 299 q 824 363 689 363 l 824 501 q 635 533 689 501 q 581 626 581 565 "},"[":{"ha":764,"x_min":125,"x_max":681,"o":"m 681 -65 l 333 -65 l 333 903 l 681 903 l 681 1111 l 125 1111 l 125 -274 l 681 -274 l 681 -65 "},"]":{"ha":764,"x_min":83,"x_max":639,"o":"m 83 -65 l 83 -274 l 639 -274 l 639 1111 l 83 1111 l 83 903 l 431 903 l 431 -65 l 83 -65 "},"‚":{"ha":421,"x_min":35,"x_max":386,"o":"m 74 -232 q 313 -128 239 -212 q 386 83 386 -43 l 386 213 l 35 213 l 35 0 l 129 -15 q 101 -97 125 -58 q 54 -146 76 -135 l 74 -232 "},"„":{"ha":842,"x_min":35,"x_max":807,"o":"m 74 -232 q 313 -128 239 -214 q 386 83 386 -43 l 386 213 l 35 213 l 35 0 l 129 -15 q 101 -97 125 -58 q 54 -146 76 -135 l 74 -232 m 494 -232 q 733 -128 660 -214 q 807 83 807 -43 l 807 213 l 456 213 l 456 0 l 550 -15 q 522 -97 546 -58 q 475 -146 497 -135 l 494 -232 "},"“":{"ha":842,"x_min":35,"x_max":807,"o":"m 347 988 q 109 885 183 969 q 35 672 35 800 l 35 543 l 386 543 l 386 756 l 292 771 q 320 853 296 815 q 367 901 344 890 l 347 988 m 768 988 q 530 885 604 969 q 456 672 456 800 l 456 543 l 807 543 l 807 756 l 713 771 q 741 853 717 815 q 788 901 765 890 l 768 988 "},"”":{"ha":842,"x_min":35,"x_max":807,"o":"m 74 474 q 313 577 239 492 q 386 789 386 663 l 386 918 l 35 918 l 35 706 l 129 690 q 101 609 125 647 q 54 560 76 571 l 74 474 m 494 474 q 733 577 660 492 q 807 789 807 663 l 807 918 l 456 918 l 456 706 l 550 690 q 522 609 546 647 q 475 560 497 571 l 494 474 "},"‘":{"ha":421,"x_min":35,"x_max":386,"o":"m 347 988 q 109 885 183 969 q 35 672 35 800 l 35 543 l 386 543 l 386 756 l 292 771 q 320 853 296 815 q 367 901 344 890 l 347 988 "},"’":{"ha":421,"x_min":35,"x_max":386,"o":"m 74 474 q 313 577 239 492 q 386 789 386 663 l 386 918 l 35 918 l 35 706 l 129 690 q 101 609 125 647 q 54 560 76 571 l 74 474 "},"«":{"ha":1075,"x_min":83,"x_max":964,"o":"m 458 792 l 83 388 l 458 -15 l 613 122 l 356 389 l 610 651 l 458 792 m 961 588 l 811 726 l 506 394 l 811 63 l 964 200 l 785 394 l 961 588 "},"»":{"ha":1075,"x_min":111,"x_max":992,"o":"m 465 651 l 719 389 l 463 122 l 615 -15 l 992 388 l 615 792 l 465 651 m 113 588 l 290 394 l 111 200 l 264 63 l 568 394 l 264 726 l 113 588 "},"‹":{"ha":682,"x_min":83,"x_max":613,"o":"m 83 388 l 229 257 l 610 651 l 458 792 l 83 388 m 83 388 l 458 -15 l 613 122 l 229 519 l 83 388 "},"›":{"ha":682,"x_min":69,"x_max":599,"o":"m 599 388 l 222 792 l 71 651 l 453 257 l 599 388 m 599 388 l 453 519 l 69 122 l 222 -15 l 599 388 "},"\"":{"ha":839,"x_min":35,"x_max":804,"o":"m 292 606 l 382 768 l 382 917 l 35 917 l 35 768 l 125 606 l 292 606 m 714 606 l 804 768 l 804 917 l 457 917 l 457 768 l 547 606 l 714 606 "},"'":{"ha":417,"x_min":35,"x_max":382,"o":"m 292 606 l 382 768 l 382 917 l 35 917 l 35 768 l 125 606 l 292 606 "},"ƒ":{"ha":1750,"x_min":42,"x_max":1708,"o":"m 1239 917 q 958 869 1078 917 q 774 724 839 821 q 708 478 708 626 l 708 440 q 689 330 708 372 q 628 269 669 288 q 522 250 588 250 q 398 269 443 250 q 347 329 353 288 l 42 329 q 97 154 42 232 q 259 31 151 76 q 522 -14 367 -14 q 794 38 678 -14 q 976 190 911 89 q 1042 440 1042 292 l 1042 478 q 1053 555 1042 522 q 1087 609 1064 588 q 1147 642 1110 631 q 1239 653 1185 653 q 1360 627 1322 653 q 1403 561 1397 601 l 1708 561 q 1662 751 1708 671 q 1512 874 1615 831 q 1239 917 1408 917 m 456 497 l 456 407 l 1204 407 l 1204 497 l 456 497 "},"":{"ha":1194,"x_min":42,"x_max":1153,"o":"m 597 -14 q 817 19 717 -14 q 994 113 918 51 q 1111 260 1069 174 q 1153 451 1153 346 q 1111 644 1153 558 q 994 790 1069 729 q 817 884 918 851 q 597 917 717 917 q 378 884 479 917 q 201 790 276 851 q 83 644 125 729 q 42 451 42 558 q 83 260 42 346 q 201 113 125 174 q 378 19 276 51 q 597 -14 479 -14 m 450 74 q 326 119 383 89 q 228 192 269 149 q 325 232 267 217 q 378 143 347 185 q 450 74 408 101 m 197 228 q 149 317 167 268 q 128 424 131 365 l 281 424 q 289 354 282 389 q 306 283 296 319 q 197 228 239 263 m 567 65 q 454 126 501 76 q 379 243 407 175 q 465 253 418 250 q 567 257 511 256 l 567 65 m 128 479 q 150 590 131 539 q 201 681 169 640 q 307 628 243 649 q 279 479 283 556 l 128 479 m 361 299 q 340 424 344 358 l 567 424 l 567 318 q 456 312 507 317 q 361 299 404 307 m 629 65 l 629 257 q 731 252 685 256 q 815 242 776 249 q 741 125 788 174 q 629 65 694 76 m 340 479 q 361 614 344 550 q 456 601 404 606 q 567 594 507 596 l 567 479 l 340 479 m 744 74 q 816 142 785 101 q 868 231 847 183 q 922 213 899 224 q 965 190 946 203 q 744 74 878 103 m 326 679 q 233 717 271 693 q 444 828 317 799 q 376 763 406 801 q 326 679 347 725 m 833 297 q 629 318 747 317 l 629 424 l 854 424 q 847 360 853 393 q 833 297 842 328 m 567 656 q 465 660 511 657 q 381 669 418 664 q 455 783 408 736 q 567 839 501 829 l 567 656 m 629 479 l 629 594 q 832 615 749 597 q 847 549 842 583 q 854 479 853 515 l 629 479 m 996 225 q 947 258 974 243 q 888 282 921 272 q 906 353 899 318 q 914 424 913 389 l 1067 424 q 1045 315 1064 365 q 996 225 1026 265 m 629 656 l 629 839 q 740 783 694 829 q 814 671 786 736 q 730 660 775 664 q 629 656 685 657 m 915 479 q 888 631 911 556 q 944 654 918 642 q 990 683 969 667 q 1044 592 1024 643 q 1067 479 1064 540 l 915 479 m 867 682 q 818 764 847 726 q 750 828 789 801 q 958 719 875 799 q 917 699 940 708 q 867 682 894 689 "},"@":{"ha":2081,"x_min":49,"x_max":2032,"o":"m 1007 -121 q 1209 -115 1113 -121 q 1381 -99 1306 -108 q 1496 -81 1456 -89 l 1442 54 q 1338 38 1406 46 q 1186 24 1271 29 q 1011 18 1101 18 q 584 67 758 18 q 319 210 410 115 q 229 444 229 306 q 288 633 229 558 q 453 752 346 708 q 713 815 561 796 q 1049 833 864 833 q 1381 815 1232 833 q 1634 751 1529 796 q 1795 627 1739 706 q 1851 428 1851 549 q 1844 358 1851 392 q 1814 304 1836 325 q 1747 283 1792 283 q 1683 304 1704 283 q 1653 360 1661 325 q 1646 439 1646 396 l 1646 682 l 1313 682 l 1313 403 q 1330 302 1313 353 q 1388 208 1347 251 q 1499 140 1428 165 q 1675 114 1569 114 q 1862 147 1782 114 q 1987 251 1942 179 q 2032 444 2032 324 q 1920 747 2032 631 q 1588 917 1808 863 q 1040 972 1368 972 q 497 918 718 972 q 162 748 275 864 q 49 444 49 632 q 158 135 49 261 q 482 -56 268 8 q 1007 -121 696 -121 m 825 135 q 1035 160 940 135 q 1198 227 1129 185 q 1303 324 1267 269 q 1340 435 1340 378 q 1276 578 1340 511 q 1094 688 1211 646 q 824 731 978 731 q 582 694 685 731 q 422 592 479 658 q 364 435 364 525 q 423 276 364 343 q 586 172 482 208 q 825 135 690 135 m 947 342 q 769 361 828 342 q 710 432 710 381 q 769 503 710 485 q 947 522 828 522 q 1072 518 1008 522 q 1190 503 1136 514 q 1278 476 1244 493 q 1313 433 1313 458 q 1279 390 1313 407 q 1192 362 1246 372 q 1073 347 1138 351 q 947 342 1008 342 "},"&":{"ha":1694,"x_min":49,"x_max":1667,"o":"m 533 -21 q 785 8 685 -21 q 947 83 886 38 q 1042 176 1008 128 q 1090 263 1075 224 l 1067 279 q 1070 162 1067 217 q 1078 65 1074 107 q 1088 0 1083 24 l 1401 0 l 1401 393 l 1667 393 l 1667 490 l 799 490 q 583 498 661 490 q 471 524 504 506 q 438 574 438 543 q 509 635 438 618 q 735 653 581 653 q 972 629 883 653 q 1067 560 1061 606 l 1399 560 q 1347 720 1399 653 q 1204 831 1296 788 q 989 896 1113 875 q 721 917 865 917 q 374 890 518 917 q 153 806 229 863 q 76 658 76 749 q 120 553 76 594 q 244 490 164 513 q 431 458 324 467 q 667 447 539 449 l 665 456 q 419 446 532 454 q 223 416 306 438 q 94 351 140 394 q 49 233 49 307 q 88 122 49 169 q 194 42 126 74 q 349 -5 261 11 q 533 -21 436 -21 m 700 193 q 486 226 556 193 q 417 303 417 258 q 515 378 417 364 q 799 393 613 393 l 1068 393 l 1068 331 q 1031 262 1068 293 q 913 212 993 231 q 700 193 832 193 "},"¶":{"ha":1532,"x_min":42,"x_max":1435,"o":"m 1435 889 l 504 889 q 250 855 353 889 q 94 747 147 821 q 42 556 42 674 q 98 366 42 438 q 260 263 154 294 q 518 231 367 231 l 603 231 l 603 0 l 936 0 l 936 231 l 1101 231 l 1101 0 l 1435 0 l 1435 889 m 500 474 q 423 486 457 474 q 389 543 389 499 q 424 599 389 586 q 500 611 458 611 l 1101 611 l 1101 474 l 500 474 "},"§":{"ha":1207,"x_min":49,"x_max":1151,"o":"m 696 336 q 1042 354 933 325 q 1151 458 1151 383 q 1095 548 1151 511 q 925 607 1039 585 q 635 636 811 629 q 486 650 540 642 q 410 675 432 658 q 389 718 389 692 q 434 766 389 754 q 557 778 479 778 q 722 765 669 778 q 781 725 774 753 l 1086 725 q 946 917 1082 849 q 565 986 810 986 q 211 933 339 986 q 83 785 83 879 q 119 707 83 740 q 236 647 154 674 q 458 592 318 619 l 572 600 q 281 613 397 621 q 106 572 164 606 q 49 478 49 539 q 102 374 49 414 q 274 313 156 333 q 588 285 393 292 q 738 276 686 282 q 807 258 789 271 q 825 221 825 244 q 786 172 825 186 q 643 158 747 158 q 472 173 532 158 q 397 215 411 188 l 114 215 q 142 110 106 158 q 253 25 179 61 q 431 -31 328 -11 q 660 -50 535 -50 q 1010 0 889 -50 q 1131 146 1131 50 q 1042 278 1131 228 q 785 343 954 328 l 696 336 m 396 474 q 433 528 396 510 q 554 553 471 547 q 702 547 647 554 q 781 519 757 539 q 804 467 804 500 q 773 408 804 428 q 668 383 742 389 q 515 392 575 383 q 425 422 454 401 q 396 474 396 442 "},"©":{"ha":2261,"x_min":83,"x_max":2178,"o":"m 1133 -14 q 1691 43 1457 -14 q 2051 207 1925 100 q 2178 461 2178 314 q 2052 710 2178 610 q 1693 860 1926 810 q 1133 911 1460 911 q 570 860 806 911 q 209 710 335 810 q 83 461 83 610 q 210 207 83 314 q 573 43 338 100 q 1133 -14 808 -14 m 1133 125 q 794 146 951 125 q 517 208 636 167 q 331 313 397 250 q 264 461 264 376 q 331 606 264 546 q 515 702 397 665 q 792 756 633 739 q 1133 772 950 772 q 1472 756 1315 772 q 1747 702 1629 739 q 1931 606 1865 665 q 1997 461 1997 546 q 1931 313 1997 376 q 1745 208 1864 250 q 1470 146 1626 167 q 1133 125 1314 125 m 1728 421 l 1489 421 q 1395 378 1471 394 q 1154 361 1319 361 q 869 380 956 361 q 782 447 782 399 q 869 517 782 497 q 1154 536 957 536 q 1394 520 1319 536 q 1488 476 1469 504 l 1726 476 q 1672 583 1726 539 q 1492 651 1617 628 q 1154 675 1367 675 q 803 652 942 675 q 596 579 664 629 q 528 447 528 529 q 682 274 528 325 q 1154 222 836 222 q 1492 246 1367 222 q 1673 315 1618 269 q 1728 421 1728 360 "},"®":{"ha":2261,"x_min":83,"x_max":2178,"o":"m 1133 54 q 1691 111 1457 54 q 2051 275 1925 168 q 2178 529 2178 382 q 2052 778 2178 678 q 1693 928 1926 878 q 1133 979 1460 979 q 570 928 806 979 q 209 778 335 878 q 83 529 83 678 q 210 275 83 382 q 573 111 338 168 q 1133 54 808 54 m 1133 193 q 794 212 951 193 q 517 271 636 231 q 331 375 397 311 q 264 529 264 439 q 331 679 264 619 q 515 774 397 739 q 792 825 633 810 q 1133 840 950 840 q 1472 825 1315 840 q 1747 774 1629 810 q 1931 679 1865 739 q 1997 529 1997 619 q 1931 375 1997 439 q 1745 271 1864 311 q 1470 212 1626 231 q 1133 193 1314 193 m 729 293 l 917 293 l 917 414 l 1236 414 q 1358 410 1317 414 q 1413 394 1399 406 q 1428 358 1428 382 l 1428 293 l 1614 293 l 1614 382 q 1602 421 1614 406 q 1553 445 1590 436 q 1443 458 1517 454 q 1590 491 1550 458 q 1631 592 1631 524 q 1565 721 1631 685 q 1378 757 1499 757 l 729 757 l 729 293 m 915 532 l 915 610 l 1390 610 q 1428 603 1414 610 q 1443 572 1443 596 q 1428 540 1443 549 q 1390 532 1414 532 l 915 532 "},"™":{"ha":2354,"x_min":97,"x_max":2257,"o":"m 674 542 l 674 694 l 986 694 l 986 889 l 97 889 l 97 694 l 396 694 l 396 542 l 674 542 m 1672 644 l 1368 889 l 1090 889 l 1090 542 l 1368 542 l 1368 682 l 1535 535 l 1813 535 l 1979 683 l 1979 542 l 2257 542 l 2257 889 l 1979 889 l 1672 644 m 2257 233 l 2257 428 l 118 428 l 118 233 l 2257 233 "},"°":{"ha":924,"x_min":56,"x_max":868,"o":"m 463 413 q 680 439 589 413 q 819 519 771 465 q 868 657 868 574 q 819 794 868 740 q 680 876 771 849 q 463 903 589 903 q 244 876 336 903 q 104 794 153 849 q 56 657 56 740 q 104 519 56 574 q 244 439 153 465 q 463 413 336 413 m 463 524 q 276 558 332 524 q 219 657 219 593 q 276 751 219 717 q 463 785 332 785 q 649 751 593 785 q 706 657 706 717 q 649 558 706 593 q 463 524 593 524 "},"|":{"ha":611,"x_min":139,"x_max":472,"o":"m 139 1111 l 139 -222 l 472 -222 l 472 1111 l 139 1111 "},"¦":{"ha":611,"x_min":139,"x_max":472,"o":"m 472 340 l 139 340 l 139 -222 l 472 -222 l 472 340 m 472 1111 l 139 1111 l 139 549 l 472 549 l 472 1111 "},"†":{"ha":1569,"x_min":111,"x_max":1458,"o":"m 111 694 l 111 431 l 1458 431 l 1458 694 l 111 694 m 618 972 l 618 -278 l 951 -278 l 951 972 l 618 972 "},"‡":{"ha":1431,"x_min":42,"x_max":1389,"o":"m 549 -278 l 882 -278 l 882 972 l 549 972 l 549 -278 m 42 0 l 1389 0 l 1389 264 l 42 264 l 42 0 m 42 431 l 1389 431 l 1389 694 l 42 694 l 42 431 "},"¢":{"ha":1381,"x_min":49,"x_max":1332,"o":"m 1026 296 q 931 211 1004 242 q 735 181 857 181 l 725 181 l 781 499 q 943 463 881 492 q 1025 386 1006 435 l 1331 386 q 1208 605 1329 522 q 815 700 1088 688 l 838 822 l 756 838 l 732 701 q 349 663 500 701 q 123 545 197 625 q 49 339 49 465 q 193 77 49 160 q 606 -18 338 -6 l 586 -125 l 668 -140 l 689 -21 q 706 -21 697 -21 q 722 -21 714 -21 q 1072 17 938 -21 q 1269 125 1207 54 q 1332 296 1332 196 l 1026 296 m 389 339 q 426 433 389 399 q 533 483 464 468 q 696 500 601 499 l 640 183 q 456 224 522 190 q 389 339 389 258 "},"¤":{"ha":1286,"x_min":42,"x_max":1244,"o":"m 646 75 q 972 113 838 75 q 1175 228 1106 151 q 1244 421 1244 306 q 1175 613 1244 536 q 972 730 1106 690 q 646 769 838 769 q 318 730 453 769 q 113 613 183 690 q 42 421 42 536 q 113 228 42 306 q 318 113 183 151 q 646 75 453 75 m 646 269 q 446 313 510 269 q 382 421 382 357 q 447 531 382 486 q 646 575 511 575 q 842 530 781 575 q 904 421 904 485 q 841 313 904 357 q 646 269 778 269 m 365 -61 l 479 101 l 393 147 l 285 -6 l 365 -61 m 931 -61 l 1010 -6 l 901 147 l 817 101 l 931 -61 m 400 688 l 479 744 l 365 908 l 285 853 l 400 688 m 894 688 l 1010 853 l 931 908 l 815 744 l 894 688 "},"$":{"ha":1190,"x_min":60,"x_max":1128,"o":"m 647 971 l 614 778 l 703 764 l 736 957 l 647 971 m 460 -82 l 549 -97 l 583 96 l 494 111 l 460 -82 m 64 335 q 78 254 60 300 q 153 167 97 208 q 318 97 210 125 q 601 69 426 69 q 881 92 763 69 q 1063 164 999 115 q 1128 292 1128 213 q 1092 395 1128 357 q 994 451 1056 433 q 855 475 932 469 q 697 481 778 481 q 520 484 581 481 q 438 498 460 488 q 417 529 417 508 q 461 576 417 561 q 601 590 506 590 q 747 576 704 590 q 804 528 790 563 l 1103 528 q 1051 661 1104 601 q 888 756 999 721 q 601 792 776 792 q 399 781 496 792 q 229 744 303 769 q 113 673 156 718 q 69 561 69 628 q 99 472 69 507 q 184 415 128 436 q 320 386 240 394 q 500 378 400 378 q 668 376 607 378 q 755 364 729 374 q 781 331 781 354 q 769 301 781 315 q 719 279 757 288 q 601 271 681 271 q 445 285 500 271 q 371 335 390 300 l 64 335 "},"€":{"ha":1953,"x_min":28,"x_max":1869,"o":"m 1082 325 l 1165 392 l 113 392 l 28 325 l 1082 325 m 1224 475 l 1307 556 l 113 556 l 28 475 l 1224 475 m 636 335 l 246 333 q 336 167 265 236 q 521 56 407 99 q 783 -8 635 13 q 1103 -28 931 -28 q 1520 17 1353 -28 q 1775 150 1688 61 q 1869 371 1863 239 l 1508 371 q 1449 308 1492 338 q 1323 261 1406 279 q 1103 243 1240 243 q 882 252 975 243 q 728 281 789 261 q 636 335 668 301 m 1358 610 l 1601 849 q 1361 899 1508 881 q 1006 917 1214 917 q 714 894 847 917 q 479 824 581 872 q 317 694 378 775 q 242 494 256 613 l 614 494 q 695 571 636 540 q 856 617 754 601 q 1103 632 957 632 q 1248 626 1185 632 q 1358 610 1311 621 "},"£":{"ha":1510,"x_min":49,"x_max":1454,"o":"m 49 392 l 994 392 l 994 482 l 49 482 l 49 392 m 586 393 q 560 435 586 418 q 501 467 535 451 q 441 503 467 483 q 415 557 415 524 q 456 617 415 597 q 572 642 497 636 q 744 649 646 649 q 908 638 832 649 q 1034 607 985 626 q 1088 561 1083 588 l 1454 561 q 1398 718 1454 651 q 1242 829 1342 785 q 1009 895 1142 874 q 724 917 876 917 q 384 890 529 917 q 159 806 239 863 q 79 658 79 749 q 110 560 79 599 q 188 501 142 522 q 285 472 235 481 q 372 464 335 464 q 381 457 385 464 q 368 440 378 450 q 352 421 358 431 q 353 404 346 411 q 371 381 364 393 q 378 356 378 369 q 353 310 378 328 q 291 281 328 292 q 217 267 254 271 q 156 262 181 263 q 131 261 131 261 l 131 0 l 1388 0 l 1388 261 l 340 261 q 399 265 360 261 q 482 281 439 268 q 556 320 525 293 q 586 393 586 347 "},"¥":{"ha":1486,"x_min":7,"x_max":1479,"o":"m 569 226 l 917 226 l 1479 889 l 1069 889 l 617 313 l 874 313 l 417 889 l 7 889 l 569 226 m 569 14 l 917 14 l 917 33 l 569 33 l 569 14 m 403 90 l 403 0 l 1083 0 l 1083 90 l 403 90 m 403 243 l 403 153 l 1083 153 l 1083 243 l 403 243 "},"∕":{"ha":603,"x_min":0,"x_max":603,"o":"m 528 972 l 0 17 l 72 -28 l 603 931 l 528 972 "},"+":{"ha":1083,"x_min":69,"x_max":1014,"o":"m 69 479 l 69 271 l 1014 271 l 1014 479 l 69 479 m 674 667 l 410 667 l 410 83 l 674 83 l 674 667 "},"−":{"ha":833,"x_min":69,"x_max":764,"o":"m 69 479 l 69 271 l 764 271 l 764 479 l 69 479 "},"×":{"ha":988,"x_min":110,"x_max":876,"o":"m 257 -36 l 110 111 l 729 731 l 876 583 l 257 -36 m 729 -36 l 110 583 l 257 731 l 876 111 l 729 -36 "},"÷":{"ha":889,"x_min":69,"x_max":819,"o":"m 69 465 l 69 257 l 819 257 l 819 465 l 69 465 m 621 160 l 268 160 l 268 21 l 621 21 l 621 160 m 621 701 l 268 701 l 268 561 l 621 561 l 621 701 "},"=":{"ha":1167,"x_min":69,"x_max":1097,"o":"m 69 667 l 69 458 l 1097 458 l 1097 667 l 69 667 m 69 313 l 69 104 l 1097 104 l 1097 313 l 69 313 "},"≠":{"ha":1167,"x_min":69,"x_max":1097,"o":"m 411 -15 l 500 -40 l 756 793 l 667 818 l 411 -15 m 69 667 l 69 458 l 1097 458 l 1097 667 l 69 667 m 69 313 l 69 104 l 1097 104 l 1097 313 l 69 313 "},">":{"ha":767,"x_min":111,"x_max":683,"o":"m 111 569 l 460 401 l 111 242 l 208 35 l 683 293 l 683 503 l 208 761 l 111 569 "},"<":{"ha":739,"x_min":56,"x_max":628,"o":"m 531 761 l 56 503 l 56 293 l 531 35 l 628 242 l 279 401 l 628 569 l 531 761 "},"≥":{"ha":767,"x_min":111,"x_max":683,"o":"m 683 335 l 683 544 l 181 733 l 111 542 l 454 443 l 111 353 l 181 146 l 683 335 m 681 -14 l 681 76 l 139 76 l 139 -14 l 681 -14 "},"≤":{"ha":767,"x_min":83,"x_max":656,"o":"m 656 353 l 313 443 l 656 542 l 586 733 l 83 544 l 83 335 l 586 146 l 656 353 m 628 -14 l 628 76 l 86 76 l 86 -14 l 628 -14 "},"±":{"ha":1083,"x_min":69,"x_max":1014,"o":"m 69 313 l 1014 313 l 1014 521 l 69 521 l 69 313 m 69 -14 l 1014 -14 l 1014 76 l 69 76 l 69 -14 m 410 153 l 674 153 l 674 681 l 410 681 l 410 153 "},"≈":{"ha":1242,"x_min":69,"x_max":1172,"o":"m 950 664 q 931 615 950 638 q 860 592 913 592 q 756 608 807 592 q 651 644 704 624 q 538 681 597 665 q 410 697 478 697 q 219 656 294 697 q 106 549 143 614 q 69 417 69 485 l 292 417 q 324 466 292 443 q 410 489 357 489 q 514 473 463 489 q 619 436 565 457 q 733 399 674 415 q 860 383 792 383 q 1038 424 968 383 q 1140 530 1107 465 q 1172 664 1172 594 l 950 664 m 978 321 q 945 272 978 294 q 860 249 913 249 q 756 265 807 249 q 651 301 704 281 q 538 338 597 322 q 410 354 478 354 q 219 313 294 354 q 106 207 143 271 q 69 74 69 143 l 292 74 q 324 123 292 100 q 410 146 357 146 q 514 130 463 146 q 619 93 565 114 q 733 56 674 72 q 860 40 792 40 q 1001 66 942 40 q 1097 134 1060 92 q 1153 226 1135 176 q 1172 321 1172 275 l 978 321 "},"~":{"ha":575,"x_min":111,"x_max":464,"o":"m 464 483 l 111 483 l 111 274 l 464 274 l 464 483 "},"¬":{"ha":1396,"x_min":118,"x_max":1257,"o":"m 118 611 l 118 403 l 993 403 l 993 222 l 1257 222 l 1257 611 l 118 611 "},"^":{"ha":815,"x_min":232,"x_max":585,"o":"m 585 907 l 232 907 l 232 699 l 585 699 l 585 907 "},"∅":{"ha":1481,"x_min":83,"x_max":1397,"o":"m 497 -94 l 590 67 q 665 64 626 65 q 743 63 703 63 q 1031 83 908 63 q 1235 146 1153 103 q 1357 257 1317 189 q 1397 422 1397 325 q 1298 658 1397 574 q 996 769 1199 742 l 1063 886 l 979 935 l 890 781 q 819 784 856 783 q 743 785 782 785 q 453 764 578 785 q 247 699 329 743 q 124 587 165 656 q 83 422 83 518 q 183 188 83 271 q 483 78 283 106 l 413 -46 l 497 -94 m 601 281 q 469 331 514 296 q 424 422 424 367 q 460 507 424 472 q 569 559 497 542 q 743 576 640 576 q 758 576 750 576 q 772 576 765 576 l 601 281 m 743 271 q 726 271 735 271 q 708 271 717 271 l 878 567 q 1012 515 967 551 q 1057 422 1057 478 q 1021 339 1057 372 q 915 288 985 306 q 743 271 846 271 "},"∞":{"ha":2250,"x_min":83,"x_max":2167,"o":"m 1678 88 q 1935 125 1825 88 q 2106 232 2044 163 q 2167 394 2167 301 q 2107 558 2167 489 q 1943 664 2047 626 q 1706 701 1839 701 q 1506 683 1590 701 q 1358 632 1421 664 q 1244 562 1294 600 q 1144 483 1193 524 q 1037 562 1093 524 q 911 632 981 600 q 752 683 842 664 q 544 701 663 701 q 307 664 411 701 q 143 558 203 626 q 83 396 83 489 q 144 233 83 303 q 315 126 206 164 q 572 88 425 88 q 814 117 713 88 q 994 194 915 147 q 1140 293 1072 242 q 1240 217 1189 254 q 1352 151 1290 181 q 1493 105 1414 122 q 1678 88 1572 88 m 656 293 q 586 297 625 293 q 512 312 547 301 q 453 342 476 322 q 431 396 431 363 q 463 458 431 438 q 540 486 494 479 q 628 493 586 493 q 788 479 718 493 q 913 441 857 465 q 1015 386 968 417 q 920 338 972 360 q 803 305 868 317 q 656 293 739 293 m 1594 293 q 1467 306 1525 293 q 1363 340 1410 318 q 1272 388 1315 361 q 1372 442 1319 418 q 1485 479 1424 465 q 1622 493 1547 493 q 1710 486 1664 493 q 1788 458 1756 479 q 1819 394 1819 436 q 1797 342 1819 363 q 1738 312 1774 322 q 1665 297 1703 301 q 1594 293 1626 293 "},"∫":{"ha":1043,"x_min":42,"x_max":1001,"o":"m 592 1056 q 422 1000 488 1056 q 356 819 356 944 l 356 236 q 319 137 356 163 q 231 111 283 111 l 42 111 l 42 -153 l 439 -153 q 565 -128 508 -153 q 656 -52 622 -104 q 689 83 689 0 l 689 667 q 726 766 689 740 q 814 792 763 792 l 1001 792 l 1001 1056 l 592 1056 "},"∏":{"ha":1639,"x_min":42,"x_max":1597,"o":"m 319 694 l 319 0 l 653 0 l 653 694 l 319 694 m 1597 889 l 42 889 l 42 625 l 1597 625 l 1597 889 m 1319 0 l 1319 694 l 986 694 l 986 0 l 1319 0 "},"∑":{"ha":1408,"x_min":117,"x_max":1283,"o":"m 117 889 l 117 625 l 540 401 l 596 486 l 117 264 l 117 0 l 1283 0 l 1283 264 l 306 264 l 278 72 l 997 426 l 269 807 l 306 625 l 1283 625 l 1283 889 l 117 889 "},"√":{"ha":1661,"x_min":7,"x_max":1633,"o":"m 1633 889 l 1050 889 l 633 250 l 374 681 l 7 681 l 469 0 l 783 0 l 1210 625 l 1633 625 l 1633 889 "},"µ":{"ha":1476,"x_min":63,"x_max":1449,"o":"m 1449 0 l 1449 264 q 1382 269 1410 264 q 1339 293 1354 275 q 1324 347 1324 311 l 1324 681 l 990 681 l 990 236 q 1033 107 990 160 q 1177 27 1076 54 q 1449 0 1278 0 m 1004 351 q 928 285 978 319 q 810 226 878 250 q 660 201 742 201 q 526 219 586 201 q 431 283 467 236 q 396 421 396 331 l 396 681 l 63 681 l 63 -278 l 396 -278 l 396 240 l 358 186 q 453 29 383 79 q 643 -21 522 -21 q 781 1 722 -21 q 881 59 840 24 q 949 136 922 94 q 989 217 975 178 q 1007 285 1003 256 l 1004 351 "},"∂":{"ha":1429,"x_min":49,"x_max":1346,"o":"m 692 -21 q 881 -10 786 -21 q 1058 28 975 1 q 1207 103 1142 56 q 1309 222 1272 150 q 1346 393 1346 293 q 1328 505 1346 443 q 1269 633 1311 567 q 1156 760 1228 699 q 974 872 1083 822 q 711 950 864 921 q 356 979 558 979 l 356 767 q 680 743 547 767 q 896 675 813 719 q 1022 565 979 631 q 1076 417 1064 500 l 1096 422 q 988 551 1068 499 q 793 632 908 604 q 539 660 678 660 q 349 643 438 660 q 192 590 260 626 q 87 492 125 553 q 49 340 49 431 q 124 146 49 226 q 342 22 199 65 q 692 -21 486 -21 m 719 192 q 481 219 568 192 q 394 325 394 247 q 479 425 394 396 q 706 454 564 454 q 823 449 758 454 q 947 429 888 443 q 1044 389 1006 415 q 1082 321 1082 363 q 1042 251 1082 281 q 922 207 1003 222 q 719 192 842 192 "},"%":{"ha":1801,"x_min":42,"x_max":1760,"o":"m 440 451 q 653 476 565 451 q 788 553 742 500 q 835 692 835 606 q 731 876 835 819 q 440 933 628 933 q 147 876 251 933 q 42 692 42 819 q 89 553 42 606 q 225 476 136 500 q 440 451 314 451 m 440 590 q 312 616 356 590 q 268 692 268 642 q 313 768 268 742 q 440 794 357 794 q 565 767 522 794 q 607 692 607 740 q 565 616 607 642 q 440 590 522 590 m 1365 -24 q 1657 32 1554 -24 q 1760 217 1760 88 q 1657 401 1760 344 q 1365 458 1554 458 q 1072 401 1176 458 q 967 217 967 344 q 1072 32 967 88 q 1365 -24 1176 -24 m 1365 115 q 1238 141 1281 115 q 1194 217 1194 167 q 1239 293 1194 267 q 1365 319 1283 319 q 1490 292 1447 319 q 1533 217 1533 265 q 1490 141 1533 167 q 1365 115 1447 115 m 1129 953 l 601 -3 l 674 -47 l 1204 911 l 1129 953 "},"‰":{"ha":2047,"x_min":42,"x_max":2006,"o":"m 440 453 q 653 476 565 453 q 788 553 742 500 q 835 692 835 606 q 731 877 835 821 q 440 933 628 933 q 147 877 251 933 q 42 692 42 821 q 89 553 42 606 q 225 476 136 500 q 440 453 314 453 m 440 592 q 312 617 356 592 q 268 692 268 642 q 313 768 268 742 q 440 794 357 794 q 565 768 522 794 q 607 692 607 742 q 565 617 607 642 q 440 592 522 592 m 1611 424 q 1825 447 1738 424 q 1959 524 1913 471 q 2006 663 2006 576 q 1903 848 2006 792 q 1611 904 1800 904 q 1317 848 1422 904 q 1213 663 1213 792 q 1260 524 1213 576 q 1396 447 1307 471 q 1611 424 1485 424 m 1611 563 q 1483 588 1526 563 q 1440 663 1440 613 q 1485 739 1440 713 q 1611 765 1529 765 q 1737 739 1694 765 q 1779 663 1779 713 q 1736 588 1779 613 q 1611 563 1693 563 m 1308 -119 q 1522 -96 1435 -119 q 1656 -19 1610 -72 q 1703 119 1703 33 q 1600 305 1703 249 q 1308 361 1497 361 q 1015 305 1119 361 q 910 119 910 249 q 957 -19 910 33 q 1093 -96 1004 -72 q 1308 -119 1182 -119 m 1308 19 q 1181 44 1224 19 q 1138 119 1138 69 q 1182 196 1138 169 q 1308 222 1226 222 q 1433 196 1390 222 q 1476 119 1476 169 q 1433 44 1476 69 q 1308 19 1390 19 m 1136 953 l 608 -3 l 681 -47 l 1211 911 l 1136 953 "},"↑":{"ha":1057,"x_min":129,"x_max":935,"o":"m 428 -112 l 636 -112 l 636 565 l 629 690 l 799 526 l 935 679 l 532 1054 l 129 679 l 268 528 l 435 689 l 428 565 l 428 -112 "},"↗":{"ha":1196,"x_min":139,"x_max":1057,"o":"m 286 -24 l 765 457 l 849 550 l 853 314 l 1057 325 l 1038 876 l 488 896 l 479 690 l 711 686 l 618 604 l 139 124 l 286 -24 "},"→":{"ha":1307,"x_min":56,"x_max":1224,"o":"m 847 -15 l 1224 388 l 847 792 l 696 651 l 857 485 l 733 492 l 56 492 l 56 283 l 733 283 l 857 290 l 694 122 l 847 -15 "},"↘":{"ha":1197,"x_min":139,"x_max":1058,"o":"m 488 -21 l 1039 -1 l 1058 550 l 853 558 l 849 325 l 765 418 l 286 897 l 139 750 l 618 271 l 711 189 l 476 185 l 488 -21 "},"↓":{"ha":1057,"x_min":125,"x_max":932,"o":"m 528 -185 l 932 192 l 793 343 l 625 181 l 632 306 l 632 983 l 424 983 l 424 306 l 431 182 l 263 344 l 125 192 l 528 -185 "},"↙":{"ha":1197,"x_min":139,"x_max":1058,"o":"m 710 -21 l 721 185 l 486 189 l 578 271 l 1058 750 l 911 897 l 431 418 l 349 326 l 344 558 l 139 550 l 158 -1 l 710 -21 "},"←":{"ha":1307,"x_min":83,"x_max":1251,"o":"m 458 -15 l 613 122 l 450 290 l 572 283 l 1251 283 l 1251 492 l 572 492 l 449 485 l 610 651 l 458 792 l 83 388 l 458 -15 "},"↖":{"ha":1196,"x_min":139,"x_max":1057,"o":"m 910 -15 l 1057 132 l 578 611 l 486 694 l 718 699 l 710 903 l 158 883 l 139 333 l 344 322 l 349 556 l 431 464 l 910 -15 "},"↔":{"ha":1678,"x_min":83,"x_max":1594,"o":"m 458 -15 l 613 122 l 451 288 l 506 283 l 1172 283 l 1226 288 l 1067 122 l 1219 -15 l 1594 388 l 1219 792 l 1068 651 l 1226 488 l 1172 492 l 506 492 l 450 488 l 610 651 l 458 792 l 83 388 l 458 -15 "},"↕":{"ha":1057,"x_min":125,"x_max":932,"o":"m 528 -243 l 932 132 l 793 283 l 628 124 l 632 179 l 632 707 l 628 763 l 793 603 l 932 754 l 528 1129 l 125 754 l 263 600 l 428 760 l 424 707 l 424 179 l 428 126 l 263 286 l 125 132 l 528 -243 "},"◊":{"ha":1390,"x_min":69,"x_max":1321,"o":"m 696 -8 l 1321 468 l 694 944 l 69 468 l 696 -8 m 696 242 l 394 468 l 694 694 l 996 468 l 696 242 "},"΄":{"ha":961,"x_min":139,"x_max":864,"o":"m 139 833 l 474 833 l 864 1042 l 419 1042 l 139 833 "},"΅":{"ha":1456,"x_min":0,"x_max":1456,"o":"m 353 958 l 0 958 l 0 749 l 353 749 l 353 958 m 1456 958 l 1103 958 l 1103 749 l 1456 749 l 1456 958 m 365 749 l 700 749 l 1090 958 l 646 958 l 365 749 "},"̈":{"ha":0,"x_min":51,"x_max":826,"o":"m 404 1046 l 51 1046 l 51 836 l 404 836 l 404 1046 m 826 1046 l 474 1046 l 474 836 l 826 836 l 826 1046 "},"̇":{"ha":0,"x_min":28,"x_max":381,"o":"m 381 1046 l 28 1046 l 28 838 l 381 838 l 381 1046 "},"̀":{"ha":0,"x_min":139,"x_max":864,"o":"m 529 836 l 864 836 l 583 1044 l 139 1044 l 529 836 "},"́":{"ha":0,"x_min":139,"x_max":864,"o":"m 139 836 l 474 836 l 864 1044 l 419 1044 l 139 836 "},"̋":{"ha":0,"x_min":139,"x_max":1017,"o":"m 519 836 l 757 836 l 1017 1044 l 733 1044 l 519 836 m 139 836 l 376 836 l 608 1044 l 326 1044 l 139 836 "},"̂":{"ha":0,"x_min":139,"x_max":1144,"o":"m 836 1044 l 447 1044 l 139 836 l 474 836 l 772 1006 l 511 1007 l 808 836 l 1144 836 l 836 1044 "},"̌":{"ha":0,"x_min":139,"x_max":1144,"o":"m 772 875 l 474 1044 l 139 1044 l 447 836 l 836 836 l 1144 1044 l 808 1044 l 511 874 l 772 875 "},"̆":{"ha":0,"x_min":181,"x_max":1222,"o":"m 1222 1014 l 1014 1014 q 909 974 982 994 q 701 953 836 953 q 493 974 567 953 q 389 1014 419 994 l 181 1014 q 271 913 208 958 q 439 841 333 868 q 701 814 544 814 q 964 841 858 814 q 1132 913 1069 868 q 1222 1014 1194 958 "},"̊":{"ha":0,"x_min":139,"x_max":608,"o":"m 374 801 q 550 844 492 801 q 608 957 608 886 q 550 1069 608 1026 q 374 1111 492 1111 q 197 1069 254 1111 q 139 957 139 1026 q 197 844 139 886 q 374 801 254 801 m 374 892 q 294 906 317 892 q 271 957 271 919 q 294 1007 271 993 q 374 1021 317 1021 q 452 1007 429 1021 q 475 957 475 993 q 452 906 475 919 q 374 892 429 892 "},"̃":{"ha":0,"x_min":139,"x_max":1163,"o":"m 836 826 q 985 857 922 826 q 1093 935 1049 888 q 1163 1035 1138 983 l 954 1035 q 918 1001 938 1017 q 872 975 899 985 q 807 965 846 965 q 724 977 763 965 q 647 1003 686 989 q 565 1030 608 1018 q 465 1042 521 1042 q 317 1011 381 1042 q 209 933 253 981 q 139 833 165 886 l 347 833 q 387 871 368 856 q 429 894 406 886 q 486 903 453 903 q 571 891 531 903 q 651 865 611 879 q 737 838 692 850 q 836 826 782 826 "},"̄":{"ha":0,"x_min":139,"x_max":769,"o":"m 139 838 l 769 838 l 769 975 l 139 975 l 139 838 "},"̒":{"ha":0,"x_min":449,"x_max":800,"o":"m 761 1101 q 523 1021 597 1083 q 449 883 449 958 l 449 776 l 800 776 l 800 939 l 678 954 q 715 992 682 975 q 779 1015 749 1008 l 761 1101 "},"̦":{"ha":0,"x_min":39,"x_max":390,"o":"m 78 -393 l 78 -393 q 312 -316 233 -376 q 390 -175 390 -256 l 390 -68 l 39 -68 l 39 -231 l 161 -246 q 128 -281 157 -265 q 58 -307 99 -297 l 78 -393 "},"̧":{"ha":0,"x_min":139,"x_max":867,"o":"m 663 26 l 426 26 l 426 -90 q 525 -110 494 -99 q 564 -133 556 -121 q 572 -156 572 -144 q 552 -184 572 -174 q 492 -194 532 -194 q 428 -185 451 -194 q 395 -166 406 -176 q 381 -151 385 -156 l 139 -151 q 188 -253 146 -204 q 308 -331 229 -301 q 500 -361 386 -361 q 772 -315 676 -361 q 867 -192 867 -268 q 838 -123 867 -149 q 761 -82 810 -97 q 651 -58 713 -67 q 524 -39 589 -49 l 663 -210 l 663 26 "},"̨":{"ha":0,"x_min":139,"x_max":624,"o":"m 624 -333 l 624 -197 q 508 -186 561 -197 q 422 -151 454 -175 q 389 -90 389 -128 q 434 -27 389 -44 q 567 0 479 -10 l 567 31 q 347 7 443 24 q 194 -45 250 -10 q 139 -146 139 -81 q 268 -283 139 -233 q 624 -333 397 -333 "},"̵":{"ha":0,"x_min":28,"x_max":708,"o":"m 28 582 l 28 492 l 708 492 l 708 582 l 28 582 "},"̶":{"ha":0,"x_min":28,"x_max":583,"o":"m 28 589 l 28 506 l 583 506 l 583 589 l 28 589 "},"̷":{"ha":0,"x_min":28,"x_max":646,"o":"m 594 783 l 28 394 l 76 321 l 646 710 l 594 783 "},"̸":{"ha":0,"x_min":28,"x_max":704,"o":"m 629 1063 l 28 -25 l 100 -69 l 704 1021 l 629 1063 "},"¨":{"ha":775,"x_min":24,"x_max":799,"o":"m 376 1046 l 24 1046 l 24 836 l 376 836 l 376 1046 m 799 1046 l 446 1046 l 446 836 l 799 836 l 799 1046 "},"˙":{"ha":422,"x_min":28,"x_max":381,"o":"m 381 1046 l 28 1046 l 28 838 l 381 838 l 381 1046 "},"`":{"ha":1003,"x_min":139,"x_max":864,"o":"m 529 836 l 864 836 l 583 1044 l 139 1044 l 529 836 "},"´":{"ha":961,"x_min":139,"x_max":864,"o":"m 139 836 l 474 836 l 864 1044 l 419 1044 l 139 836 "},"˝":{"ha":1156,"x_min":139,"x_max":1017,"o":"m 519 836 l 757 836 l 1017 1044 l 733 1044 l 519 836 m 139 836 l 376 836 l 608 1044 l 326 1044 l 139 836 "},"ˆ":{"ha":1283,"x_min":139,"x_max":1144,"o":"m 836 1044 l 447 1044 l 139 836 l 474 836 l 772 1006 l 511 1007 l 808 836 l 1144 836 l 836 1044 "},"ˇ":{"ha":1283,"x_min":139,"x_max":1144,"o":"m 772 875 l 474 1044 l 139 1044 l 447 836 l 836 836 l 1144 1044 l 808 1044 l 511 874 l 772 875 "},"˘":{"ha":1403,"x_min":181,"x_max":1222,"o":"m 1222 1014 l 1014 1014 q 909 974 982 994 q 701 953 836 953 q 493 974 567 953 q 389 1014 419 994 l 181 1014 q 271 913 208 958 q 439 841 333 868 q 701 814 544 814 q 964 841 858 814 q 1132 913 1069 868 q 1222 1014 1194 958 "},"˚":{"ha":747,"x_min":139,"x_max":608,"o":"m 374 801 q 550 844 492 801 q 608 957 608 886 q 550 1069 608 1026 q 374 1111 492 1111 q 197 1069 254 1111 q 139 957 139 1026 q 197 844 139 886 q 374 801 254 801 m 374 892 q 294 906 317 892 q 271 957 271 919 q 294 1007 271 993 q 374 1021 317 1021 q 452 1007 429 1021 q 475 957 475 993 q 452 906 475 919 q 374 892 429 892 "},"˜":{"ha":1301,"x_min":139,"x_max":1163,"o":"m 836 826 q 985 857 922 826 q 1093 935 1049 888 q 1163 1035 1138 983 l 954 1035 q 918 1001 938 1017 q 872 975 899 985 q 807 965 846 965 q 724 977 763 965 q 647 1003 686 989 q 565 1030 608 1018 q 465 1042 521 1042 q 317 1011 381 1042 q 209 933 253 981 q 139 833 165 886 l 347 833 q 387 871 368 856 q 429 894 406 886 q 486 903 453 903 q 571 891 531 903 q 651 865 611 879 q 737 838 692 850 q 836 826 782 826 "},"¯":{"ha":908,"x_min":139,"x_max":769,"o":"m 139 838 l 769 838 l 769 975 l 139 975 l 139 838 "},"¸":{"ha":964,"x_min":139,"x_max":867,"o":"m 663 26 l 426 26 l 426 -90 q 525 -110 494 -99 q 564 -133 556 -121 q 572 -156 572 -144 q 552 -184 572 -174 q 492 -194 532 -194 q 428 -185 451 -194 q 395 -166 406 -176 q 381 -151 385 -156 l 139 -151 q 188 -253 146 -204 q 308 -331 229 -301 q 500 -361 386 -361 q 772 -315 676 -361 q 867 -192 867 -268 q 838 -123 867 -149 q 761 -82 810 -97 q 651 -58 713 -67 q 524 -39 589 -49 l 663 -210 l 663 26 "},"˛":{"ha":763,"x_min":139,"x_max":624,"o":"m 624 -333 l 624 -197 q 508 -186 561 -197 q 422 -151 454 -175 q 389 -90 389 -128 q 434 -27 389 -44 q 567 0 479 -10 l 567 31 q 347 7 443 24 q 194 -45 250 -10 q 139 -146 139 -81 q 268 -283 139 -233 q 624 -333 397 -333 "}}}
